<?xml version="1.0" encoding="UTF-8" standalone="no"?>
<!-- Created with Inkscape (http://www.inkscape.org/) -->

<svg
   xmlns:dc="http://purl.org/dc/elements/1.1/"
   xmlns:cc="http://creativecommons.org/ns#"
   xmlns:rdf="http://www.w3.org/1999/02/22-rdf-syntax-ns#"
   xmlns:svg="http://www.w3.org/2000/svg"
   xmlns="http://www.w3.org/2000/svg"
   xmlns:xlink="http://www.w3.org/1999/xlink"
   xmlns:sodipodi="http://sodipodi.sourceforge.net/DTD/sodipodi-0.dtd"
   xmlns:inkscape="http://www.inkscape.org/namespaces/inkscape"
   version="1.1"
   id="svg3680"
   width="306.27319"
   height="476.25458"
   viewBox="0 0 306.27319 476.25458"
   sodipodi:docname="11111112.svg"
   inkscape:version="0.92.1 r15371">
  <metadata
     id="metadata3686">
    <rdf:RDF>
      <cc:Work
         rdf:about="">
        <dc:format>image/svg+xml</dc:format>
        <dc:type
           rdf:resource="http://purl.org/dc/dcmitype/StillImage" />
        <dc:title></dc:title>
      </cc:Work>
    </rdf:RDF>
  </metadata>
  <defs
     id="defs3684">
    <linearGradient
       inkscape:collect="always"
       id="linearGradient7585">
      <stop
         style="stop-color:#88c6d5;stop-opacity:1;"
         offset="0"
         id="stop7581" />
      <stop
         style="stop-color:#f6e37a;stop-opacity:1"
         offset="1"
         id="stop7583" />
    </linearGradient>
    <linearGradient
       inkscape:collect="always"
       id="linearGradient7577">
      <stop
         style="stop-color:#88c6d5;stop-opacity:1;"
         offset="0"
         id="stop7573" />
      <stop
         style="stop-color:#f6e37a;stop-opacity:1"
         offset="1"
         id="stop7575" />
    </linearGradient>
    <linearGradient
       inkscape:collect="always"
       id="linearGradient7569">
      <stop
         style="stop-color:#88c6d5;stop-opacity:1;"
         offset="0"
         id="stop7565" />
      <stop
         style="stop-color:#f6e37a;stop-opacity:1"
         offset="1"
         id="stop7567" />
    </linearGradient>
    <linearGradient
       inkscape:collect="always"
       id="linearGradient7559">
      <stop
         style="stop-color:#88c6d5;stop-opacity:1;"
         offset="0"
         id="stop7555" />
      <stop
         style="stop-color:#f6e37a;stop-opacity:1"
         offset="1"
         id="stop7557" />
    </linearGradient>
    <linearGradient
       inkscape:collect="always"
       id="linearGradient7551">
      <stop
         style="stop-color:#88c6d5;stop-opacity:1;"
         offset="0"
         id="stop7547" />
      <stop
         style="stop-color:#f6e37a;stop-opacity:1"
         offset="1"
         id="stop7549" />
    </linearGradient>
    <linearGradient
       inkscape:collect="always"
       id="linearGradient7410">
      <stop
         style="stop-color:#fcf1c4;stop-opacity:1;"
         offset="0"
         id="stop7406" />
      <stop
         style="stop-color:#c2f169;stop-opacity:1"
         offset="1"
         id="stop7408" />
    </linearGradient>
    <linearGradient
       inkscape:collect="always"
       id="linearGradient7374">
      <stop
         style="stop-color:#ff4770;stop-opacity:1;"
         offset="0"
         id="stop7370" />
      <stop
         style="stop-color:#c2f169;stop-opacity:1"
         offset="1"
         id="stop7372" />
    </linearGradient>
    <linearGradient
       inkscape:collect="always"
       id="linearGradient7364">
      <stop
         style="stop-color:#ff4770;stop-opacity:1"
         offset="0"
         id="stop7360" />
      <stop
         style="stop-color:#c2f169;stop-opacity:1"
         offset="1"
         id="stop7362" />
    </linearGradient>
    <filter
       inkscape:collect="always"
       style="color-interpolation-filters:sRGB"
       id="filter5580"
       x="-0.033240855"
       width="1.0664817"
       y="-0.033966992"
       height="1.067934">
      <feGaussianBlur
         inkscape:collect="always"
         stdDeviation="0.73736473"
         id="feGaussianBlur5582" />
    </filter>
    <filter
       inkscape:collect="always"
       style="color-interpolation-filters:sRGB"
       id="filter5998"
       x="-0.19527967"
       width="1.3905593"
       y="-0.11037546"
       height="1.2207509">
      <feGaussianBlur
         inkscape:collect="always"
         stdDeviation="0.71002122"
         id="feGaussianBlur6000" />
    </filter>
    <filter
       inkscape:collect="always"
       style="color-interpolation-filters:sRGB"
       id="filter6332"
       x="-0.30720001"
       width="1.6144"
       y="-0.30720001"
       height="1.6144">
      <feGaussianBlur
         inkscape:collect="always"
         stdDeviation="0.93584906"
         id="feGaussianBlur6334" />
    </filter>
    <filter
       inkscape:collect="always"
       style="color-interpolation-filters:sRGB"
       id="filter6444"
       x="-0.3924"
       width="1.7848001"
       y="-0.3924"
       height="1.7848001">
      <feGaussianBlur
         inkscape:collect="always"
         stdDeviation="1.1954009"
         id="feGaussianBlur6446" />
    </filter>
    <filter
       inkscape:collect="always"
       style="color-interpolation-filters:sRGB"
       id="filter6734"
       x="-0.13281217"
       width="1.2656243"
       y="-0.038753826"
       height="1.0775077">
      <feGaussianBlur
         inkscape:collect="always"
         stdDeviation="0.56717195"
         id="feGaussianBlur6736" />
    </filter>
    <filter
       inkscape:collect="always"
       style="color-interpolation-filters:sRGB"
       id="filter6766"
       x="-0.14648893"
       width="1.2929779"
       y="-0.037726"
       height="1.075452">
      <feGaussianBlur
         inkscape:collect="always"
         stdDeviation="0.50354592"
         id="feGaussianBlur6768" />
    </filter>
    <linearGradient
       inkscape:collect="always"
       xlink:href="#linearGradient7364"
       id="linearGradient7366"
       x1="291.30435"
       y1="64.90683"
       x2="299.68942"
       y2="91.614906"
       gradientUnits="userSpaceOnUse" />
    <linearGradient
       inkscape:collect="always"
       xlink:href="#linearGradient7374"
       id="linearGradient7376"
       x1="174.84473"
       y1="59.627327"
       x2="180.43478"
       y2="86.335403"
       gradientUnits="userSpaceOnUse" />
    <linearGradient
       inkscape:collect="always"
       xlink:href="#linearGradient7410"
       id="linearGradient7412"
       x1="241.22137"
       y1="283.20612"
       x2="237.78625"
       y2="308.77859"
       gradientUnits="userSpaceOnUse"
       spreadMethod="reflect" />
    <linearGradient
       inkscape:collect="always"
       xlink:href="#linearGradient7551"
       id="linearGradient7553"
       x1="208.77258"
       y1="478.32166"
       x2="208.2571"
       y2="492.75531"
       gradientUnits="userSpaceOnUse" />
    <linearGradient
       inkscape:collect="always"
       xlink:href="#linearGradient7559"
       id="linearGradient7561"
       x1="169.08002"
       y1="364.91434"
       x2="175.26587"
       y2="376.77057"
       gradientUnits="userSpaceOnUse" />
    <linearGradient
       inkscape:collect="always"
       xlink:href="#linearGradient7559"
       id="linearGradient7563"
       x1="161.0687"
       y1="371.75574"
       x2="163.92514"
       y2="397.90555"
       gradientUnits="userSpaceOnUse" />
    <linearGradient
       inkscape:collect="always"
       xlink:href="#linearGradient7569"
       id="linearGradient7571"
       x1="314.50381"
       y1="380.15268"
       x2="324.75735"
       y2="389.65775"
       gradientUnits="userSpaceOnUse" />
    <linearGradient
       inkscape:collect="always"
       xlink:href="#linearGradient7577"
       id="linearGradient7579"
       x1="207.22942"
       y1="296.28998"
       x2="190.7305"
       y2="294.80798"
       gradientUnits="userSpaceOnUse" />
    <linearGradient
       inkscape:collect="always"
       xlink:href="#linearGradient7585"
       id="linearGradient7587"
       x1="261.35233"
       y1="298.93188"
       x2="273.13773"
       y2="315.48438"
       gradientUnits="userSpaceOnUse" />
  </defs>
  <sodipodi:namedview
     pagecolor="#ffffff"
     bordercolor="#666666"
     borderopacity="1"
     objecttolerance="10"
     gridtolerance="10"
     guidetolerance="10"
     inkscape:pageopacity="0"
     inkscape:pageshadow="2"
     inkscape:window-width="1920"
     inkscape:window-height="1001"
     id="namedview3682"
     showgrid="false"
     inkscape:zoom="1.3435675"
     inkscape:cx="149.07112"
     inkscape:cy="235.00148"
     inkscape:window-x="-9"
     inkscape:window-y="-9"
     inkscape:window-maximized="1"
     inkscape:current-layer="layer4" />
  <g
     inkscape:groupmode="layer"
     id="layer1"
     inkscape:label="тело"
     style="display:inline"
     transform="translate(-118.2964,-37.325391)">
    <ellipse
       id="path3694"
       cx="265.47028"
       cy="153.15594"
       rx="97.9524"
       ry="87.741997"
       style="opacity:1;fill:none;stroke:#000000;stroke-width:2;stroke-miterlimit:4;stroke-dasharray:none;stroke-opacity:1" />
    <path
       style="opacity:1;fill:#88c6d5;fill-opacity:1;stroke:none;stroke-width:0;stroke-linecap:round;stroke-linejoin:round;stroke-miterlimit:4;stroke-dasharray:none;stroke-opacity:1"
       d="m 259.07559,239.60831 c -34.645,-2.2614 -64.8933,-20.36332 -80.37928,-48.1025 -13.78538,-24.69299 -13.27231,-54.67335 1.35252,-79.03216 15.14909,-25.232005 42.01652,-41.63019 74.36837,-45.389756 4.41935,-0.513567 17.6132,-0.509382 22.20497,0.007 34.48386,3.878317 63.59323,23.115027 77.31813,51.095106 4.96998,10.13199 7.33914,18.88508 8.14729,30.10093 0.38412,5.33093 0.0487,12.25332 -0.84885,17.51916 -2.85624,16.7571 -10.95743,32.24477 -23.43644,44.80525 -15.58284,15.68457 -36.56421,25.63863 -59.93789,28.43598 -3.8325,0.45867 -15.17005,0.79716 -18.78882,0.56095 z"
       id="path7382"
       inkscape:connector-curvature="0" />
    <path
       style="fill:none;stroke:#000000;stroke-width:2;stroke-linecap:butt;stroke-linejoin:round;stroke-miterlimit:4;stroke-dasharray:none;stroke-opacity:1"
       d="m 231.67939,235.1145 c 0,0 -22.00462,53.94069 -38.16794,98.09161 -16.16332,44.15092 4.58015,98.0916 4.58015,98.0916"
       id="path7398"
       inkscape:connector-curvature="0"
       sodipodi:nodetypes="czc" />
    <path
       style="fill:none;stroke:#000000;stroke-width:2;stroke-linecap:butt;stroke-linejoin:miter;stroke-miterlimit:4;stroke-dasharray:none;stroke-opacity:1"
       d="m 282.44275,239.31298 c 0,0 -2.88588,25.34368 3.81679,69.84733 6.70267,44.50365 23.66412,111.45038 23.66412,111.45038"
       id="path7400"
       inkscape:connector-curvature="0"
       sodipodi:nodetypes="czc" />
    <path
       style="fill:none;stroke:#000000;stroke-width:2;stroke-linecap:butt;stroke-linejoin:round;stroke-miterlimit:4;stroke-dasharray:none;stroke-opacity:1"
       d="m 223.66412,425.57252 c 0,0 -13.72996,-35.11275 -16.03053,-53.43512 -2.30057,-18.32237 -1.93307,-38.121 2.29007,-54.96183 4.22314,-16.84083 16.7939,-38.9313 21.37405,-43.51145 4.58015,-4.58015 6.96001,-7.64489 11.0687,-7.63359 0,0 9.10965,2.17468 16.03054,13.35878 6.92089,11.1841 10.78567,36.54373 13.35878,56.48855 2.57311,19.94482 3.15511,46.17531 1.52671,62.59542 -1.6284,16.42011 -8.01526,35.49619 -8.01526,35.49619 0,0 -11.61921,-7.85809 -21.36658,-8.43396 -9.74737,-0.57587 -20.23648,0.037 -20.23648,0.037 z"
       id="path7402"
       inkscape:connector-curvature="0"
       sodipodi:nodetypes="czzzszzzczc" />
    <path
       style="opacity:1;fill:url(#linearGradient7412);fill-opacity:1;stroke:none;stroke-width:0.76335877;stroke-linecap:butt;stroke-linejoin:round;stroke-miterlimit:4;stroke-dasharray:none;stroke-opacity:1"
       d="m 261.2182,430.24225 c -3.69506,-2.15708 -9.75418,-4.54114 -13.58351,-5.34467 -2.36426,-0.4961 -5.33634,-0.65328 -13.16794,-0.6964 l -10.1145,-0.0557 -3.112,-8.58778 c -6.13727,-16.93626 -10.79399,-32.92778 -12.11929,-41.61856 -2.69611,-17.67985 -2.07961,-39.35467 1.55741,-54.75549 2.79887,-11.85171 9.86757,-27.6048 17.89736,-39.8855 2.98819,-4.57011 9.07435,-10.61788 11.6909,-11.61715 1.77444,-0.67766 1.77979,-0.67723 3.95294,0.31767 4.85217,2.2214 9.31495,6.2406 12.71857,11.45442 5.29732,8.11469 9.44752,24.90033 13.21685,53.45607 2.12208,16.07649 3.07652,33.31904 2.72628,49.25159 -0.35734,16.25523 -1.17713,22.73182 -4.6379,36.64122 -2.49481,10.02705 -3.33917,12.89502 -3.82952,13.00745 -0.20182,0.0463 -1.63986,-0.65896 -3.19565,-1.56719 z"
       id="path7404"
       inkscape:connector-curvature="0" />
    <path
       style="opacity:1;fill:url(#linearGradient7553);fill-opacity:1;stroke:none;stroke-width:0.76335877;stroke-linecap:round;stroke-linejoin:round;stroke-miterlimit:4;stroke-dasharray:none;stroke-opacity:1"
       d="m 371.3392,510.40365 c 0.70587,-2.1445 -0.0861,-3.89651 -3.01258,-6.66422 -2.87253,-2.71672 -7.48051,-5.64651 -14.84556,-9.43893 -6.12437,-3.15357 -17.88063,-8.61059 -18.55012,-8.61059 -0.18792,0 -0.54158,0.43878 -0.78593,0.97507 -0.42516,0.93312 -0.36621,1.00915 1.37003,1.76704 16.15543,7.05198 26.84979,12.92882 31.1082,17.09479 2.81614,2.75502 3.27827,4.01818 1.62214,4.43385 -0.52481,0.13172 -0.9542,0.40627 -0.9542,0.61011 0,0.52496 -1.62653,0.13022 -8.20611,-1.9915 -3.14885,-1.01541 -10.5219,-3.32761 -16.38454,-5.13822 -16.77709,-5.18139 -25.33825,-8.52029 -27.20122,-10.60863 -0.41912,-0.46982 -0.9411,-1.90529 -1.17596,-3.23398 -1.52181,-8.60914 -15.59592,-31.9527 -24.83507,-41.19185 -4.89072,-4.89072 -11.22495,-9.3161 -18.71318,-13.07386 -2.12608,-1.06692 -3.86454,-2.06711 -3.86324,-2.22264 0.001,-0.15552 0.52372,-2.08621 1.16093,-4.29041 5.58923,-19.33398 7.21927,-31.0465 7.2241,-51.9084 0.005,-21.07013 -1.62974,-39.49815 -5.55099,-62.57947 -3.94675,-23.23137 -8.21048,-34.79348 -15.52988,-42.11287 -2.76645,-2.76645 -4.78825,-4.22833 -8.29889,-6.00057 -4.69303,-2.36914 -7.30107,-1.50518 -13.20458,4.37427 -5.54853,5.52591 -11.08364,14.38919 -16.72564,26.78252 -5.75145,12.63373 -8.34816,21.77384 -10.01836,35.26358 -0.94216,7.60953 -0.95014,27.05686 -0.0145,35.30308 1.47163,12.97001 6.19325,30.07788 14.48425,52.48091 l 2.04817,5.53436 -1.10741,31.29771 c -1.23247,34.83194 -0.94512,32.34303 -3.93294,34.06563 -4.07654,2.35031 -11.08514,3.76652 -25.72747,5.19871 -13.59792,1.33003 -18.23346,1.50817 -26.33588,1.01204 -6.84227,-0.41897 -7.10246,-0.46522 -8.39695,-1.49235 -0.73473,-0.58299 -1.6697,-1.66946 -2.07772,-2.41438 -0.70158,-1.28089 -0.70696,-1.40764 -0.0991,-2.33528 1.30478,-1.99135 11.51449,-4.42913 28.96329,-6.91558 5.10525,-0.72749 10.39869,-1.43855 11.76319,-1.58012 2.78164,-0.2886 3.81679,-0.69198 3.81679,-1.48734 0,-1.44985 -0.43306,-1.42855 -16.22137,0.79781 -14.97929,2.11228 -25.73464,4.47079 -28.67506,6.28808 -1.26937,0.78452 -2.4318,2.76794 -2.4318,4.14934 0,0.45102 0.2703,1.34274 0.60066,1.9816 1.24038,2.39862 -0.46823,1.84795 -3.52842,-1.13719 -2.50248,-2.44111 -3.54527,-4.35159 -2.92316,-5.35549 0.75566,-1.21943 3.5978,-2.39398 9.35942,-3.86792 10.38486,-2.65666 32.43172,-6.75915 43.05639,-8.01197 5.97561,-0.70461 6.06484,-0.72853 6.7777,-1.81661 1.76908,-2.70026 -0.0377,-17.00749 -4.69463,-37.17485 -0.71021,-3.07563 -1.99191,-7.71046 -2.84823,-10.29962 -4.395,-13.28864 -7.58441,-29.1385 -8.80612,-43.76222 -0.65341,-7.82122 -0.26276,-23.18335 0.75907,-29.84993 0.97226,-6.34319 2.59136,-13.03286 4.43412,-18.32061 4.25421,-12.2073 16.26729,-43.45955 28.85913,-75.07754 l 9.15109,-22.97831 1.02744,0.39407 c 1.97243,0.75653 11.74608,2.96497 15.72211,3.55256 7.63158,1.12783 15.80619,1.49617 22.77308,1.02614 3.53397,-0.23843 7.05581,-0.53848 7.82633,-0.66679 l 1.40094,-0.23329 -0.21083,9.49158 c -0.80941,36.43802 5.99533,79.25602 25.43775,160.0641 1.63826,6.8091 2.7777,12.48107 3.04628,15.16406 0.50418,5.03653 2.53997,13.46492 4.68054,19.37792 2.27953,6.29688 6.7509,15.19541 9.49349,18.89313 7.05341,9.50982 18.6871,19.29205 41.27078,34.70268 11.01961,7.51956 13.67095,9.60811 13.67095,10.76908 0,1.05826 -2.13923,1.85649 -4.97529,1.85649 -2.24358,0 -2.3178,-0.0311 -2.04539,-0.85878 z"
       id="path7507"
       inkscape:connector-curvature="0" />
  </g>
  <g
     inkscape:groupmode="layer"
     id="layer7"
     inkscape:label="ноги"
     style="display:inline"
     transform="translate(-118.2964,-37.325391)">
    <path
       style="fill:none;stroke:#000000;stroke-width:2;stroke-linecap:butt;stroke-linejoin:miter;stroke-miterlimit:4;stroke-dasharray:none;stroke-opacity:1"
       d="m 198.0916,431.29771 c 0,0 10.7075,42.86996 5.34351,43.12977 -8.27208,0.40066 -46.31875,7.02688 -55.34351,10.68702 -9.02476,3.66014 3.43512,11.83206 3.43512,11.83206 3.55525,1.42769 20.79446,2.78037 32.44275,1.52672 11.64829,-1.25365 34.95218,-2.16011 37.40458,-9.54198 l 2.29007,-63.35878"
       id="path7459"
       inkscape:connector-curvature="0"
       sodipodi:nodetypes="cszszcc" />
    <path
       style="fill:none;stroke:#000000;stroke-width:2;stroke-linecap:round;stroke-linejoin:round;stroke-miterlimit:4;stroke-dasharray:none;stroke-opacity:1"
       d="m 158.39695,498.47328 c 0,0 -7.78198,-4.10637 -4.19848,-8.39694 3.5835,-4.29057 43.89313,-8.77863 43.89313,-8.77863"
       id="path7461"
       inkscape:connector-curvature="0"
       sodipodi:nodetypes="czc" />
    <path
       style="fill:none;stroke:#000000;stroke-width:2;stroke-linecap:butt;stroke-linejoin:miter;stroke-miterlimit:4;stroke-dasharray:none;stroke-opacity:1"
       d="m 309.92366,420.61069 c 0,0 -0.0687,16.47091 11.06871,37.40458 11.13742,20.93367 51.52651,43.088 57.2519,48.85496 5.72539,5.76696 -5.96099,7.82123 -19.08396,3.05343 -13.12297,-4.7678 -46.53433,-12.85109 -45.80153,-18.32061 0.7328,-5.46952 -12.36386,-28.28646 -22.13741,-39.69465 -9.77355,-11.40819 -25.95419,-17.93893 -25.95419,-17.93893"
       id="path7463"
       inkscape:connector-curvature="0"
       sodipodi:nodetypes="czzzzzc" />
    <path
       style="fill:none;stroke:#000000;stroke-width:2;stroke-linecap:butt;stroke-linejoin:miter;stroke-miterlimit:4;stroke-dasharray:none;stroke-opacity:1"
       d="m 367.55725,511.45038 c 0,0 7.17964,-0.73133 -0.76336,-7.63359 -7.943,-6.90226 -32.44274,-17.17557 -32.44274,-17.17557"
       id="path7465"
       inkscape:connector-curvature="0"
       sodipodi:nodetypes="czc" />
  </g>
  <g
     inkscape:groupmode="layer"
     id="layer6"
     inkscape:label="руки"
     style="display:inline"
     transform="translate(-118.2964,-37.325391)">
    <path
       style="fill:none;stroke:#000000;stroke-width:2;stroke-linecap:butt;stroke-linejoin:miter;stroke-miterlimit:4;stroke-dasharray:none;stroke-opacity:1"
       d="m 281.67939,267.17557 c 0,0 14.94002,28.28104 18.32061,46.18321 3.38059,17.90217 2.35548,21.96981 -2.67176,28.62595 -5.02724,6.65614 -23.94971,7.1135 -36.25954,1.52672 -12.30983,-5.58678 -41.98473,-25.9542 -41.98473,-25.9542"
       id="path7417"
       inkscape:connector-curvature="0"
       sodipodi:nodetypes="czzzc" />
    <path
       style="fill:none;stroke:#000000;stroke-width:2;stroke-linecap:butt;stroke-linejoin:miter;stroke-miterlimit:4;stroke-dasharray:none;stroke-opacity:1"
       d="m 286.25954,310.68702 c 0,0 -4.98113,10.38584 -17.17557,4.58016 -12.19442,-5.80568 -26.33588,-13.74046 -26.33588,-13.74046"
       id="path7419"
       inkscape:connector-curvature="0"
       sodipodi:nodetypes="czc" />
    <path
       style="fill:none;stroke:#000000;stroke-width:2;stroke-linecap:butt;stroke-linejoin:miter;stroke-miterlimit:4;stroke-dasharray:none;stroke-opacity:1"
       d="m 220.99236,260.68702 c 0,0 -7.13455,3.235 -10.75452,6.13219 C 206.61787,269.71641 200,279.00764 200,279.00764"
       id="path7421"
       inkscape:connector-curvature="0"
       sodipodi:nodetypes="czc" />
    <path
       style="fill:none;stroke:#000000;stroke-width:2;stroke-linecap:round;stroke-linejoin:miter;stroke-miterlimit:4;stroke-dasharray:none;stroke-opacity:1"
       d="m 279.00763,316.03054 c 0,0 -1.15881,-10.05259 -10.30534,-19.08398 -9.14653,-9.03139 -19.96588,-9.66833 -31.29771,-8.77862 -11.33183,0.88971 -33.20611,15.64886 -33.20611,15.64886"
       id="path7423"
       inkscape:connector-curvature="0"
       sodipodi:nodetypes="czzc" />
    <path
       style="fill:none;stroke:#000000;stroke-width:2;stroke-linecap:round;stroke-linejoin:miter;stroke-miterlimit:4;stroke-dasharray:none;stroke-opacity:1"
       d="m 254.58015,298.47328 c 0,0 -17.75308,3.2973 -28.24427,12.97711 -10.49119,9.67981 -22.39593,16.80962 -27.8626,17.55724 -5.46667,0.74762 -15.61868,0.52264 -18.70229,-4.96183 -3.08361,-5.48447 5.34352,-19.08397 5.34352,-19.08397"
       id="path7425"
       inkscape:connector-curvature="0"
       sodipodi:nodetypes="czzzc" />
    <path
       style="fill:none;stroke:#000000;stroke-width:2;stroke-linecap:round;stroke-linejoin:round;stroke-miterlimit:4;stroke-dasharray:none;stroke-opacity:1"
       d="m 209.16031,300.38168 c 0,0 -11.45066,0.75957 -17.17558,2.29008 -5.72492,1.53051 -10.18279,3.60947 -13.74045,0.38167 -3.55766,-3.2278 -5.37493,-7.30602 -1.14504,-11.45038 4.22989,-4.14436 18.70229,-0.38167 18.70229,-0.38167 0,0 -14.41696,-9.107 -11.83206,-15.64886 2.5849,-6.54186 7.74664,-3.56009 11.06869,-0.38168 3.32205,3.17841 16.03054,12.9771 16.03054,12.9771"
       id="path7429"
       inkscape:connector-curvature="0"
       sodipodi:nodetypes="czzzczzc" />
    <path
       style="fill:none;stroke:#000000;stroke-width:2;stroke-linecap:round;stroke-linejoin:miter;stroke-miterlimit:4;stroke-dasharray:none;stroke-opacity:1"
       d="m 183.58779,327.48092 c 0,0 -17.87982,19.89784 -27.48092,40.45801 -9.6011,20.56017 -11.13856,47.74952 -4.19847,46.56489 6.94009,-1.18463 9.1603,-42.74809 9.1603,-42.74809 0,0 6.41302,19.40027 10.68702,15.64885 4.274,-3.75143 0.38168,-38.16794 0.38168,-38.16794"
       id="path7451"
       inkscape:connector-curvature="0"
       sodipodi:nodetypes="czzczc" />
    <path
       style="fill:none;stroke:#000000;stroke-width:2;stroke-linecap:butt;stroke-linejoin:miter;stroke-miterlimit:4;stroke-dasharray:none;stroke-opacity:1"
       d="m 173.28244,360.30534 c 0,0 8.25331,-9.7479 17.55725,-16.03053 9.30394,-6.28263 22.13741,-21.75573 22.13741,-21.75573"
       id="path7453"
       inkscape:connector-curvature="0"
       sodipodi:nodetypes="czc" />
    <path
       style="fill:none;stroke:#000000;stroke-width:2;stroke-linecap:butt;stroke-linejoin:miter;stroke-miterlimit:4;stroke-dasharray:none;stroke-opacity:1"
       d="m 158.77863,396.18321 c 0,0 3.6831,11.86869 6.87022,11.45038 3.8529,-0.5057 0.38168,-24.80916 0.38168,-24.80916"
       id="path7455"
       inkscape:connector-curvature="0"
       sodipodi:nodetypes="csc" />
    <path
       style="fill:none;stroke:#000000;stroke-width:2;stroke-linecap:butt;stroke-linejoin:miter;stroke-miterlimit:4;stroke-dasharray:none;stroke-opacity:1"
       d="m 300.38168,337.40458 c 0,0 10.04425,16.95337 21.75572,35.87786 11.71147,18.92449 20.92125,43.04515 14.50382,44.65649 -6.41743,1.61134 -22.1374,-37.78626 -22.1374,-37.78626 0,0 6.74874,33.27191 0.76336,31.67939 -5.98538,-1.59252 -3.12199,-16.42639 -8.01527,-31.29771 -4.89328,-14.87132 -22.13741,-33.58779 -22.13741,-33.58779"
       id="path7457"
       inkscape:connector-curvature="0"
       sodipodi:nodetypes="czzczzc" />
    <path
       style="opacity:1;fill:url(#linearGradient7561);fill-opacity:1;stroke:none;stroke-width:0.76335877;stroke-linecap:round;stroke-linejoin:round;stroke-miterlimit:4;stroke-dasharray:none;stroke-opacity:1"
       d="m 150.29231,412.24863 c -1.00863,-1.53937 -1.30289,-3.50352 -1.31264,-8.76164 -0.0218,-11.78747 3.51894,-25.65411 9.69534,-37.9695 5.00834,-9.98634 13.12963,-22.05151 22.31298,-33.14864 2.00452,-2.42226 3.08388,-3.44112 3.47876,-3.28378 3.25666,1.29764 11.96994,1.68072 15.76214,0.69297 1.20013,-0.31259 3.22879,-1.09674 4.50813,-1.74255 1.27933,-0.6458 2.41574,-1.08451 2.52534,-0.9749 0.10961,0.10961 -2.61292,3.00933 -6.05007,6.44383 -4.20825,4.20502 -7.93228,7.49353 -11.40203,10.06859 -5.55382,4.12174 -12.67697,10.3579 -14.37699,12.58674 l -1.05213,1.37942 -0.25703,-0.96108 c -0.14137,-0.52859 -0.3811,-2.52871 -0.53275,-4.4447 -0.2132,-2.69377 -0.42248,-3.56217 -0.92302,-3.83005 -0.35848,-0.19186 -0.88007,-0.20257 -1.16897,-0.024 -0.43901,0.27132 -0.40822,1.67336 0.1943,8.84742 0.86503,10.29985 0.98708,24.01635 0.23955,26.92213 -0.28085,1.0917 -0.75347,2.18644 -1.05027,2.43276 -1.23911,1.02838 -4.92396,-4.91666 -7.65386,-12.34853 -1.02291,-2.78478 -1.14956,-2.95462 -2.04096,-2.73692 -0.52271,0.12766 -1.05555,0.40229 -1.18409,0.61028 -0.12855,0.20798 -0.34176,2.14396 -0.47381,4.30217 -0.13205,2.15821 -0.5081,6.483 -0.83566,9.61066 -2.01366,19.22703 -5.63024,30.55997 -8.40226,26.32934 z"
       id="path7481"
       inkscape:connector-curvature="0" />
    <path
       style="opacity:1;fill:url(#linearGradient7563);fill-opacity:1;stroke:none;stroke-width:0.76335877;stroke-linecap:round;stroke-linejoin:round;stroke-miterlimit:4;stroke-dasharray:none;stroke-opacity:1"
       d="m 164.05849,405.01383 c -1.17433,-1.53962 -3.61267,-7.04287 -3.89711,-8.79562 -0.1114,-0.68651 0.0633,-3.37917 0.38831,-5.98367 0.32497,-2.60451 0.7002,-6.10952 0.83383,-7.78891 0.38924,-4.89174 0.4791,-4.95559 2.13396,-1.51644 1.31798,2.73902 1.52251,3.58565 2.04649,8.47124 0.86017,8.02017 0.75011,16.90017 -0.20948,16.90017 -0.173,0 -0.7562,-0.57905 -1.296,-1.28677 z"
       id="path7483"
       inkscape:connector-curvature="0" />
    <path
       style="opacity:1;fill:url(#linearGradient7571);fill-opacity:1;stroke:none;stroke-width:0.76335877;stroke-linecap:round;stroke-linejoin:round;stroke-miterlimit:4;stroke-dasharray:none;stroke-opacity:1"
       d="m 334.0067,415.07922 c -2.26225,-2.32762 -4.54571,-5.90869 -8.15311,-12.78626 -2.12107,-4.04386 -7.53236,-15.87382 -9.55135,-20.88078 -0.64803,-1.60709 -0.8255,-1.7727 -1.68078,-1.56844 -0.52593,0.1256 -1.01967,0.28194 -1.09719,0.34743 -0.0775,0.0655 0.38916,3.34763 1.03707,7.29364 1.92463,11.72168 2.4949,19.66631 1.58369,22.06299 -0.51995,1.36756 -1.46546,1.10179 -2.38452,-0.67026 -0.81393,-1.56935 -1.3949,-4.85451 -2.54819,-14.409 -0.41809,-3.46374 -1.27808,-8.34524 -1.91109,-10.84777 -2.29546,-9.07493 -8.81147,-20.22011 -18.8413,-32.22675 -2.86198,-3.42607 -2.87368,-3.58843 -0.29274,-4.06468 3.50718,-0.64716 7.49382,-3.4088 9.59086,-6.64382 0.65757,-1.0144 -1.18725,-3.88708 20.68162,32.20455 9.88287,16.31034 16.38013,31.44447 16.96527,39.5174 0.18156,2.50492 0.10969,2.98182 -0.57524,3.81679 l -0.78272,0.9542 z"
       id="path7485"
       inkscape:connector-curvature="0" />
    <path
       style="opacity:1;fill:url(#linearGradient7587);fill-opacity:1;stroke:none;stroke-width:0.76335877;stroke-linecap:round;stroke-linejoin:round;stroke-miterlimit:4;stroke-dasharray:none;stroke-opacity:1"
       d="m 187.08869,327.37033 c -3.05739,-0.82022 -5.43327,-2.31884 -6.28382,-3.96362 -1.26352,-2.44339 -0.0991,-7.34851 3.35386,-14.12836 l 1.88525,-3.70163 1.99389,-0.57964 c 5.37633,-1.56294 12.5139,-2.90482 15.32201,-2.88057 1.03348,0.009 1.07997,0.0593 0.4771,0.51693 -0.78857,0.59861 -0.88511,1.97543 -0.15808,2.25442 0.28043,0.10761 3.50085,-1.60656 7.15649,-3.80927 11.04097,-6.65273 19.814,-10.61886 25.53976,-11.54605 3.6206,-0.5863 11.60574,-0.4961 15.45147,0.17453 8.87194,1.54714 16.30266,6.70888 21.37611,14.8489 1.94033,3.11314 4.35916,8.8992 4.38113,10.48009 0.0123,0.88709 -0.0518,0.90586 -2.43937,0.71421 -2.88439,-0.23153 -7.78854,-2.40203 -19.7221,-8.72867 -10.59242,-5.61562 -10.05755,-4.95851 -5.08798,-6.25075 4.79087,-1.24577 5.50639,-1.54323 5.50639,-2.28914 0,-1.02084 -1.17097,-1.26767 -3.46975,-0.7314 -7.0156,1.63663 -16.3203,5.4151 -21.33472,8.66364 -1.36193,0.88231 -4.53941,3.38406 -7.06107,5.55945 -7.76136,6.69555 -16.34958,12.42666 -22.1421,14.77589 -2.3596,0.95696 -3.22917,1.0962 -7.44275,1.19177 -3.64084,0.0826 -5.37046,-0.0526 -7.30172,-0.57073 z"
       id="path7487"
       inkscape:connector-curvature="0" />
    <path
       style="opacity:1;fill:url(#linearGradient7579);fill-opacity:1;stroke:none;stroke-width:0.76335877;stroke-linecap:round;stroke-linejoin:round;stroke-miterlimit:4;stroke-dasharray:none;stroke-opacity:1"
       d="m 180.4348,303.11305 c -1.60486,-0.73096 -3.91053,-3.52164 -4.39448,-5.31888 -0.34518,-1.28191 -0.27893,-1.72731 0.48263,-3.2447 0.4855,-0.96735 1.32529,-2.07963 1.8662,-2.47173 1.88037,-1.36307 8.8027,-1.44806 14.93172,-0.18332 4.09963,0.84597 4.97723,-0.28112 1.92832,-2.47653 -5.76441,-4.15074 -9.73722,-8.5168 -10.25342,-11.26836 -0.1981,-1.05595 -0.0568,-1.76622 0.59637,-2.99743 1.76548,-3.32795 4.13109,-2.9561 9.20069,1.44625 2.09495,1.81922 13.52295,11.0155 14.39515,11.58399 0.0566,0.0369 -0.87202,2.58627 -2.06359,5.66528 -1.72908,4.4679 -2.32783,5.62892 -2.96551,5.75029 -0.43945,0.0836 -3.01477,0.43931 -5.72294,0.79037 -2.70817,0.35106 -6.74442,1.1522 -8.96946,1.78032 -4.94856,1.39696 -7.46127,1.65971 -9.03168,0.94445 z"
       id="path7509"
       inkscape:connector-curvature="0" />
    <path
       style="opacity:1;fill:#88c6d5;fill-opacity:1;stroke:#88c6d5;stroke-width:0.76335877;stroke-linecap:round;stroke-linejoin:round;stroke-miterlimit:4;stroke-dasharray:none;stroke-opacity:1"
       d="m 205.72801,282.44616 c -2.24713,-1.78406 -4.08569,-3.34001 -4.08569,-3.45765 0,-0.11764 1.06287,-1.62074 2.36194,-3.34022 3.73655,-4.9458 7.66325,-8.63186 11.56294,-10.85432 1.88579,-1.07472 3.46832,-1.91442 3.51675,-1.866 0.16791,0.16791 -8.79996,22.76194 -9.03451,22.76194 -0.12966,0 -2.0743,-1.45969 -4.32143,-3.24375 z"
       id="path7511"
       inkscape:connector-curvature="0" />
    <path
       style="opacity:1;fill:#88c6d5;fill-opacity:1;stroke:#88c6d5;stroke-width:0.76335877;stroke-linecap:round;stroke-linejoin:round;stroke-miterlimit:4;stroke-dasharray:none;stroke-opacity:1"
       d=""
       id="path7513"
       inkscape:connector-curvature="0" />
    <path
       style="opacity:1;fill:#88c6d5;fill-opacity:1;stroke:#88c6d5;stroke-width:0.76335877;stroke-linecap:round;stroke-linejoin:round;stroke-miterlimit:4;stroke-dasharray:none;stroke-opacity:1"
       d="m 293.47638,342.65556 c -0.87917,-2.9054 -5.35512,-28.6796 -6.8768,-39.59924 -1.49614,-10.73629 -3.27066,-29.28305 -2.75475,-28.79176 0.45559,0.43385 5.91153,12.53604 8.16202,18.10474 5.11231,12.6501 7.2864,20.92926 8.52797,32.47542 0.78262,7.27804 -0.53823,12.16467 -4.47016,16.53794 -1.8915,2.10379 -2.27916,2.29444 -2.58828,1.2729 z"
       id="path7515"
       inkscape:connector-curvature="0" />
    <path
       style="opacity:1;fill:#88c6d5;fill-opacity:1;stroke:#88c6d5;stroke-width:0.76335877;stroke-linecap:round;stroke-linejoin:round;stroke-miterlimit:4;stroke-dasharray:none;stroke-opacity:1"
       d="m 271.57929,345.42371 c -4.41509,-0.80032 -7.98741,-2.02317 -12.47677,-4.27096 -6.42659,-3.21775 -18.50826,-10.63685 -31.95969,-19.62579 l -5.98805,-4.00152 4.19852,-3.59683 c 2.30918,-1.97826 5.0038,-4.17424 5.98804,-4.87996 2.01393,-1.44403 10.62339,-5.80149 11.46258,-5.80149 0.29997,0 3.06663,1.36391 6.14813,3.03091 9.0785,4.91119 20.66115,10.60435 22.89313,11.25254 2.86018,0.83062 6.05614,0.7629 8.58116,-0.18183 2.22492,-0.83245 5.40909,-3.41051 6.32418,-5.12037 0.51677,-0.96559 0.67352,-0.30968 2.52089,10.548 1.99527,11.72698 3.41155,19.2503 3.8284,20.33659 0.84918,2.21294 -13.53789,3.75771 -21.52052,2.31071 z"
       id="path7517"
       inkscape:connector-curvature="0" />
    <path
       style="opacity:1;fill:#88c6d5;fill-opacity:1;stroke:#88c6d5;stroke-width:2;stroke-linecap:round;stroke-linejoin:round;stroke-miterlimit:4;stroke-dasharray:none;stroke-opacity:1"
       id="path7523"
       d="m 209.49713,290.2243 c -0.0267,1.15927 0.0464,2.32188 -0.0465,3.47834 -0.0835,0.82331 -0.3389,1.62964 -0.71603,2.36459 -0.49017,0.8094 -1.2697,1.40615 -2.04363,1.93079 0,0 -0.70038,0.27417 -0.70038,0.27417 v 0 c 0.77457,-0.51135 1.55309,-1.10457 2.05615,-1.89522 0.38456,-0.72291 0.64085,-1.52473 0.73199,-2.33905 0.10137,-1.15315 0.0258,-2.31387 0.0448,-3.47038 0,0 0.67365,-0.34324 0.67365,-0.34324 z"
       inkscape:connector-curvature="0" />
    <path
       style="opacity:1;fill:#88c6d5;fill-opacity:1;stroke:#88c6d5;stroke-width:2;stroke-linecap:round;stroke-linejoin:round;stroke-miterlimit:4;stroke-dasharray:none;stroke-opacity:1"
       id="path7525"
       d="m 208.64509,293.37696 c -0.25171,0.86373 -0.46339,1.73752 -0.73812,2.59416 0,0 -0.67755,0.31886 -0.67755,0.31886 v 0 c 0.27968,-0.85226 0.48761,-1.72392 0.73677,-2.5856 0,0 0.6789,-0.32742 0.6789,-0.32742 z"
       inkscape:connector-curvature="0" />
    <path
       style="opacity:1;fill:#88c6d5;fill-opacity:1;stroke:#88c6d5;stroke-width:2;stroke-linecap:round;stroke-linejoin:round;stroke-miterlimit:4;stroke-dasharray:none;stroke-opacity:1"
       id="path7527"
       d="m 208.94896,289.39254 c 0.4095,0.47367 0.66585,1.03452 0.92303,1.59755 0,0 -0.65101,0.36769 -0.65101,0.36769 v 0 c -0.25505,-0.55708 -0.50892,-1.1116 -0.91949,-1.5765 0,0 0.64747,-0.38874 0.64747,-0.38874 z"
       inkscape:connector-curvature="0" />
    <path
       style="opacity:1;fill:#88c6d5;fill-opacity:1;stroke:#88c6d5;stroke-width:2;stroke-linecap:round;stroke-linejoin:round;stroke-miterlimit:4;stroke-dasharray:none;stroke-opacity:1"
       id="path7529"
       d="m 207.10447,298.10212 c 0.16201,-0.0623 0.32403,-0.12454 0.48604,-0.18681 0,0 -0.59113,0.46388 -0.59113,0.46388 v 0 c -0.16252,0.0638 -0.32505,0.12755 -0.48757,0.19132 0,0 0.59266,-0.46839 0.59266,-0.46839 z"
       inkscape:connector-curvature="0" />
    <path
       style="opacity:1;fill:#88c6d5;fill-opacity:1;stroke:#88c6d5;stroke-width:2;stroke-linecap:round;stroke-linejoin:round;stroke-miterlimit:4;stroke-dasharray:none;stroke-opacity:1"
       id="path7533"
       d="m 204.61388,298.1018 c 0.38989,0.10044 0.77103,0.23037 1.15861,0.33949 0,0 -0.33019,0.22626 -0.33019,0.22626 v 0 c -0.38784,-0.11031 -0.76994,-0.23996 -1.16114,-0.33789 0,0 0.33272,-0.22786 0.33272,-0.22786 z"
       inkscape:connector-curvature="0" />
    <path
       style="opacity:1;fill:#88c6d5;fill-opacity:1;stroke:#88c6d5;stroke-width:2;stroke-linecap:round;stroke-linejoin:round;stroke-miterlimit:4;stroke-dasharray:none;stroke-opacity:1"
       id="path7535"
       d="m 209.45952,288.84083 c 0.45757,0.47996 0.77837,1.04745 1.09663,1.62173 0.0485,0.0868 0.097,0.17352 0.14554,0.26029 l -0.34713,0.19977 v 0 c -0.0486,-0.0868 -0.0971,-0.17364 -0.14565,-0.26045 -0.31557,-0.57315 -0.92536,0.38032 -1.38538,-0.0946 z"
       inkscape:connector-curvature="0"
       sodipodi:nodetypes="cccccccc" />
    <path
       style="fill:none;stroke:#000000;stroke-width:2;stroke-linecap:butt;stroke-linejoin:miter;stroke-miterlimit:4;stroke-dasharray:none;stroke-opacity:1"
       d="m 211.0687,288.16794 10.11256,5.31475"
       id="path7537"
       inkscape:connector-curvature="0"
       sodipodi:nodetypes="cc" />
  </g>
  <g
     inkscape:groupmode="layer"
     id="layer3"
     inkscape:label="Мимика"
     style="display:inline"
     transform="translate(-118.2964,-37.325391)">
    <path
       style="display:inline;fill:none;stroke:#000000;stroke-width:2;stroke-linecap:butt;stroke-linejoin:miter;stroke-miterlimit:4;stroke-dasharray:none;stroke-opacity:1"
       d="m 276.55367,205.89932 c 6.95636,7.87056 26.7068,11.29614 42.28854,-3.35623 15.58174,-14.65237 28.86361,-62.42595 28.86361,-62.42595 0,0 -34.40617,11.71928 -46.98727,22.15114 -12.5811,10.43186 -30.81374,36.10839 -24.16488,43.63104 z"
       id="path5584"
       inkscape:connector-curvature="0"
       sodipodi:nodetypes="szczs" />
    <path
       style="display:inline;fill:none;stroke:#000000;stroke-width:2;stroke-linecap:butt;stroke-linejoin:miter;stroke-miterlimit:4;stroke-dasharray:none;stroke-opacity:1"
       d="m 224.86766,200.52935 c 3.32556,-17.52309 -3.62734,-32.73175 -12.08244,-45.64478 -8.4551,-12.91304 -37.58982,-29.53486 -37.58982,-29.53486 0,0 -3.64353,29.21053 7.38372,49.67226 11.02725,20.46173 38.96298,43.03047 42.28854,25.50738 z"
       id="path5586"
       inkscape:connector-curvature="0"
       sodipodi:nodetypes="zzczz" />
    <path
       style="display:inline;fill:none;stroke:#000000;stroke-width:2;stroke-linecap:round;stroke-linejoin:miter;stroke-miterlimit:4;stroke-dasharray:none;stroke-opacity:1"
       d="m 230.23764,212.61178 c 0,0 5.53166,8.16408 15.43867,10.06871 9.90701,1.90463 18.79491,-2.01374 18.79491,-2.01374"
       id="path5590"
       inkscape:connector-curvature="0"
       sodipodi:nodetypes="czc" />
    <path
       style="fill:none;stroke:#000000;stroke-width:2;stroke-linecap:butt;stroke-linejoin:miter;stroke-miterlimit:4;stroke-dasharray:none;stroke-opacity:1"
       d="m 292.21698,170.75472 c 0,0 -1.81959,9.32367 0.70755,20.51886 2.52714,11.19519 10.37736,20.04717 10.37736,20.04717"
       id="path6450"
       inkscape:connector-curvature="0"
       sodipodi:nodetypes="czc" />
    <path
       style="fill:none;stroke:#000000;stroke-width:2;stroke-linecap:butt;stroke-linejoin:miter;stroke-miterlimit:4;stroke-dasharray:none;stroke-opacity:1"
       d="m 319.81132,151.65094 c 0,0 0.87906,9.46613 0.23585,23.82076 -0.64321,14.35463 -4.24528,29.71697 -4.24528,29.71697"
       id="path6452"
       inkscape:connector-curvature="0"
       sodipodi:nodetypes="czc" />
    <path
       style="fill:none;stroke:#000000;stroke-width:2;stroke-linecap:butt;stroke-linejoin:miter;stroke-miterlimit:4;stroke-dasharray:none;stroke-opacity:1"
       d="m 194.57547,137.5 c 0,0 -0.58639,18.01634 1.4151,34.43396 2.00149,16.41762 5.18867,25.70755 5.18867,25.70755"
       id="path6454"
       inkscape:connector-curvature="0"
       sodipodi:nodetypes="czc" />
    <path
       style="fill:none;stroke:#000000;stroke-width:2;stroke-linecap:butt;stroke-linejoin:miter;stroke-miterlimit:4;stroke-dasharray:none;stroke-opacity:1"
       d="m 218.16038,163.44339 c 0,0 -0.92532,14.26349 -3.06603,23.11321 -2.14071,8.84972 -7.07548,16.27359 -7.07548,16.27359"
       id="path6456"
       inkscape:connector-curvature="0"
       sodipodi:nodetypes="czc" />
    <path
       style="opacity:1;fill:#c2f169;fill-opacity:1;stroke:#c2f169;stroke-width:0.62111801;stroke-linecap:round;stroke-linejoin:round;stroke-miterlimit:4;stroke-dasharray:none;stroke-opacity:1"
       d="m 205.94471,200.11267 c -3.64439,-2.65597 -3.73439,-2.77273 -4.59696,-5.96375 -3.45024,-12.76399 -5.18306,-26.68721 -5.65965,-45.47518 l -0.22002,-8.67394 1.99009,1.52933 c 5.08129,3.90483 10.15577,8.61678 12.68771,11.78128 1.50996,1.88721 4.95857,7.29462 6.18359,9.69587 l 0.6687,1.31076 -0.61818,6.01317 c -0.65934,6.41352 -1.87747,14.18263 -2.66333,16.98642 -0.79151,2.82397 -2.619,7.44328 -4.06315,10.27038 -2.04848,4.01013 -1.8538,3.87756 -3.7088,2.52566 z"
       id="path6790"
       inkscape:connector-curvature="0" />
    <path
       style="opacity:1;fill:#c2f169;fill-opacity:1;stroke:#c2f169;stroke-width:0.62111801;stroke-linecap:round;stroke-linejoin:round;stroke-miterlimit:4;stroke-dasharray:none;stroke-opacity:1"
       d="m 302.22978,208.07499 c -3.52015,-4.77557 -6.41933,-10.6039 -7.77687,-15.63414 -1.49624,-5.54412 -2.11843,-14.28314 -1.38044,-19.38901 l 0.28874,-1.99771 3.19881,-3.22212 c 4.16821,-4.19861 6.53102,-6.11926 10.57037,-8.59233 3.53151,-2.16214 11.39295,-6.21236 11.61912,-5.98619 0.0747,0.0747 0.2173,3.47215 0.31682,7.54982 0.20784,8.51625 -0.24114,18.38603 -1.16909,25.69943 -0.69767,5.49851 -2.5566,16.06185 -3.05917,17.38371 -0.54152,1.42429 -6.91723,5.0991 -10.32285,5.94984 -0.7523,0.18793 -0.97534,0.0161 -2.28544,-1.7613 z"
       id="path6792"
       inkscape:connector-curvature="0" />
    <ellipse
       transform="matrix(0.99980861,0.01956405,-0.01742908,0.9998481,0,0)"
       ry="16.019135"
       rx="4.1162381"
       cy="168.33336"
       cx="209.45984"
       id="ellipse6460"
       style="display:inline;opacity:1;fill:#ff4770;fill-opacity:1;stroke:#ff4770;stroke-width:2.03388309;stroke-linecap:round;stroke-linejoin:round;stroke-miterlimit:4;stroke-dasharray:none;stroke-opacity:1;filter:url(#filter6766)" />
    <ellipse
       style="display:inline;opacity:1;fill:#ff4770;fill-opacity:1;stroke:#ff4770;stroke-width:2.30566144;stroke-linecap:round;stroke-linejoin:round;stroke-miterlimit:4;stroke-dasharray:none;stroke-opacity:1;filter:url(#filter6734)"
       id="path6458"
       cx="284.99631"
       cy="215.15736"
       rx="4.7999992"
       ry="17.653772"
       transform="rotate(-6.0644309)" />
    <path
       style="opacity:1;fill:#fcf1c4;fill-opacity:1;stroke:none;stroke-width:0;stroke-linecap:round;stroke-linejoin:round;stroke-miterlimit:4;stroke-dasharray:none;stroke-opacity:1"
       d="m 195.77568,190.98074 c -13.36313,-14.39208 -18.53929,-26.87814 -19.80975,-47.78555 -0.31668,-5.21139 -0.14203,-15.81645 0.26048,-15.81645 0.33264,0 4.19831,2.42511 10.52065,6.60009 l 6.55346,4.32759 0.18738,10.45231 c 0.20562,11.46893 0.74592,19.08847 1.9391,27.34564 0.7802,5.39928 2.2222,12.9717 3.07859,16.16676 0.24967,0.9315 0.40575,1.74184 0.34683,1.80076 -0.0589,0.0589 -1.44345,-1.3321 -3.07674,-3.09115 z"
       id="path7384"
       inkscape:connector-curvature="0" />
    <path
       style="opacity:1;fill:#fcf1c4;fill-opacity:1;stroke:none;stroke-width:0;stroke-linecap:round;stroke-linejoin:round;stroke-miterlimit:4;stroke-dasharray:none;stroke-opacity:1"
       d="m 215.44205,205.19739 c -1.77303,-0.53178 -3.61284,-1.3173 -4.8421,-2.06737 l -0.96012,-0.58584 1.82205,-3.56578 c 4.20846,-8.23607 5.22849,-12.25187 7.30068,-28.74252 l 0.25366,-2.01863 1.18306,2.79503 c 2.8209,6.66449 4.24969,13.54321 4.24773,20.45011 -0.002,7.43965 -1.03172,11.76607 -3.17781,13.35319 -1.06268,0.7859 -3.86719,0.96966 -5.82715,0.38181 z"
       id="path7386"
       inkscape:connector-curvature="0" />
    <path
       style="opacity:1;fill:#fcf1c4;fill-opacity:1;stroke:none;stroke-width:0;stroke-linecap:round;stroke-linejoin:round;stroke-miterlimit:4;stroke-dasharray:none;stroke-opacity:1"
       d="m 289.45886,211.10235 c -6.27397,-1.20034 -11.84893,-4.48843 -12.87343,-7.59269 -1.47422,-4.46694 2.93702,-14.54986 11.14313,-25.47023 l 2.71349,-3.611 0.19473,6.21118 c 0.21444,6.83996 0.82677,10.58229 2.5138,15.36348 1.50361,4.26135 4.88706,10.52034 7.40688,13.70187 l 0.90617,1.14413 -1.00769,0.18246 c -2.44639,0.44296 -8.83682,0.4841 -10.99708,0.0708 z"
       id="path7388"
       inkscape:connector-curvature="0" />
    <path
       style="opacity:1;fill:#fcf1c4;fill-opacity:1;stroke:none;stroke-width:0;stroke-linecap:round;stroke-linejoin:round;stroke-miterlimit:4;stroke-dasharray:none;stroke-opacity:1"
       d="m 317.73796,201.44706 c 0.36542,-1.43917 1.45379,-7.7637 2.03085,-11.80124 1.29268,-9.04462 1.41858,-11.22909 1.41858,-24.61278 v -13.12209 l 4.19255,-1.84648 c 4.20224,-1.85074 14.02456,-5.76582 18.24534,-7.27242 1.34312,-0.47943 2.25155,-0.66691 2.25155,-0.46469 0,0.88978 -6.75756,20.41587 -9.01367,26.04517 -4.7362,11.81745 -8.40596,19.19972 -12.9505,26.05184 -2.32987,3.51291 -6.48282,8.2362 -6.1747,7.02269 z"
       id="path7390"
       inkscape:connector-curvature="0" />
  </g>
  <g
     inkscape:groupmode="layer"
     id="layer4"
     inkscape:label="Рога, уши"
     style="display:inline"
     transform="translate(-118.2964,-37.325391)">
    <path
       style="display:inline;fill:none;stroke:#000000;stroke-width:2;stroke-linecap:round;stroke-linejoin:round;stroke-miterlimit:4;stroke-dasharray:none;stroke-opacity:1"
       d="m 318.17096,115.95226 c 0,0 -12.53597,9.40309 -18.79491,8.05496 -6.25894,-1.34813 -11.35509,-5.07856 -14.76743,-12.75369 -4.43331,-11.88813 -3.12429,-18.386056 -2.01374,-26.849872 2.94777,-14.659188 20.80866,-42.959792 20.80866,-42.959792 0,0 -3.50283,14.482363 0.67124,36.247323 4.17407,21.76496 14.09618,38.261071 14.09618,38.261071 z"
       id="path6002"
       inkscape:connector-curvature="0"
       sodipodi:nodetypes="czccczc" />
    <path
       style="fill:none;stroke:#000000;stroke-width:2;stroke-linecap:butt;stroke-linejoin:miter;stroke-miterlimit:4;stroke-dasharray:none;stroke-opacity:1"
       d="m 204.73026,101.18483 c 0,0 -9.448,-5.057674 -14.76742,-20.137406 -1.6016,-4.540262 -4.02443,-11.708367 -2.11247,-19.490411 2.48412,-10.110828 6.13994,-22.126888 6.13994,-22.126888 0,0 -13.11368,7.432035 -19.46616,15.438676 -6.35248,8.006641 -6.65811,22.997296 -4.69871,32.219843 1.95939,9.222548 5.87111,18.413016 12.75367,21.479896 6.88257,3.06688 22.15115,-7.38371 22.15115,-7.38371 z"
       id="path6013"
       inkscape:connector-curvature="0"
       sodipodi:nodetypes="cssczzzc" />
    <path
       style="fill:none;stroke:#000000;stroke-width:2;stroke-linecap:round;stroke-linejoin:round;stroke-miterlimit:4;stroke-dasharray:none;stroke-opacity:1"
       d="m 361.802,135.41841 c 0,0 16.93305,-1.94467 28.19237,1.34249 11.25932,3.28716 34.15524,14.0846 33.56234,20.80866 -0.59291,6.72406 -17.30911,27.90914 -26.17863,32.89109 -8.86953,4.98195 -17.36029,3.65784 -20.13741,-3.35624 -2.77712,-7.01407 7.81999,-13.09558 12.08245,-18.79491 4.26246,-5.69933 11.41119,-14.76742 11.41119,-14.76742"
       id="path6023"
       inkscape:connector-curvature="0"
       sodipodi:nodetypes="czzzzzc" />
    <path
       style="fill:none;stroke:#000000;stroke-width:2;stroke-linecap:round;stroke-linejoin:round;stroke-miterlimit:4;stroke-dasharray:none;stroke-opacity:1"
       d="m 392.00811,164.95327 c 0,0 1.37564,-10.34103 -0.67125,-14.09618 -2.04689,-3.75515 -7.38372,-6.04122 -7.38372,-6.04122"
       id="path6025"
       inkscape:connector-curvature="0"
       sodipodi:nodetypes="czc" />
    <path
       style="fill:none;stroke:#000000;stroke-width:2;stroke-linecap:round;stroke-linejoin:round;stroke-miterlimit:4;stroke-dasharray:none;stroke-opacity:1"
       d="m 392.00811,164.95327 c 0,0 -5.53547,-7.36662 -10.73995,-8.05496 -5.20448,-0.68835 -17.96042,7.42001 -17.96042,7.42001"
       id="path6027"
       inkscape:connector-curvature="0"
       sodipodi:nodetypes="czc" />
    <path
       style="fill:none;stroke:#000000;stroke-width:2;stroke-linecap:butt;stroke-linejoin:miter;stroke-miterlimit:4;stroke-dasharray:none;stroke-opacity:1"
       d="m 173.67162,121.59438 c 0,0 -35.37905,-7.43701 -43.6493,-3.99119 -8.27025,3.44582 -11.56402,24.92553 -10.5404,33.41714 1.02362,8.49161 9.94656,8.32998 14.09618,7.22047 4.14962,-1.10951 8.22684,-7.42161 8.49036,-13.26168 0.26352,-5.84008 0.8708,-12.7174 0.8708,-12.7174"
       id="path6029"
       inkscape:connector-curvature="0"
       sodipodi:nodetypes="czzzzc" />
    <path
       style="fill:none;stroke:#000000;stroke-width:2;stroke-linecap:round;stroke-linejoin:miter;stroke-miterlimit:4;stroke-dasharray:none;stroke-opacity:1"
       d="m 170.04717,130.66038 c 0,0 -18.55182,0.25057 -27.10791,1.60134 -8.55609,1.35077 -14.87322,10.66281 -14.87322,10.66281"
       id="path6031"
       inkscape:connector-curvature="0"
       sodipodi:nodetypes="czc" />
    <path
       style="display:inline;opacity:1;fill:url(#linearGradient7376);fill-opacity:1;stroke:none;stroke-width:0;stroke-linecap:round;stroke-linejoin:round;stroke-miterlimit:4;stroke-dasharray:none;stroke-opacity:0.65882353"
       d="m 184.17869,107.81386 c -5.04163,-1.1378 -9.973,-8.268588 -12.50236,-18.078451 -1.27411,-4.9415 -1.66506,-8.089833 -1.66942,-13.443628 -0.007,-8.294348 1.41323,-14.398227 4.48541,-19.280912 1.3877,-2.205489 6.1848,-6.951956 9.73855,-9.635749 3.32097,-2.508001 7.31518,-5.176022 7.48886,-5.002346 0.0771,0.07712 -0.62534,2.849139 -1.56102,6.160046 -3.75115,13.273437 -4.03062,14.601774 -4.01076,19.063309 0.0204,4.587754 0.43679,6.840783 2.28722,12.37651 2.58924,7.745975 5.95453,13.39609 10.89811,18.297279 l 3.06028,3.034042 -1.00681,0.62055 c -6.4372,3.96761 -14.10112,6.59053 -17.20806,5.88935 z"
       id="path7368"
       inkscape:connector-curvature="0" />
    <path
       style="display:inline;opacity:1;fill:url(#linearGradient7366);fill-opacity:1;stroke:none;stroke-width:0;stroke-linecap:round;stroke-linejoin:round;stroke-miterlimit:4;stroke-dasharray:none;stroke-opacity:0.65882353"
       d="m 297.21966,122.15732 c -7.23745,-2.57238 -11.63347,-8.65848 -13.79526,-19.09895 -1.31861,-6.368266 -0.63933,-16.14698 1.59461,-22.955517 1.52704,-4.654082 3.37121,-8.892098 6.99639,-16.078152 2.75223,-5.455636 9.11666,-16.929057 9.27207,-16.715158 0.0401,0.05514 -0.0318,1.288139 -0.15973,2.740002 -0.6848,7.772541 0.0212,18.239758 1.89561,28.10559 1.99979,10.525612 6.53309,23.639185 11.63356,33.652685 l 1.95545,3.83902 -2.83634,1.83424 c -3.12934,2.02373 -6.96758,3.9829 -9.35882,4.77707 -2.7786,0.92282 -4.38062,0.90038 -7.19754,-0.10083 z"
       id="path7358"
       inkscape:connector-curvature="0" />
    <path
       style="opacity:1;fill:#88c6d5;fill-opacity:1;stroke:none;stroke-width:0;stroke-linecap:round;stroke-linejoin:round;stroke-miterlimit:4;stroke-dasharray:none;stroke-opacity:1"
       d="m 125.99904,157.21279 c -2.26507,-0.689 -3.98561,-2.18729 -4.82831,-4.20461 -1.74122,-4.16831 -0.0683,-18.2478 3.10265,-26.11152 1.89635,-4.70287 4.34902,-7.70153 6.91116,-8.44968 4.87046,-1.42217 18.22452,-0.24896 36.84558,3.23705 3.61427,0.67662 4.27126,0.8843 4.13938,1.3085 -0.0862,0.27732 -0.62197,1.84047 -1.19055,3.47366 l -1.0338,2.96943 -9.31677,0.37361 c -10.27688,0.41212 -17.09489,1.03055 -19.69518,1.78647 -3.84907,1.11896 -7.65831,3.66579 -11.14912,7.45423 -2.38704,2.59055 -3.02147,3.58661 -2.74438,4.30869 0.4766,1.242 1.16418,0.84326 4.38758,-2.54448 1.7823,-1.87316 4.12049,-3.97547 5.19598,-4.6718 2.09832,-1.35857 4.50789,-2.43268 4.8006,-2.13997 0.3047,0.30471 -0.53404,11.74645 -1.00082,13.65266 -0.72236,2.94994 -1.96562,5.20003 -3.99596,7.23202 -1.45564,1.45682 -2.218,1.97028 -3.34305,2.25155 -1.60609,0.40154 -5.86234,0.44611 -7.08499,0.0742 z"
       id="path7394"
       inkscape:connector-curvature="0" />
    <path
       style="opacity:1;fill:#88c6d5;fill-opacity:1;stroke:none;stroke-width:0;stroke-linecap:round;stroke-linejoin:round;stroke-miterlimit:4;stroke-dasharray:none;stroke-opacity:1"
       d="m 383.72163,191.79869 c -1.97216,-0.60718 -4.35319,-2.80906 -5.22231,-4.82938 -1.45305,-3.37772 -0.28585,-5.60217 6.65954,-12.69174 2.76338,-2.82076 5.91603,-6.31653 7.00588,-7.7684 1.08986,-1.45186 3.70696,-4.85096 5.81579,-7.55356 4.02851,-5.16279 4.47912,-6.16876 2.84832,-6.35872 -0.6858,-0.0799 -1.19091,0.4215 -3.72671,3.69921 -1.61336,2.08539 -3.09969,4.01362 -3.30295,4.28495 -0.29501,0.39383 -0.33508,0.1488 -0.19865,-1.21473 0.23478,-2.34646 -0.36401,-6.85805 -1.14518,-8.62824 -0.78197,-1.77205 -2.33414,-3.43611 -4.74707,-5.08929 -2.55768,-1.75237 -3.71675,-2.19981 -4.40147,-1.69913 -0.924,0.67564 -0.40144,1.47661 1.85572,2.8444 2.68525,1.6272 4.68561,3.51093 5.35441,5.0422 0.37032,0.84789 0.5441,2.42635 0.64049,5.81767 l 0.13228,4.65408 -2.32425,-2.2078 c -5.54927,-5.27127 -9.03968,-5.53982 -17.81706,-1.37085 -1.72952,0.82146 -4.00797,1.99959 -5.06323,2.61806 -1.05525,0.61847 -1.95285,1.12449 -1.99466,1.12449 -0.0418,0 0.0481,-1.22283 0.19988,-2.7174 0.53909,-5.30961 -4.4e-4,-15.21999 -1.2071,-22.17267 l -0.19651,-1.1323 3.37133,-0.22979 c 1.85423,-0.12638 6.23739,-0.1509 9.74036,-0.0545 8.85577,0.24373 12.56977,0.99155 20.65475,4.15885 9.34835,3.66222 18.97984,9.03255 22.8931,12.76475 3.23008,3.08062 3.40705,4.15099 1.37621,8.32358 -4.13319,8.4921 -15.70125,22.31979 -22.70192,27.13638 -4.53179,3.11796 -10.54766,4.46638 -14.49899,3.24987 z"
       id="path7396"
       inkscape:connector-curvature="0" />
  </g>
  <g
     inkscape:groupmode="layer"
     id="layer5"
     inkscape:label="Пигмент"
     style="display:inline"
     transform="translate(-118.2964,-37.325391)">
    <path
       sodipodi:type="star"
       style="display:inline;opacity:1;fill:#c2f169;fill-opacity:1;stroke:#ff4770;stroke-width:3;stroke-miterlimit:4;stroke-dasharray:none;stroke-opacity:1;filter:url(#filter5580)"
       id="path5290"
       sodipodi:sides="3"
       sodipodi:cx="246.34756"
       sodipodi:cy="124.00722"
       sodipodi:r1="30.019068"
       sodipodi:r2="20.624813"
       sodipodi:arg1="1.7506498"
       sodipodi:arg2="2.7213432"
       inkscape:flatsided="false"
       inkscape:rounded="0.27"
       inkscape:randomized="0"
       d="m 240.97759,153.54208 c -6.72602,-0.69746 -11.18139,-14.75365 -13.46022,-21.12018 -2.55933,-7.15021 -8.5181,-21.68239 -4.06276,-27.83264 3.96703,-5.476176 18.36773,-2.30655 25.02072,-1.09681 7.47193,1.35866 23.03655,3.4643 26.13516,10.39787 2.75899,6.17363 -7.18634,17.06019 -11.5605,22.21698 -4.9126,5.79156 -14.51845,18.21809 -22.0724,17.43478 z"
       inkscape:transform-center-x="-2.450522"
       inkscape:transform-center-y="3.8787207"
       transform="matrix(0.91267531,0,0,0.76678093,23.925132,30.383005)" />
    <ellipse
       style="display:inline;opacity:1;fill:#c2f169;fill-opacity:1;stroke:#ff4770;stroke-width:2.46113515;stroke-miterlimit:4;stroke-dasharray:none;stroke-opacity:1;filter:url(#filter5998)"
       id="path5592"
       cx="-239.29947"
       cy="-177.37134"
       rx="4.3631039"
       ry="7.7193375"
       transform="matrix(-0.73162156,-0.10385583,0.12559796,-0.88478597,88.006026,-6.76634)" />
    <circle
       style="display:inline;opacity:1;fill:#ff4770;fill-opacity:1;stroke:#ff4770;stroke-width:2;stroke-linecap:round;stroke-linejoin:round;stroke-miterlimit:4;stroke-dasharray:none;stroke-opacity:1;filter:url(#filter6332)"
       id="path6033"
       cx="304.36319"
       cy="219.45753"
       r="3.6556604" />
    <circle
       r="3.6556604"
       cy="213.56131"
       cx="317.3349"
       id="circle6338"
       style="display:inline;opacity:1;fill:#ff4770;fill-opacity:1;stroke:#ff4770;stroke-width:2;stroke-linecap:round;stroke-linejoin:round;stroke-miterlimit:4;stroke-dasharray:none;stroke-opacity:1;filter:url(#filter6332)"
       transform="matrix(0.66031523,0,0,0.66031523,107.6759,72.425598)" />
    <circle
       transform="matrix(0.4005563,0,0,0.4005563,198.71497,120.47081)"
       style="display:inline;opacity:1;fill:#ff4770;fill-opacity:1;stroke:#ff4770;stroke-width:2;stroke-linecap:round;stroke-linejoin:round;stroke-miterlimit:4;stroke-dasharray:none;stroke-opacity:1;filter:url(#filter6444)"
       id="circle6342"
       cx="317.3349"
       cy="213.56131"
       r="3.6556604" />
    <circle
       r="3.6556604"
       cy="200.82545"
       cx="192.09904"
       id="circle6336"
       style="display:inline;opacity:1;fill:#ff4770;fill-opacity:1;stroke:#ff4770;stroke-width:2;stroke-linecap:round;stroke-linejoin:round;stroke-miterlimit:4;stroke-dasharray:none;stroke-opacity:1;filter:url(#filter6332)" />
    <circle
       transform="matrix(0.66031523,0,0,0.66031523,-25.814666,49.31239)"
       style="display:inline;opacity:1;fill:#ff4770;fill-opacity:1;stroke:#ff4770;stroke-width:2;stroke-linecap:round;stroke-linejoin:round;stroke-miterlimit:4;stroke-dasharray:none;stroke-opacity:1;filter:url(#filter6332)"
       id="circle6340"
       cx="317.3349"
       cy="213.56131"
       r="3.6556604" />
    <circle
       r="3.6556604"
       cy="213.56131"
       cx="317.3349"
       id="circle6448"
       style="display:inline;opacity:1;fill:#ff4770;fill-opacity:1;stroke:#ff4770;stroke-width:2;stroke-linecap:round;stroke-linejoin:round;stroke-miterlimit:4;stroke-dasharray:none;stroke-opacity:1;filter:url(#filter6444)"
       transform="matrix(0.4005563,0,0,0.4005563,51.30931,95.942508)" />
  </g>
</svg>
