<?xml version="1.0" encoding="UTF-8" standalone="no"?>
<!-- Created with Inkscape (http://www.inkscape.org/) -->

<svg
   xmlns:dc="http://purl.org/dc/elements/1.1/"
   xmlns:cc="http://creativecommons.org/ns#"
   xmlns:rdf="http://www.w3.org/1999/02/22-rdf-syntax-ns#"
   xmlns:svg="http://www.w3.org/2000/svg"
   xmlns="http://www.w3.org/2000/svg"
   xmlns:sodipodi="http://sodipodi.sourceforge.net/DTD/sodipodi-0.dtd"
   xmlns:inkscape="http://www.inkscape.org/namespaces/inkscape"
   width="85.957741mm"
   height="106.78838mm"
   viewBox="0 0 85.957741 106.78838"
   version="1.1"
   id="svg6464"
   inkscape:version="0.92.1 r15371"
   sodipodi:docname="жизнь.svg">
  <defs
     id="defs6458" />
  <sodipodi:namedview
     id="base"
     pagecolor="#ffffff"
     bordercolor="#666666"
     borderopacity="1.0"
     inkscape:pageopacity="0.0"
     inkscape:pageshadow="2"
     inkscape:zoom="1.25"
     inkscape:cx="63.230777"
     inkscape:cy="200.48137"
     inkscape:document-units="mm"
     inkscape:current-layer="layer12"
     showgrid="false"
     inkscape:window-width="1920"
     inkscape:window-height="1001"
     inkscape:window-x="-9"
     inkscape:window-y="-9"
     inkscape:window-maximized="1" />
  <metadata
     id="metadata6461">
    <rdf:RDF>
      <cc:Work
         rdf:about="">
        <dc:format>image/svg+xml</dc:format>
        <dc:type
           rdf:resource="http://purl.org/dc/dcmitype/StillImage" />
        <dc:title></dc:title>
      </cc:Work>
    </rdf:RDF>
  </metadata>
  <g
     inkscape:groupmode="layer"
     id="layer12"
     inkscape:label="рога"
     transform="translate(-32.162799,-11.004196)">
    <path
       style="fill:none;stroke:#000000;stroke-width:1;stroke-linecap:butt;stroke-linejoin:miter;stroke-miterlimit:4;stroke-dasharray:none;stroke-opacity:1"
       d="M 54.373089,66.15711 71.850151,18.823394 82.287844,11.784021 85.686162,21.736238 68.937309,69.312691"
       id="path7041"
       inkscape:connector-curvature="0" />
    <path
       inkscape:connector-curvature="0"
       id="path7058"
       d="M 75.248471,71.982798 92.725528,24.649082 103.16322,17.60971 106.56154,27.561926 89.812686,75.138379"
       style="fill:none;stroke:#000000;stroke-width:1;stroke-linecap:butt;stroke-linejoin:miter;stroke-miterlimit:4;stroke-dasharray:none;stroke-opacity:1" />
    <path
       style="fill:none;stroke:#000000;stroke-width:1;stroke-linecap:butt;stroke-linejoin:miter;stroke-miterlimit:4;stroke-dasharray:none;stroke-opacity:1"
       d="m 58.82954,66.555007 c 0,0 15.827049,-42.315421 18.340441,-41.47886 2.784728,0.926872 -12.768702,42.644955 -12.768702,42.644955"
       id="path7064"
       inkscape:connector-curvature="0"
       sodipodi:nodetypes="csc" />
    <path
       sodipodi:nodetypes="csc"
       inkscape:connector-curvature="0"
       id="path7066"
       d="m 79.918101,73.080524 c 0,0 15.827049,-42.315421 18.340441,-41.47886 2.784728,0.926872 -12.768702,42.644955 -12.768702,42.644955"
       style="fill:none;stroke:#000000;stroke-width:1;stroke-linecap:butt;stroke-linejoin:miter;stroke-miterlimit:4;stroke-dasharray:none;stroke-opacity:1" />
    <path
       style="opacity:0.875;fill:#6f918a;fill-opacity:1;stroke:none;stroke-width:3.02362204;stroke-linecap:round;stroke-linejoin:round;stroke-miterlimit:4;stroke-dasharray:none;stroke-opacity:1"
       d="m 255.66282,245.32423 c -2.54517,-0.55675 -4.78442,-1.1691 -4.9761,-1.36079 -0.19169,-0.19169 3.02195,-9.71549 7.14142,-21.164 16.85443,-46.84055 31.84593,-94.0687 35.58013,-112.0891 2.74077,-13.226383 2.13901,-17.809892 -2.33825,-17.809892 -3.3423,0 -6.55124,4.617901 -14.73168,21.200002 -10.20955,20.69518 -31.498,71.90295 -49.05578,118 l -3.19946,8.4 -6.49392,0.23231 -6.49393,0.23232 0.8011,-1.83232 c 0.4406,-1.00777 14.46546,-38.86826 31.16636,-84.13443 16.70089,-45.26617 30.46931,-82.380255 30.59647,-82.475745 0.12717,-0.09549 8.31055,-5.633968 18.18529,-12.30773 l 17.95408,-12.134114 5.83119,17.009853 5.83119,17.009854 -28.93794,82.200002 c -25.95956,73.73972 -29.10749,82.19156 -30.58527,82.11802 -0.90603,-0.0451 -3.72974,-0.53749 -6.2749,-1.09424 z"
       id="path7072"
       inkscape:connector-curvature="0"
       transform="scale(0.26458333)" />
    <path
       style="opacity:0.875;fill:#80ffe6;fill-opacity:1;stroke:none;stroke-width:3.02362204;stroke-linecap:round;stroke-linejoin:round;stroke-miterlimit:4;stroke-dasharray:none;stroke-opacity:1"
       d="m 333.89039,278.76325 c -2.2,-1.5115 -4.47745,-3.02865 -5.06101,-3.37144 -0.82477,-0.48448 0.75073,-5.68531 7.07568,-23.35731 24.29711,-67.8864 38.32154,-113.97705 38.64137,-126.99305 0.12225,-4.97523 -0.0903,-6.03111 -1.40894,-7 -2.27873,-1.67431 -2.78943,-1.48742 -6.4903,2.37502 -4.0432,4.21971 -13.53281,23.09719 -24.37265,48.48398 -7.10568,16.64141 -31.56117,77.63015 -35.20637,87.8 -0.98569,2.75 -2.10076,5 -2.47793,5 -1.78847,0 -11.93844,-5.15398 -11.66659,-5.92409 0.17007,-0.48175 13.59618,-36.90781 29.83581,-80.94678 l 29.5266,-80.070878 17.26969,-11.684966 c 9.49832,-6.426732 17.72601,-11.794839 18.28375,-11.929128 1.04597,-0.251841 11.92057,29.310402 12.00711,32.640922 0.0304,1.17114 -51.19499,148.14783 -61.62678,176.82041 -0.19972,0.54895 -1.90448,-0.17663 -4.32944,-1.84269 z"
       id="path7074"
       inkscape:connector-curvature="0"
       transform="scale(0.26458333)" />
    <path
       style="opacity:0.875;fill:#80ffe6;fill-opacity:1;stroke:none;stroke-width:3.02362204;stroke-linecap:round;stroke-linejoin:round;stroke-miterlimit:4;stroke-dasharray:none;stroke-opacity:1"
       d="m 254.48713,244.76705 c -3.8989,-0.87303 -3.90065,-0.91178 -0.45865,-10.12099 1.03901,-2.77992 1.68174,-5.38992 1.4283,-5.8 -0.25345,-0.41008 -0.13997,-0.74561 0.25218,-0.74561 0.39214,0 1.09347,-1.17 1.55852,-2.6 0.46504,-1.43 4.29618,-12.45937 8.51364,-24.50971 4.21745,-12.05033 7.47612,-22.22033 7.24147,-22.6 -0.23464,-0.37966 -0.007,-0.69029 0.50618,-0.69029 0.51304,0 0.72559,-0.54 0.47232,-1.2 -0.25326,-0.66 -0.0733,-1.2 0.4,-1.2 0.47327,0 0.65327,-0.54 0.4,-1.2 -0.25326,-0.66 -0.0733,-1.2 0.4,-1.2 0.47327,0 0.66219,-0.51675 0.41984,-1.14831 -0.24236,-0.63158 -0.19088,-1.26158 0.11441,-1.4 0.59624,-0.27036 6.75624,-18.64596 6.92772,-20.66576 0.0567,-0.66773 0.31814,-1.56773 0.58098,-2 0.85066,-1.39893 2.9744,-9.18593 2.50528,-9.18593 -0.25016,0 -0.086,-0.45 0.3649,-1 0.768,-0.93689 2.6033,-6.72494 2.9806,-9.4 0.0931,-0.66 0.54895,-2.1313 1.01302,-3.26956 1.74326,-4.27579 4.98255,-20.70243 4.98255,-25.266766 0,-5.264359 -0.86133,-6.663676 -4.10176,-6.663676 -1.54499,0 -2.9087,0.875564 -4.67254,3 -2.73748,3.297133 -14.05971,24.992602 -13.05316,25.012252 0.34511,0.007 0.2298,0.27674 -0.25624,0.6 -1.09762,0.73002 -7.63581,15.38313 -6.87146,15.4 0.30534,0.006 0.17847,0.27673 -0.28194,0.6 -1.17037,0.82175 -5.15527,10.32871 -4.57328,10.9107 0.26238,0.26238 0.0961,0.47705 -0.36956,0.47705 -0.79634,0 -2.2373,3.69233 -1.95129,5 0.0722,0.33 -0.15765,0.6 -0.51073,0.6 -0.65375,0 -3.438,7.0157 -3.29813,8.31056 0.0422,0.3908 -0.26046,0.9308 -0.67261,1.2 -0.84601,0.55256 -17.16367,40.63033 -17.29957,42.48944 -0.0482,0.66 -0.33392,1.38653 -0.63482,1.61452 -0.97011,0.73501 -9.4128,23.40315 -8.9783,24.10619 0.2309,0.37361 0.0686,0.67929 -0.36073,0.67929 -0.4293,0 -1.28953,1.53 -1.91163,3.4 l -1.13109,3.4 -5.93378,0.53513 c -3.26357,0.29432 -6.03663,0.43228 -6.16234,0.30656 -0.12572,-0.12571 1.74153,-5.56639 4.14944,-12.0904 2.40791,-6.52401 4.19871,-12.15196 3.97956,-12.50656 -0.21916,-0.3546 -0.0795,-0.64473 0.31029,-0.64473 0.66602,0 5.38567,-12.26868 5.38567,-14 0,-0.44 0.2211,-0.98 0.49133,-1.2 0.66111,-0.53822 18.52851,-48.87703 18.62928,-50.4 0.0437,-0.66 0.31142,-1.38 0.59501,-1.6 0.9629,-0.74699 19.05887,-50.594078 18.62311,-51.299149 -0.23824,-0.385469 -0.10624,-0.700853 0.29331,-0.700853 0.39955,0 2.6708,-5.265999 5.04721,-11.70222 l 4.32075,-11.702221 15.4,-10.343726 c 8.47,-5.689049 15.4,-10.704296 15.4,-11.144993 0,-0.440697 0.36255,-0.577204 0.80565,-0.303348 0.44311,0.273855 1.008,-0.02939 1.25531,-0.673881 0.24732,-0.644491 1.05478,-1.089062 1.79436,-0.987936 0.9321,0.127451 2.18548,2.619194 4.085,8.121094 1.50716,4.365477 3.0394,8.057979 3.40498,8.205559 0.36557,0.147581 0.48115,0.565273 0.25685,0.928205 -0.22431,0.362932 0.71982,3.842185 2.09805,7.731672 2.32463,6.560264 2.43428,7.332196 1.51578,10.671795 -0.54457,1.98 -1.04094,4.14 -1.10305,4.8 -0.0621,0.66 -0.30973,1.38 -0.55027,1.6 -0.86171,0.788138 -4.72925,12.206842 -4.34503,12.828512 0.21579,0.34916 0.0917,0.75558 -0.27563,0.90316 -0.71018,0.28528 -14.71812,39.34873 -14.85892,41.43656 -0.0457,0.67747 -0.27988,1.41177 -0.52042,1.63177 -0.86171,0.78813 -4.72925,12.20685 -4.34503,12.82851 0.21579,0.34916 0.0917,0.75558 -0.27563,0.90316 -0.71018,0.28528 -14.71812,39.34873 -14.85892,41.43656 -0.0457,0.67747 -0.30315,1.41177 -0.57213,1.63177 -0.26898,0.22 -3.28166,8.14 -6.69483,17.6 -3.41318,9.46 -6.89042,18.55 -7.72721,20.2 -1.6685,3.29001 -2.75216,3.53102 -9.29217,2.0666 z"
       id="path7076"
       inkscape:connector-curvature="0"
       transform="scale(0.26458333)" />
  </g>
  <g
     inkscape:groupmode="layer"
     id="layer10"
     inkscape:label="стекло 1"
     style="display:inline;opacity:0.6"
     transform="translate(-32.162799,-11.004196)">
    <ellipse
       style="display:inline;opacity:1;fill:#7bf737;fill-opacity:1;stroke:#000000;stroke-width:1;stroke-linecap:round;stroke-linejoin:round;stroke-miterlimit:4;stroke-dasharray:none;stroke-opacity:1"
       id="path7009"
       cx="92.452957"
       cy="36.365898"
       rx="42.862499"
       ry="10.054167"
       transform="rotate(17.964728)" />
    <path
       style="opacity:1;fill:#7bf737;fill-opacity:1;stroke:none;stroke-width:0.89042175;stroke-linecap:round;stroke-linejoin:round;stroke-miterlimit:4;stroke-dasharray:none;stroke-opacity:1"
       d="m 129.47058,213.65019 c 0.0565,-0.15272 1.25053,-3.8027 2.6534,-8.11107 1.40287,-4.30837 2.61597,-7.83339 2.69578,-7.83339 0.0798,0 0.27004,0.34455 0.42272,0.76567 0.67349,1.85759 3.9258,6.34562 6.96985,9.61805 l 1.61642,1.73769 -2.32319,0.415 c -3.63268,0.64893 -6.81149,1.52844 -9.58636,2.65235 -1.40325,0.56836 -2.50512,0.90843 -2.44862,0.7557 z"
       id="path7019"
       inkscape:connector-curvature="0"
       transform="scale(0.26458333)" />
    <path
       style="opacity:1;fill:#7bf737;fill-opacity:1;stroke:none;stroke-width:0.89042175;stroke-linecap:round;stroke-linejoin:round;stroke-miterlimit:4;stroke-dasharray:none;stroke-opacity:1"
       d="m 432.41919,311.91138 c -1.19993,-2.36427 -4.03458,-6.21848 -6.48024,-8.81103 l -1.80835,-1.91696 1.11845,-0.15939 c 4.03565,-0.57509 9.61738,-2.17867 12.3405,-3.54531 1.32754,-0.66624 1.62461,-0.74731 1.51818,-0.4143 -0.0728,0.22771 -1.38517,4.09944 -2.91644,8.60384 l -2.78412,8.18981 z"
       id="path7021"
       inkscape:connector-curvature="0"
       transform="scale(0.26458333)" />
  </g>
  <g
     inkscape:label="стекло"
     inkscape:groupmode="layer"
     id="layer1"
     style="display:inline;opacity:0.6"
     transform="translate(-32.162799,-11.004196)">
    <ellipse
       transform="rotate(17.964729)"
       ry="10.054167"
       rx="42.862499"
       cy="45.902424"
       cx="92.207344"
       id="ellipse7011"
       style="opacity:1;fill:#7bf737;fill-opacity:1;stroke:#000000;stroke-width:1;stroke-linecap:round;stroke-linejoin:round;stroke-miterlimit:4;stroke-dasharray:none;stroke-opacity:1" />
    <path
       style="fill:none;stroke:#000000;stroke-width:1;stroke-linecap:butt;stroke-linejoin:miter;stroke-miterlimit:4;stroke-dasharray:none;stroke-opacity:1"
       d="m 35.904029,49.848121 -2.929667,8.851341"
       id="path7013"
       inkscape:connector-curvature="0" />
    <path
       style="fill:none;stroke:#000000;stroke-width:1;stroke-linecap:butt;stroke-linejoin:miter;stroke-miterlimit:4;stroke-dasharray:none;stroke-opacity:1"
       d="m 117.4361,76.52681 -2.86734,8.47734"
       id="path7015"
       inkscape:connector-curvature="0" />
  </g>
  <g
     inkscape:groupmode="layer"
     id="layer11"
     inkscape:label="пимпа"
     style="display:inline"
     transform="translate(-32.162799,-11.004196)">
    <path
       style="fill:none;stroke:#000000;stroke-width:1;stroke-linecap:butt;stroke-linejoin:miter;stroke-miterlimit:4;stroke-dasharray:none;stroke-opacity:1"
       d="m 48.5474,64.700686 c 0,0 -20.692992,42.735124 7.524848,51.460254 28.21784,8.72512 40.294342,-35.682347 40.294342,-35.682347"
       id="path7028"
       inkscape:connector-curvature="0"
       sodipodi:nodetypes="czc" />
    <path
       style="fill:none;stroke:#000000;stroke-width:1;stroke-linecap:butt;stroke-linejoin:miter;stroke-miterlimit:4;stroke-dasharray:none;stroke-opacity:1"
       d="m 48.5474,64.700686 c 19.191743,-2.328729 34.435481,4.554552 47.819188,15.777906"
       id="path7032"
       inkscape:connector-curvature="0"
       sodipodi:nodetypes="cc" />
    <path
       style="opacity:1;fill:#00ff00;fill-opacity:1;stroke:none;stroke-width:3.46745658;stroke-linecap:round;stroke-linejoin:round;stroke-miterlimit:4;stroke-dasharray:none;stroke-opacity:1"
       d="m 225.56599,439.95725 c -23.18261,-5.15353 -38.71487,-13.52108 -49.60435,-26.7229 -4.98539,-6.04402 -10.05148,-15.38691 -12.78266,-23.57379 -9.42044,-28.23832 -4.99997,-71.59829 12.11211,-118.80667 5.60293,-15.45723 9.33682,-23.61444 11.12304,-24.29987 3.22342,-1.23695 32.17956,-1.60191 43.2803,-0.54552 43.02789,4.09474 84.81181,21.84772 123.99606,52.68294 l 7.941,6.24901 -3.44489,10.24996 c -16.26011,48.38044 -43.80943,90.93368 -70.97606,109.6311 -16.16723,11.12709 -30.7676,15.80743 -48.80051,15.64363 -6.05505,-0.055 -11.83487,-0.28354 -12.84404,-0.50789 z"
       id="path7036"
       inkscape:connector-curvature="0"
       transform="scale(0.26458333)" />
    <path
       style="opacity:0.875;fill:#ffffff;stroke:none;stroke-width:0.26458332px;stroke-linecap:butt;stroke-linejoin:miter;stroke-opacity:1"
       d="m 47.576451,84.362385 c -4.401812,10.607285 0.677038,23.131885 9.224007,26.458325 0,0 -5.54937,-9.35493 -7.039372,-13.836001 -1.490002,-4.481066 -2.184635,-12.622324 -2.184635,-12.622324 z"
       id="path7038"
       inkscape:connector-curvature="0"
       sodipodi:nodetypes="cczc" />
  </g>
</svg>
