<?xml version="1.0" encoding="UTF-8" standalone="no"?>
<!-- Created with Inkscape (http://www.inkscape.org/) -->

<svg
   xmlns:dc="http://purl.org/dc/elements/1.1/"
   xmlns:cc="http://creativecommons.org/ns#"
   xmlns:rdf="http://www.w3.org/1999/02/22-rdf-syntax-ns#"
   xmlns:svg="http://www.w3.org/2000/svg"
   xmlns="http://www.w3.org/2000/svg"
   xmlns:sodipodi="http://sodipodi.sourceforge.net/DTD/sodipodi-0.dtd"
   xmlns:inkscape="http://www.inkscape.org/namespaces/inkscape"
   width="85.957741mm"
   height="110.74725mm"
   viewBox="0 0 85.957741 110.74725"
   version="1.1"
   id="svg6464"
   inkscape:version="0.92.1 r15371"
   sodipodi:docname="жизнь2.svg"
   inkscape:export-filename="C:\Users\Izmenehy sama\Pictures\Проект\Доп\жизнь2.png"
   inkscape:export-xdpi="99"
   inkscape:export-ydpi="99">
  <defs
     id="defs6458" />
  <sodipodi:namedview
     id="base"
     pagecolor="#ffffff"
     bordercolor="#666666"
     borderopacity="1.0"
     inkscape:pageopacity="0.0"
     inkscape:pageshadow="2"
     inkscape:zoom="1.25"
     inkscape:cx="-31.295024"
     inkscape:cy="211.00822"
     inkscape:document-units="mm"
     inkscape:current-layer="layer11"
     showgrid="false"
     inkscape:window-width="1920"
     inkscape:window-height="1001"
     inkscape:window-x="-9"
     inkscape:window-y="-9"
     inkscape:window-maximized="1" />
  <metadata
     id="metadata6461">
    <rdf:RDF>
      <cc:Work
         rdf:about="">
        <dc:format>image/svg+xml</dc:format>
        <dc:type
           rdf:resource="http://purl.org/dc/dcmitype/StillImage" />
        <dc:title></dc:title>
      </cc:Work>
    </rdf:RDF>
  </metadata>
  <g
     inkscape:groupmode="layer"
     id="layer12"
     inkscape:label="рога"
     transform="translate(-32.162799,-7.0453143)"
     style="display:inline">
    <path
       style="fill:none;stroke:#000000;stroke-width:1;stroke-linecap:butt;stroke-linejoin:miter;stroke-miterlimit:4;stroke-dasharray:none;stroke-opacity:1"
       d="M 54.373089,62.770443 71.850151,15.436727 82.287844,8.3973543 85.686162,18.349571 68.937309,65.926024"
       id="path7041"
       inkscape:connector-curvature="0" />
    <path
       inkscape:connector-curvature="0"
       id="path7058"
       d="m 75.248471,68.596131 17.477057,-47.333716 10.437692,-7.039372 3.39832,9.952216 -16.748854,47.576453"
       style="fill:none;stroke:#000000;stroke-width:1;stroke-linecap:butt;stroke-linejoin:miter;stroke-miterlimit:4;stroke-dasharray:none;stroke-opacity:1" />
    <path
       style="opacity:0.875;fill:#80ffe6;fill-opacity:1;stroke:#7ef3db;stroke-width:0.80000001;stroke-linecap:round;stroke-linejoin:round;stroke-miterlimit:4;stroke-dasharray:none;stroke-opacity:0.98431373"
       d="m 68.429442,61.68622 c -1.408157,-0.420476 -5.747649,-1.040135 -8.916712,-1.273267 -1.847975,-0.135946 -3.389098,-0.272304 -3.424718,-0.303025 -0.06725,-0.05799 15.968754,-43.606322 16.227821,-44.069252 0.168558,-0.301194 9.546516,-6.7009525 9.655984,-6.5894912 0.03972,0.040442 0.747501,2.0611432 1.572848,4.4904462 l 1.500629,4.416913 -7.666715,21.776835 c -5.745358,16.319349 -7.747838,21.772276 -7.990424,21.758645 -0.178044,-0.01 -0.609463,-0.103518 -0.958713,-0.207804 z"
       id="path7078"
       inkscape:connector-curvature="0" />
    <path
       style="opacity:0.875;fill:#80ffe6;fill-opacity:1;stroke:#7ef3db;stroke-width:0.80000001;stroke-linecap:round;stroke-linejoin:round;stroke-miterlimit:4;stroke-dasharray:none;stroke-opacity:0.98431373"
       d="m 87.161942,69.617201 c -2.617462,-1.619221 -6.299827,-3.587459 -8.307316,-4.440285 -1.229005,-0.52211 -1.409313,-0.666586 -1.293082,-1.036122 0.07429,-0.236177 3.626509,-9.885315 7.893825,-21.442529 l 7.758761,-21.013118 4.680595,-3.169799 c 2.574325,-1.743389 4.760645,-3.168763 4.858485,-3.167497 0.0979,0.0013 0.85246,1.985618 1.67692,4.409671 l 1.49902,4.407371 -8.111998,23.054077 c -4.461597,12.679744 -8.184158,23.215865 -8.272354,23.413601 -0.138385,0.310261 -0.464878,0.171138 -2.382856,-1.01537 z"
       id="path7080"
       inkscape:connector-curvature="0" />
  </g>
  <g
     inkscape:groupmode="layer"
     id="layer10"
     inkscape:label="стекло 1"
     style="display:inline;opacity:0.6"
     transform="translate(-32.162799,-7.0453143)">
    <ellipse
       style="display:inline;opacity:1;fill:#7bf737;fill-opacity:1;stroke:#000000;stroke-width:1;stroke-linecap:round;stroke-linejoin:round;stroke-miterlimit:4;stroke-dasharray:none;stroke-opacity:1"
       id="path7009"
       cx="91.408401"
       cy="33.144344"
       rx="42.862499"
       ry="10.054167"
       transform="rotate(17.964728)" />
    <path
       style="opacity:1;fill:#7bf737;fill-opacity:1;stroke:none;stroke-width:0.23559076;stroke-linecap:round;stroke-linejoin:round;stroke-miterlimit:4;stroke-dasharray:none;stroke-opacity:1"
       d="m 34.255757,53.141612 c 0.01495,-0.04041 0.33087,-1.006131 0.702046,-2.146054 0.371176,-1.139923 0.692142,-2.072584 0.713258,-2.072584 0.02111,0 0.07145,0.09116 0.111845,0.202583 0.178194,0.491488 1.038701,1.678946 1.844106,2.544776 l 0.427678,0.459764 -0.614678,0.109802 c -0.961146,0.171696 -1.802206,0.4044 -2.536391,0.701767 -0.371276,0.150379 -0.662813,0.240356 -0.647864,0.199946 z"
       id="path7019"
       inkscape:connector-curvature="0" />
    <path
       style="opacity:1;fill:#7bf737;fill-opacity:1;stroke:none;stroke-width:0.23559076;stroke-linecap:round;stroke-linejoin:round;stroke-miterlimit:4;stroke-dasharray:none;stroke-opacity:1"
       d="m 114.41091,79.139885 c -0.31748,-0.625547 -1.06748,-1.645306 -1.71456,-2.331252 l -0.47846,-0.507195 0.29592,-0.04217 c 1.06777,-0.15216 2.5446,-0.57644 3.26509,-0.93803 0.35125,-0.176276 0.42985,-0.197726 0.40169,-0.109617 -0.0193,0.06025 -0.3665,1.084643 -0.77165,2.276433 l -0.73663,2.166887 z"
       id="path7021"
       inkscape:connector-curvature="0" />
  </g>
  <g
     inkscape:label="стекло"
     inkscape:groupmode="layer"
     id="layer1"
     style="display:inline;opacity:0.6"
     transform="translate(-32.162799,-7.0453143)">
    <ellipse
       transform="rotate(17.964729)"
       ry="10.054167"
       rx="42.862499"
       cy="42.68087"
       cx="91.162788"
       id="ellipse7011"
       style="opacity:1;fill:#7bf737;fill-opacity:1;stroke:#000000;stroke-width:1;stroke-linecap:round;stroke-linejoin:round;stroke-miterlimit:4;stroke-dasharray:none;stroke-opacity:1" />
    <path
       style="fill:none;stroke:#000000;stroke-width:1;stroke-linecap:butt;stroke-linejoin:miter;stroke-miterlimit:4;stroke-dasharray:none;stroke-opacity:1"
       d="m 35.904029,46.461454 -2.929667,8.851341"
       id="path7013"
       inkscape:connector-curvature="0" />
    <path
       style="fill:none;stroke:#000000;stroke-width:1;stroke-linecap:butt;stroke-linejoin:miter;stroke-miterlimit:4;stroke-dasharray:none;stroke-opacity:1"
       d="m 117.4361,73.140143 -2.86734,8.47734"
       id="path7015"
       inkscape:connector-curvature="0" />
  </g>
  <g
     inkscape:groupmode="layer"
     id="layer11"
     inkscape:label="пимпа"
     style="display:inline"
     transform="translate(-32.162799,-7.0453143)">
    <path
       style="fill:none;stroke:#000000;stroke-width:1;stroke-linecap:butt;stroke-linejoin:miter;stroke-miterlimit:4;stroke-dasharray:none;stroke-opacity:1"
       d="m 48.5474,61.314019 c 0,0 -20.692992,42.735121 7.524848,51.460251 28.21784,8.72512 40.294342,-35.682344 40.294342,-35.682344"
       id="path7028"
       inkscape:connector-curvature="0"
       sodipodi:nodetypes="czc" />
    <path
       style="fill:none;stroke:#000000;stroke-width:1;stroke-linecap:butt;stroke-linejoin:miter;stroke-miterlimit:4;stroke-dasharray:none;stroke-opacity:1"
       d="M 48.5474,61.314019 C 67.739143,58.98529 82.982881,65.868571 96.366588,77.091925"
       id="path7032"
       inkscape:connector-curvature="0"
       sodipodi:nodetypes="cc" />
    <path
       style="opacity:1;fill:#00ff00;fill-opacity:1;stroke:none;stroke-width:0.91743124;stroke-linecap:round;stroke-linejoin:round;stroke-miterlimit:4;stroke-dasharray:none;stroke-opacity:1"
       d="m 59.681001,113.01869 c -6.133732,-1.36354 -10.243309,-3.57745 -13.124484,-7.07044 -1.319051,-1.59914 -2.659454,-4.07112 -3.382079,-6.237228 -2.492491,-7.471389 -1.322909,-18.943714 3.204662,-31.434265 1.482442,-4.089725 2.470367,-6.247987 2.942971,-6.42934 0.852863,-0.327276 8.514175,-0.423839 11.451246,-0.144336 11.384463,1.0834 22.439791,5.780543 32.807291,13.939028 l 2.101056,1.653384 -0.911461,2.711969 C 90.468049,92.80812 83.178959,104.067 75.991121,109.01402 c -4.277579,2.94405 -8.140594,4.18239 -12.911801,4.13905 -1.602066,-0.0146 -3.13131,-0.075 -3.398319,-0.13438 z"
       id="path7036"
       inkscape:connector-curvature="0" />
    <path
       style="opacity:0.875;fill:#ffffff;stroke:none;stroke-width:0.26458332px;stroke-linecap:butt;stroke-linejoin:miter;stroke-opacity:1"
       d="m 47.153118,79.282384 c -4.401812,10.607285 0.677038,23.131876 9.224007,26.458316 0,0 -5.54937,-9.354924 -7.039372,-13.835992 -1.490002,-4.481066 -2.184635,-12.622324 -2.184635,-12.622324 z"
       id="path7038"
       inkscape:connector-curvature="0"
       sodipodi:nodetypes="cczc" />
  </g>
</svg>
