<?xml version="1.0" encoding="UTF-8" standalone="no"?>
<!-- Created with Inkscape (http://www.inkscape.org/) -->

<svg
   xmlns:dc="http://purl.org/dc/elements/1.1/"
   xmlns:cc="http://creativecommons.org/ns#"
   xmlns:rdf="http://www.w3.org/1999/02/22-rdf-syntax-ns#"
   xmlns:svg="http://www.w3.org/2000/svg"
   xmlns="http://www.w3.org/2000/svg"
   xmlns:xlink="http://www.w3.org/1999/xlink"
   xmlns:sodipodi="http://sodipodi.sourceforge.net/DTD/sodipodi-0.dtd"
   xmlns:inkscape="http://www.inkscape.org/namespaces/inkscape"
   width="543.09448mm"
   height="194.67085mm"
   viewBox="0 0 543.09449 194.67086"
   version="1.1"
   id="svg4561"
   inkscape:version="0.92.1 r15371"
   sodipodi:docname="2.svg"
   inkscape:export-filename="C:\Users\Izmenehy sama\Pictures\Проект\Фон\Камни\2.png"
   inkscape:export-xdpi="99"
   inkscape:export-ydpi="99">
  <defs
     id="defs4555">
    <linearGradient
       inkscape:collect="always"
       id="linearGradient5204">
      <stop
         style="stop-color:#595a4d;stop-opacity:1;"
         offset="0"
         id="stop5200" />
      <stop
         style="stop-color:#999999;stop-opacity:1"
         offset="1"
         id="stop5202" />
    </linearGradient>
    <linearGradient
       inkscape:collect="always"
       xlink:href="#linearGradient5204"
       id="linearGradient5206"
       x1="989.91827"
       y1="675.76978"
       x2="1037.2833"
       y2="58.619995"
       gradientUnits="userSpaceOnUse" />
  </defs>
  <sodipodi:namedview
     id="base"
     pagecolor="#ffffff"
     bordercolor="#666666"
     borderopacity="1.0"
     inkscape:pageopacity="0.0"
     inkscape:pageshadow="2"
     inkscape:zoom="0.49744813"
     inkscape:cx="1026.3203"
     inkscape:cy="372.24376"
     inkscape:document-units="mm"
     inkscape:current-layer="layer2"
     showgrid="false"
     inkscape:window-width="1920"
     inkscape:window-height="1001"
     inkscape:window-x="-9"
     inkscape:window-y="-9"
     inkscape:window-maximized="1" />
  <metadata
     id="metadata4558">
    <rdf:RDF>
      <cc:Work
         rdf:about="">
        <dc:format>image/svg+xml</dc:format>
        <dc:type
           rdf:resource="http://purl.org/dc/dcmitype/StillImage" />
        <dc:title></dc:title>
      </cc:Work>
    </rdf:RDF>
  </metadata>
  <g
     inkscape:label="камень"
     inkscape:groupmode="layer"
     id="layer1"
     transform="translate(329.95227,-2.0455554)"
     style="display:inline">
    <path
       style="fill:none;stroke:#000000;stroke-width:0.70555556;stroke-linecap:butt;stroke-linejoin:miter;stroke-miterlimit:4;stroke-dasharray:none;stroke-opacity:1"
       d="m -329.89472,196.18736 c 0,0 23.86914,-3.94704 37.98949,-19.65175 10.82677,-12.04156 -44.97435,1.51199 2.5786,-37.52649 10.25394,-8.41794 23.22653,-11.25373 31.03745,-22.88499 23.80838,-35.453154 31.4629,21.75337 46.65283,-29.125758 2.09198,-7.007146 18.87919,30.837378 27.75021,-33.821394 1.1896,-8.670723 20.99969,-13.917202 56.79946,-39.09896 14.69837,-10.3389156 12.33702,20.567017 15.69937,16.081484 1.38008,-1.841089 13.933873,-3.420162 14.046937,-4.478994 1.794787,-16.8080424 40.432518,-6.438683 35.392695,-20.5501874 -1.260554,-3.5295524 60.7646938,-7.0768229 37.564164,13.0654894 -25.200642,21.878776 9.420203,132.8607 39.102423,124.76749 14.6037,-3.98186 30.387234,-3.41171 52.082909,-27.99599 21.819634,-24.724741 24.736701,-26.025502 35.493682,-20.508903 31.97392,16.397483 -18.987192,-1.094637 2.49759,20.846483 14.98358,15.30182 56.18992,-11.32212 44.98999,8.96652 -8.28392,15.0063 19.88402,14.56606 33.84557,22.54886 12.59825,7.2033 10.19793,23.32367 19.66308,27.44827 18.84027,8.20997 3.83922,22.18979 3.83922,22.18979"
       id="path5112"
       inkscape:connector-curvature="0"
       sodipodi:nodetypes="csssssssssssssssssc" />
    <path
       style="fill:none;stroke:#000000;stroke-width:0.26458332px;stroke-linecap:butt;stroke-linejoin:miter;stroke-opacity:1"
       d="m -329.89472,196.18736 537.02566,0.27097"
       id="path5115"
       inkscape:connector-curvature="0" />
    <path
       transform="translate(-357.72169,-0.83338578)"
       style="display:inline;fill:none;stroke:#000000;stroke-width:0.70555556;stroke-linecap:butt;stroke-linejoin:miter;stroke-miterlimit:4;stroke-dasharray:none;stroke-opacity:1"
       d="m 246.90496,30.826633 c -22.27971,15.808775 -6.50674,49.05607 -13.31804,83.145687"
       id="path5173"
       inkscape:connector-curvature="0"
       sodipodi:nodetypes="cc" />
    <path
       transform="translate(-357.72169,-0.83338578)"
       style="display:inline;fill:none;stroke:#000000;stroke-width:0.70555556;stroke-linecap:butt;stroke-linejoin:miter;stroke-miterlimit:4;stroke-dasharray:none;stroke-opacity:1"
       d="m 84.666666,129.32894 c 13.751441,-2.10813 7.597805,-11.15989 84.666664,8.81945"
       id="path5177"
       inkscape:connector-curvature="0"
       sodipodi:nodetypes="cc" />
    <path
       transform="translate(-357.72169,-0.83338578)"
       style="display:inline;fill:none;stroke:#000000;stroke-width:0.70555556;stroke-linecap:butt;stroke-linejoin:miter;stroke-miterlimit:4;stroke-dasharray:none;stroke-opacity:1"
       d="m 371.20609,143.98896 c -112.11541,19.64258 -51.35144,24.49919 -50.17833,38.25665"
       id="path5183"
       inkscape:connector-curvature="0"
       sodipodi:nodetypes="cc" />
  </g>
  <g
     inkscape:groupmode="layer"
     id="layer2"
     inkscape:label="цвет"
     style="display:inline"
     transform="translate(-27.769416,-2.8789411)">
    <path
       style="opacity:1;fill:url(#linearGradient5206);fill-opacity:1;stroke:#000000;stroke-width:2.6666667;stroke-linecap:round;stroke-linejoin:round;stroke-miterlimit:4;stroke-dasharray:none;stroke-opacity:1"
       d="M 29.834481,728.66725 C 75.641574,714.88414 117.4641,690.99978 141.90647,664.66423 158.33485,646.96339 154.23019,640.3261 121.82969,632.19982 92.5249,624.84997 83.106366,618.21322 83.106366,604.91354 c 0,-11.77188 11.954931,-29.65033 34.923704,-52.228 40.16926,-39.48524 83.25063,-67.40005 122.88169,-79.6218 20.7523,-6.39979 23.78266,-6.80672 49.25137,-6.61398 40.23897,0.30451 101.23467,11.38271 208.04844,37.78633 19.89416,4.91768 36.56926,8.5432 37.05579,8.05668 2.4449,-2.4449 -6.92746,-5.36643 -53.12442,-16.55988 -93.31732,-22.61062 -144.57521,-31.97575 -184.9439,-33.79039 -25.50401,-1.14646 -31.46911,-0.46043 -57.29241,6.5888 -3.76515,1.02783 -2.50466,-0.66405 5.02565,-6.74554 12.73898,-10.28801 19.66473,-17.85966 33.86751,-37.02594 13.83447,-18.66924 25.00124,-29.02457 37.0429,-34.35117 13.49847,-5.97102 25.61507,-4.2439 49.91437,7.11483 22.57689,10.55358 32.10687,11.76191 42.5496,5.39495 12.09238,-7.37275 26.37023,-34.1357 37.80274,-70.8589 1.97918,-6.35745 4.37672,-11.559 5.32789,-11.559 0.95117,0 6.43983,3.55553 12.19701,7.90115 12.34099,9.31522 19.19048,12.20145 28.9561,12.20145 26.31531,0 45.21795,-42.40812 59.76402,-134.08085 1.61372,-10.17 4.44851,-20.80226 6.2995,-23.62725 5.59344,-8.53668 24.40208,-21.33748 72.58801,-49.402 53.12467,-30.94098 91.21865,-54.631881 121.82462,-75.763539 24.25732,-16.748287 31.84036,-19.853121 40.14633,-16.437682 8.40922,3.457898 13.16435,13.202575 20.3023,41.605353 l 6.5248,25.963078 -10.42555,11.20067 c -12.33686,13.2541 -19.28713,26.71573 -25.12581,48.66501 -5.05854,19.01651 -5.96119,60.67533 -3.07078,141.72331 1.65746,46.47558 0.87547,66.31435 -3.98176,101.01556 -2.18284,15.59483 2.36308,11.16213 5.15401,-5.02565 3.96875,-23.0192 4.87486,-77.42598 2.24375,-134.72343 -4.26137,-92.79951 3.41891,-126.58265 35.64591,-156.79513 9.50165,-8.90772 11.94219,-10.0357 34.79544,-16.082082 l 24.5771,-6.502457 2.83521,-8.525059 c 3.80976,-11.455333 16.10387,-21.703107 31.88427,-26.577175 6.84895,-2.115431 24.97912,-5.736041 40.28926,-8.045804 34.46534,-5.199609 46.92817,-8.686893 54.84147,-15.345489 5.145,-4.329266 6.1644,-6.637856 6.1644,-13.960036 0,-8.416843 0.3061,-8.859899 7.5385,-10.914132 4.1462,-1.1776337 19.5047,-3.0683108 34.1301,-4.2015045 42.6145,-3.3018298 87.7034,2.0660491 104.4878,12.4394035 15.1971,9.392318 13.6849,18.297077 -6.8327,40.236643 -16.2971,17.426456 -23.5365,30.711137 -29.9699,54.995752 -3.0697,11.58765 -3.7355,21.70177 -3.7715,57.29241 -0.045,45.05478 1.5137,60.65778 10.3454,103.52838 15.2556,74.05312 44.9216,150.68666 77.5409,200.30464 16.1635,24.58648 41.0367,49.50202 55.92,56.01502 l 11.1728,4.88928 -56.4036,11.31121 c -108.924,21.84362 -162.7937,38.80179 -175.8054,55.34348 -9.4232,11.97964 -3.9626,20.37505 27.4317,42.17468 17.0114,11.81241 26.404,19.79435 30.1182,25.59479 2.9685,4.63602 5.6611,8.80605 5.9835,9.26674 0.3224,0.46067 1.1603,0.26352 1.8619,-0.43812 2.408,-2.40799 -3.7607,-13.42719 -11.3601,-20.29287 -4.1824,-3.77854 -15.6968,-12.31137 -25.5875,-18.96185 -18.2145,-12.24743 -28.6564,-22.3514 -28.6564,-27.72896 0,-1.62389 2.1522,-5.10474 4.7827,-7.73522 17.6955,-17.69554 87.9865,-37.78276 211.3202,-60.38947 49.8966,-9.14592 95.4923,-19.43148 116.5951,-26.30176 20.4992,-6.67376 50.4644,-22.21991 68.4248,-35.4992 15.9291,-11.77745 50.1334,-45.47936 82.1122,-80.90602 24.8099,-27.4848 46.8562,-47.75157 58.402,-53.68783 11.7245,-6.02811 24.3888,-5.32072 40.745,2.27585 15.8574,7.36493 44.819,24.44529 44.819,26.43241 0,1.78292 -10.6643,3.86892 -19.8513,3.88306 -9.5955,0.0141 -22.4926,3.62958 -26.8872,7.53606 -8.2518,7.33515 -2.136,23.5516 15.5537,41.24126 16.9147,16.91469 27.3923,20.45964 60.3336,20.41288 21.2813,-0.0301 32.4785,-1.27553 60.3078,-6.70729 33.0505,-6.45082 50.5324,-8.13721 55.0988,-5.31504 3.6055,2.22835 2.5341,8.71481 -3.8372,23.2313 -15.4438,35.18723 -3.3049,47.32311 68.3489,68.33199 70.4681,20.66127 81.2624,29.64876 104.6796,87.15801 8.9018,21.86162 16.4361,30.98695 33.1203,40.11474 22.0085,12.04071 31.0854,23.11955 31.0422,37.88921 -0.024,8.0688 -7.3003,24.33868 -14.924,33.36805 l -5.5163,6.53334 -1005.4538,-0.15358 C 50.661084,732.30154 18.167452,732.17779 29.834481,728.66725 Z"
       id="path5190"
       inkscape:connector-curvature="0"
       transform="matrix(0.26458333,0,0,0.26458333,27.769416,2.8789411)" />
  </g>
</svg>
