<?xml version="1.0" encoding="UTF-8" standalone="no"?>
<!-- Created with Inkscape (http://www.inkscape.org/) -->

<svg
   xmlns:dc="http://purl.org/dc/elements/1.1/"
   xmlns:cc="http://creativecommons.org/ns#"
   xmlns:rdf="http://www.w3.org/1999/02/22-rdf-syntax-ns#"
   xmlns:svg="http://www.w3.org/2000/svg"
   xmlns="http://www.w3.org/2000/svg"
   xmlns:xlink="http://www.w3.org/1999/xlink"
   xmlns:sodipodi="http://sodipodi.sourceforge.net/DTD/sodipodi-0.dtd"
   xmlns:inkscape="http://www.inkscape.org/namespaces/inkscape"
   width="333.40384mm"
   height="162.01561mm"
   viewBox="0 0 333.40384 162.01561"
   version="1.1"
   id="svg4737"
   inkscape:version="0.92.1 r15371"
   sodipodi:docname="1.svg"
   inkscape:export-filename="C:\Users\Izmenehy sama\Pictures\Проект\Карта\1.png"
   inkscape:export-xdpi="99"
   inkscape:export-ydpi="99">
  <defs
     id="defs4731">
    <linearGradient
       gradientTransform="matrix(1.0396147,0,0,1.0396147,57.73032,92.969689)"
       inkscape:collect="always"
       xlink:href="#linearGradient4667"
       id="linearGradient4669"
       x1="-45.851379"
       y1="48.942654"
       x2="-44.070129"
       y2="57.015572"
       gradientUnits="userSpaceOnUse" />
    <linearGradient
       inkscape:collect="always"
       id="linearGradient4667">
      <stop
         style="stop-color:#808080;stop-opacity:1;"
         offset="0"
         id="stop4663" />
      <stop
         style="stop-color:#4d4d4d;stop-opacity:1"
         offset="1"
         id="stop4665" />
    </linearGradient>
    <linearGradient
       inkscape:collect="always"
       xlink:href="#linearGradient4667"
       id="linearGradient4657"
       x1="106.77084"
       y1="154.98351"
       x2="107.29166"
       y2="177.90016"
       gradientUnits="userSpaceOnUse"
       gradientTransform="matrix(1.0396147,0,0,1.0396147,-135.072,-37.035436)" />
    <linearGradient
       gradientTransform="matrix(1.0396147,0,0,1.0396147,43.426933,100.91673)"
       inkscape:collect="always"
       xlink:href="#linearGradient4667"
       id="linearGradient4605"
       x1="108.12045"
       y1="36.419464"
       x2="109.78286"
       y2="47.526402"
       gradientUnits="userSpaceOnUse" />
    <linearGradient
       inkscape:collect="always"
       xlink:href="#linearGradient4667"
       id="linearGradient4593"
       x1="239.58333"
       y1="145.60851"
       x2="245.3125"
       y2="173.21266"
       gradientUnits="userSpaceOnUse"
       gradientTransform="matrix(1.0396147,0,0,1.0396147,-134.25978,-80.894175)" />
    <linearGradient
       inkscape:collect="always"
       xlink:href="#linearGradient4667"
       id="linearGradient4577"
       x1="24.72212"
       y1="9.8885813"
       x2="25.739887"
       y2="15.775935"
       gradientUnits="userSpaceOnUse"
       gradientTransform="matrix(1.0396147,0,0,1.0396148,71.176758,79.913072)" />
    <linearGradient
       gradientTransform="matrix(1.0396147,0,0,1.0396147,-131.55245,-18.354858)"
       inkscape:collect="always"
       xlink:href="#linearGradient4667"
       id="linearGradient4558"
       x1="353.38541"
       y1="158.88976"
       x2="359.11459"
       y2="170.86891"
       gradientUnits="userSpaceOnUse" />
    <linearGradient
       gradientTransform="matrix(1.0396147,0,0,1.0396147,57.73032,92.969689)"
       inkscape:collect="always"
       xlink:href="#linearGradient4667"
       id="linearGradient4535"
       x1="172.13542"
       y1="-26.3948"
       x2="180.72917"
       y2="-14.936467"
       gradientUnits="userSpaceOnUse" />
  </defs>
  <sodipodi:namedview
     id="base"
     pagecolor="#ffffff"
     bordercolor="#666666"
     borderopacity="1.0"
     inkscape:pageopacity="0.0"
     inkscape:pageshadow="2"
     inkscape:zoom="0.71"
     inkscape:cx="647.26371"
     inkscape:cy="234.42145"
     inkscape:document-units="mm"
     inkscape:current-layer="layer1"
     showgrid="false"
     inkscape:window-width="1920"
     inkscape:window-height="1001"
     inkscape:window-x="-9"
     inkscape:window-y="-9"
     inkscape:window-maximized="1" />
  <metadata
     id="metadata4734">
    <rdf:RDF>
      <cc:Work
         rdf:about="">
        <dc:format>image/svg+xml</dc:format>
        <dc:type
           rdf:resource="http://purl.org/dc/dcmitype/StillImage" />
        <dc:title></dc:title>
      </cc:Work>
    </rdf:RDF>
  </metadata>
  <g
     inkscape:label="Layer 1"
     inkscape:groupmode="layer"
     id="layer1"
     transform="translate(59.056819,-48.841738)">
    <rect
       style="display:inline;opacity:1;fill:#a09682;fill-opacity:1;stroke:none;stroke-width:3.75411248;stroke-linecap:round;stroke-linejoin:round;stroke-miterlimit:4;stroke-dasharray:none;stroke-opacity:1"
       id="rect4498"
       width="332.6767"
       height="161.14027"
       x="-58.329678"
       y="49.717068" />
    <ellipse
       style="display:inline;opacity:1;fill:#282828;fill-opacity:1;stroke:#000000;stroke-width:1.03961468;stroke-linecap:round;stroke-linejoin:round;stroke-miterlimit:4;stroke-dasharray:none;stroke-opacity:1"
       id="path4683"
       cx="77.047256"
       cy="157.6586"
       rx="7.9866238"
       ry="3.5195289" />
    <path
       style="display:inline;fill:none;stroke:#000000;stroke-width:1.03961468px;stroke-linecap:butt;stroke-linejoin:miter;stroke-opacity:1"
       d="m 39.821539,186.89775 c 0,0 12.404374,-3.01032 18.951294,-7.03905 6.54692,-4.02876 6.86999,-16.27843 6.768337,-21.65865 -0.101829,-5.38021 7.13623,-5.58885 10.829298,-6.22685 3.693058,-0.63802 11.786888,2.99358 11.100052,5.41465 -0.686837,2.42108 4.660958,23.52851 6.226843,21.11718"
       id="path4685"
       inkscape:connector-curvature="0"
       sodipodi:nodetypes="czzzzc" />
    <path
       style="display:inline;fill:none;stroke:#000000;stroke-width:1.03961468px;stroke-linecap:butt;stroke-linejoin:miter;stroke-opacity:1"
       d="m 74.746069,166.59278 c -0.43037,21.52928 -8.002664,25.5284 -16.243965,27.88547"
       id="path4687"
       inkscape:connector-curvature="0"
       sodipodi:nodetypes="cc" />
    <path
       style="display:inline;fill:none;stroke:#000000;stroke-width:1.03961468px;stroke-linecap:round;stroke-linejoin:miter;stroke-opacity:1"
       d="m 93.697363,178.50503 c 0.383887,-9.99983 11.061087,-10.315 15.973287,-13.53665"
       id="path4691"
       inkscape:connector-curvature="0"
       sodipodi:nodetypes="cc" />
    <ellipse
       style="display:inline;opacity:1;fill:#333333;fill-opacity:1;stroke:#000000;stroke-width:1.03961587;stroke-linecap:round;stroke-linejoin:round;stroke-miterlimit:4;stroke-dasharray:none;stroke-opacity:1"
       id="path4695"
       cx="139.00075"
       cy="181.15579"
       rx="47.24437"
       ry="12.45303"
       transform="matrix(0.99852463,-0.05430072,0.0521894,0.9986372,0,0)" />
    <ellipse
       transform="matrix(0.99700036,-0.07739695,0.08565246,0.99632508,0,0)"
       ry="11.395267"
       rx="43.304188"
       cy="186.47299"
       cx="136.0706"
       id="ellipse4697"
       style="display:inline;opacity:1;fill:#141414;fill-opacity:1;stroke:none;stroke-width:1.25143158;stroke-linecap:round;stroke-linejoin:round;stroke-miterlimit:4;stroke-dasharray:none;stroke-opacity:1" />
    <path
       style="display:inline;fill:none;stroke:#000000;stroke-width:1.03961468px;stroke-linecap:butt;stroke-linejoin:miter;stroke-opacity:1"
       d="m 126.18538,197.9978 c 0,0 0.6289,-6.80377 3.24877,-5.14394 2.61988,1.65984 11.10007,2.96997 11.10007,1.62439"
       id="path4699"
       inkscape:connector-curvature="0"
       sodipodi:nodetypes="czc" />
    <path
       style="display:inline;fill:none;stroke:#000000;stroke-width:1.03961468px;stroke-linecap:butt;stroke-linejoin:miter;stroke-opacity:1"
       d="m 140.53422,194.47825 1.35363,3.79028"
       id="path4701"
       inkscape:connector-curvature="0"
       sodipodi:nodetypes="cc" />
    <path
       style="display:inline;fill:none;stroke:#000000;stroke-width:1.03961468px;stroke-linecap:butt;stroke-linejoin:miter;stroke-opacity:1"
       d="m 116.98043,195.83192 c -2.44824,0.2448 8.63606,-1.47382 3.51955,-4.061 -5.11656,-2.58714 -21.05133,-6.26468 -19.76352,-6.49757"
       id="path4703"
       inkscape:connector-curvature="0"
       sodipodi:nodetypes="czc" />
    <path
       style="display:inline;fill:none;stroke:#000000;stroke-width:1.03961468px;stroke-linecap:butt;stroke-linejoin:miter;stroke-opacity:1"
       d="m 181.95636,199.6222 c 2.81448,0 -7.77178,-9.75068 -6.22685,-9.47563 11.52494,2.0517 23.26287,-10.08679 22.47081,-10.82934"
       id="path4705"
       inkscape:connector-curvature="0"
       sodipodi:nodetypes="csc" />
    <path
       style="display:inline;fill:none;stroke:#000000;stroke-width:1.03961468px;stroke-linecap:butt;stroke-linejoin:miter;stroke-opacity:1"
       d="m 198.47109,184.46118 c 6.60487,9.10435 14.32821,6.58679 19.24858,6.03789 4.70347,-0.52472 6.44625,3.36048 11.0735,4.79141"
       id="path4707"
       inkscape:connector-curvature="0"
       sodipodi:nodetypes="csc" />
    <path
       style="display:inline;fill:none;stroke:#000000;stroke-width:1.03961468px;stroke-linecap:butt;stroke-linejoin:miter;stroke-opacity:1"
       d="m 231.22974,187.43923 c 0,0 -21.75132,-1.89982 -24.0952,-4.87321 -2.34391,-2.97336 2.19724,-7.21201 -5.14394,-13.53665 -1.89205,-1.63005 -11.85184,-7.93195 -23.1895,-9.51898 -5.94567,-0.83226 -15.22665,-0.37885 -27.43759,-0.76887"
       id="path4709"
       inkscape:connector-curvature="0"
       sodipodi:nodetypes="czssc" />
    <ellipse
       style="display:inline;opacity:1;fill:#666666;fill-opacity:1;stroke:#000000;stroke-width:1.03961468;stroke-linecap:round;stroke-linejoin:round;stroke-miterlimit:4;stroke-dasharray:none;stroke-opacity:1"
       id="path4515"
       cx="213.3336"
       cy="67.325699"
       rx="4.8188848"
       ry="2.9535098" />
    <ellipse
       style="display:inline;opacity:1;fill:#666666;fill-opacity:1;stroke:#000000;stroke-width:1.03961468;stroke-linecap:round;stroke-linejoin:round;stroke-miterlimit:4;stroke-dasharray:none;stroke-opacity:1"
       id="path4521"
       cx="258.41351"
       cy="85.046761"
       rx="3.8861971"
       ry="2.6426141" />
    <path
       style="display:inline;fill:none;stroke:#000000;stroke-width:1.03961468px;stroke-linecap:butt;stroke-linejoin:miter;stroke-opacity:1"
       d="m 232.03276,66.417566 c -3.83374,2.76566 -8.6829,3.75914 -8.71548,8.284103 -0.0314,4.524962 12.41684,4.604322 18.46337,4.593516 6.04648,-0.01064 13.91301,0.545164 15.23386,-4.974332 1.32086,-5.519495 -5.69337,-9.654598 -10.31012,-11.12233 -4.61676,-1.467729 -10.83786,0.453384 -14.67163,3.219043 z"
       id="path4524"
       inkscape:connector-curvature="0"
       sodipodi:nodetypes="zzzzzz" />
    <path
       style="display:inline;opacity:1;fill:url(#linearGradient4535);fill-opacity:1;stroke:none;stroke-width:0.27073294;stroke-linecap:round;stroke-linejoin:round;stroke-miterlimit:4;stroke-dasharray:none;stroke-opacity:1"
       d="m 234.8443,78.470455 c -5.97943,-0.340745 -9.74365,-1.407538 -10.64726,-3.017427 -0.32415,-0.577344 -0.33477,-0.890564 -0.0624,-1.800163 0.49473,-1.651237 1.46451,-2.612167 4.34175,-4.302072 1.4337,-0.84207 3.42187,-2.056877 4.41817,-2.69957 0.9963,-0.642695 2.39731,-1.41989 3.11343,-1.727098 1.90631,-0.817812 5.40644,-1.597717 7.18011,-1.599894 4.31294,-0.0055 11.02446,3.779289 12.64736,7.131775 0.62259,1.286056 0.75375,3.627183 0.25737,4.593327 -0.5969,1.16186 -1.71417,2.087447 -3.18313,2.637051 -2.63193,0.98473 -9.39421,1.278228 -18.0654,0.784071 z"
       id="path4527"
       inkscape:connector-curvature="0" />
    <path
       style="display:inline;fill:none;stroke:#000000;stroke-width:1.03961468px;stroke-linecap:round;stroke-linejoin:miter;stroke-opacity:1"
       d="m 218.77605,75.626478 c 4.56674,3.181641 -8.22538,8.422176 21.3879,8.392721"
       id="path4545"
       inkscape:connector-curvature="0"
       sodipodi:nodetypes="cc" />
    <path
       style="display:inline;fill:none;stroke:#000000;stroke-width:1.03961468px;stroke-linecap:butt;stroke-linejoin:miter;stroke-opacity:1"
       d="m 223.64922,154.13905 c 0.95266,-4.61605 13.53487,-12.20255 20.03425,-11.64152 6.49941,0.56103 15.49697,5.87787 20.305,10.01713 4.80803,4.13925 -5.49216,8.72168 -14.61962,8.12199 -9.12741,-0.59969 -26.67227,-1.88154 -25.71963,-6.4976 z"
       id="path4547"
       inkscape:connector-curvature="0"
       sodipodi:nodetypes="zzzzz" />
    <path
       style="display:inline;opacity:1;fill:url(#linearGradient4558);fill-opacity:1;stroke:none;stroke-width:0.27073294;stroke-linecap:round;stroke-linejoin:round;stroke-miterlimit:4;stroke-dasharray:none;stroke-opacity:1"
       d="m 244.85918,159.67843 c -9.68565,-0.83272 -15.64637,-1.8953 -18.37366,-3.27541 -0.97398,-0.49284 -1.8858,-1.09043 -2.02632,-1.32797 -0.49253,-0.83263 0.13203,-1.97216 2.21107,-4.03322 2.31999,-2.3001 4.54136,-3.84839 7.7657,-5.41273 3.95463,-1.91862 5.36091,-2.29597 8.52809,-2.2883 2.47696,0.006 3.16281,0.1172 5.33081,0.86431 3.28981,1.13372 7.13906,3.09069 10.69802,5.43887 3.04156,2.00683 5.63051,4.27587 5.62878,4.93329 -0.004,1.74359 -3.68918,3.94892 -8.12098,4.86057 -2.76133,0.56802 -6.85022,0.65254 -11.64151,0.24059 z"
       id="path4550"
       inkscape:connector-curvature="0" />
    <path
       style="display:inline;fill:none;stroke:#000000;stroke-width:1.03961468px;stroke-linecap:round;stroke-linejoin:miter;stroke-opacity:1"
       d="m 222.29557,160.36591 c 1.93409,6.12784 14.43787,5.79645 29.23917,4.061"
       id="path4560"
       inkscape:connector-curvature="0"
       sodipodi:nodetypes="cc" />
    <ellipse
       style="display:inline;opacity:1;fill:#666666;fill-opacity:1;stroke:#000000;stroke-width:1.04061806;stroke-linecap:round;stroke-linejoin:round;stroke-miterlimit:4;stroke-dasharray:none;stroke-opacity:1"
       id="path4567"
       cx="23.24592"
       cy="120.46672"
       rx="8.4286604"
       ry="5.0060849"
       transform="matrix(0.94405688,-0.32978268,0.38773436,0.92177116,0,0)" />
    <ellipse
       transform="matrix(0.98282339,0.1845486,-0.16990393,0.98546063,0,0)"
       ry="5.6724839"
       rx="11.047427"
       cy="92.597107"
       cx="95.778793"
       id="ellipse4569"
       style="display:inline;opacity:1;fill:url(#linearGradient4577);fill-opacity:1;stroke:#000000;stroke-width:1.03967226;stroke-linecap:round;stroke-linejoin:round;stroke-miterlimit:4;stroke-dasharray:none;stroke-opacity:1" />
    <path
       style="display:inline;fill:none;stroke:#000000;stroke-width:1.03961468px;stroke-linecap:round;stroke-linejoin:miter;stroke-opacity:1"
       d="m 52.816719,107.30225 c -1.109502,7.02443 8.930126,0.37311 11.00021,6.12876 1.086682,3.02133 11.161324,5.02099 22.029204,3.88835"
       id="path4579"
       inkscape:connector-curvature="0"
       sodipodi:nodetypes="csc" />
    <ellipse
       style="display:inline;opacity:1;fill:#666666;fill-opacity:1;stroke:#000000;stroke-width:1.03961468;stroke-linecap:round;stroke-linejoin:round;stroke-miterlimit:4;stroke-dasharray:none;stroke-opacity:1"
       id="path4581"
       cx="159.07939"
       cy="90.11068"
       rx="10.204323"
       ry="6.9555268" />
    <path
       style="display:inline;fill:none;stroke:#000000;stroke-width:1.03961468px;stroke-linecap:butt;stroke-linejoin:miter;stroke-opacity:1"
       d="m 87.47052,101.88758 c 6.446295,11.60789 16.63842,11.48697 31.1343,10.5586 14.49592,-0.92838 32.83166,-7.75209 38.71486,-12.724461 5.88315,-4.972383 -3.76577,-16.402193 -8.6635,-18.680583 0,0 -13.85218,-10.541256 -28.42696,-12.182985 -14.57475,-1.641723 -39.204996,21.421551 -32.7587,33.029429 z"
       id="path4583"
       inkscape:connector-curvature="0"
       sodipodi:nodetypes="zzzczz" />
    <path
       style="display:inline;opacity:1;fill:url(#linearGradient4593);fill-opacity:1;stroke:none;stroke-width:0.27073294;stroke-linecap:round;stroke-linejoin:round;stroke-miterlimit:4;stroke-dasharray:none;stroke-opacity:1"
       d="m 102.27536,111.67242 c -6.118484,-1.16922 -10.143099,-3.77919 -13.303828,-8.62762 -1.719354,-2.63737 -2.156645,-4.353283 -1.76081,-6.909293 1.164742,-7.521637 9.19315,-17.057704 19.168038,-22.76767 6.44,-3.686476 11.49541,-4.583984 17.78438,-3.157331 7.43494,1.686608 14.02881,4.699024 22.69069,10.366256 5.60677,3.668354 8.59996,6.787064 10.61786,11.063145 0.73815,1.564143 0.88259,2.186059 0.88519,3.811136 0.002,1.54808 -0.11153,2.097243 -0.56244,2.70734 -1.01732,1.376689 -3.15707,2.794657 -7.28569,4.828097 -8.25066,4.0636 -18.1411,7.04574 -27.9032,8.4133 -4.20717,0.58937 -17.72411,0.77064 -20.33019,0.27265 z"
       id="path4585"
       inkscape:connector-curvature="0" />
    <path
       style="display:inline;fill:none;stroke:#000000;stroke-width:1.03961468px;stroke-linecap:round;stroke-linejoin:miter;stroke-opacity:1"
       d="m 120.49998,116.7779 c 34.31483,3.48634 29.83509,-7.94833 38.44405,-14.34885"
       id="path4595"
       inkscape:connector-curvature="0"
       sodipodi:nodetypes="cc" />
    <ellipse
       style="display:inline;opacity:1;fill:url(#linearGradient4605);fill-opacity:1;stroke:#000000;stroke-width:1.0396446;stroke-linecap:round;stroke-linejoin:round;stroke-miterlimit:4;stroke-dasharray:none;stroke-opacity:1"
       id="path4597"
       cx="158.80273"
       cy="144.20424"
       rx="14.775591"
       ry="8.0923653"
       transform="matrix(0.98748523,-0.15771151,0.14711993,0.98911866,0,0)" />
    <path
       style="display:inline;fill:none;stroke:#000000;stroke-width:1.03961468px;stroke-linecap:round;stroke-linejoin:miter;stroke-opacity:1"
       d="m 187.91248,106.76078 c 25.64647,9.98901 7.69898,26.05554 -18.40985,22.74156"
       id="path4607"
       inkscape:connector-curvature="0"
       sodipodi:nodetypes="cc" />
    <path
       style="display:inline;fill:none;stroke:#000000;stroke-width:1.03961468px;stroke-linecap:round;stroke-linejoin:miter;stroke-opacity:1"
       d="m 174.64657,55.05077 c 16.95308,17.623322 8.04523,20.424203 -5.68538,15.973248 -5.43381,-1.761436 -15.82991,8.051628 -18.40985,-1.895134"
       id="path4609"
       inkscape:connector-curvature="0"
       sodipodi:nodetypes="csc" />
    <path
       style="display:inline;fill:none;stroke:#000000;stroke-width:1.03961468px;stroke-linecap:round;stroke-linejoin:miter;stroke-opacity:1"
       d="m 189.8076,146.2878 c 2.08155,-0.83325 12.3751,0.28596 11.81581,-3.6259 -0.92966,-6.5023 3.40049,-6.45461 10.51625,-5.91496 3.23908,0.24566 -3.34096,-7.65451 -0.32377,-7.70534 2.25485,-0.0381 5.13774,2.69835 7.65662,-3.43055 2.90879,-7.07763 -14.76723,-17.82067 -5.56983,-21.5576"
       id="path4611"
       inkscape:connector-curvature="0"
       sodipodi:nodetypes="cssssc" />
    <path
       style="display:inline;fill:none;stroke:#000000;stroke-width:1.03961468px;stroke-linecap:round;stroke-linejoin:miter;stroke-opacity:1"
       d="m 231.22974,128.69015 c 4.02776,2.1688 4.78025,-2.60801 4.36544,-6.28201 -0.46154,-4.08762 14.88421,4.76106 16.19943,0.004 1.05282,-3.80801 -10.27699,-5.90485 -10.27699,-5.90485"
       id="path4613"
       inkscape:connector-curvature="0"
       sodipodi:nodetypes="cssc" />
    <path
       style="display:inline;fill:none;stroke:#000000;stroke-width:1.03961468px;stroke-linecap:round;stroke-linejoin:miter;stroke-opacity:1"
       d="m 211.737,97.82658 c 2.25628,-8.779546 14.80051,-0.122709 22.47084,10.28786 3.75299,5.09376 37.03253,-1.37644 32.21719,17.86839 -3.55114,14.19244 -17.6737,-2.35543 -18.95129,3.51952 -3.50977,16.13928 -26.19409,1.04564 -29.78063,8.66346 -1.66098,3.52792 -4.11723,17.6836 -16.24397,11.91225"
       id="path4615"
       inkscape:connector-curvature="0"
       sodipodi:nodetypes="cssssc" />
    <path
       style="display:inline;fill:none;stroke:#000000;stroke-width:1.03961468px;stroke-linecap:round;stroke-linejoin:miter;stroke-opacity:1"
       d="m 263.98847,172.5489 c 10.15825,4.66803 -4.98375,10.84407 -5.6854,14.61957 -1.24081,6.67655 19.54981,22.09246 -17.86839,14.34888"
       id="path4617"
       inkscape:connector-curvature="0"
       sodipodi:nodetypes="csc" />
    <path
       style="display:inline;fill:none;stroke:#000000;stroke-width:1.03961468px;stroke-linecap:round;stroke-linejoin:miter;stroke-opacity:1"
       d="m 239.35174,174.17329 c 21.76111,3.25567 7.7468,6.142 6.76833,8.39273 -1.42471,3.27732 20.83239,16.62004 0.54146,15.70251"
       id="path4619"
       inkscape:connector-curvature="0"
       sodipodi:nodetypes="csc" />
    <ellipse
       style="display:inline;opacity:1;fill:#666666;fill-opacity:1;stroke:#000000;stroke-width:1.03961468;stroke-linecap:round;stroke-linejoin:round;stroke-miterlimit:4;stroke-dasharray:none;stroke-opacity:1"
       id="path4621"
       cx="-27.08065"
       cy="66.726173"
       rx="10.017121"
       ry="5.1439271"
       transform="rotate(-12.587176)" />
    <ellipse
       style="display:inline;opacity:1;fill:#787878;fill-opacity:1;stroke:#000000;stroke-width:1.03961468;stroke-linecap:round;stroke-linejoin:round;stroke-miterlimit:4;stroke-dasharray:none;stroke-opacity:1"
       id="path4623"
       cx="-2.1420362"
       cy="73.866714"
       rx="6.2268591"
       ry="3.6548953" />
    <path
       style="display:inline;fill:none;stroke:#000000;stroke-width:1.03961468px;stroke-linecap:round;stroke-linejoin:miter;stroke-opacity:1"
       d="m -28.132447,69.670351 c -4.565281,12.237119 4.737578,8.621531 11.912237,9.746389"
       id="path4625"
       inkscape:connector-curvature="0"
       sodipodi:nodetypes="cc" />
    <path
       style="display:inline;fill:none;stroke:#000000;stroke-width:1.03961468px;stroke-linecap:round;stroke-linejoin:miter;stroke-opacity:1"
       d="m 9.499418,57.487366 c 4.7962,0.253437 7.46511,0.954443 10.239439,3.373782 18.643832,16.258214 7.941567,-9.33865 12.502134,-2.561581 1.542153,2.291645 7.955515,1.846076 4.873209,-5.685393"
       id="path4629"
       inkscape:connector-curvature="0"
       sodipodi:nodetypes="cssc" />
    <path
       style="display:inline;fill:none;stroke:#000000;stroke-width:1.03961468px;stroke-linecap:round;stroke-linejoin:miter;stroke-opacity:1"
       d="M 0.56524705,60.736163 C 22.470701,61.898922 23.78724,76.85143 31.428815,80.22894 c 21.444325,9.478229 16.044938,-3.375644 18.409847,-8.121992 1.81052,-3.63375 11.450666,1.82032 8.392724,-8.934189 -1.433753,-5.042202 15.973003,2.965493 17.868353,-2.165864 1.75355,-4.747428 -9.746393,-11.641518 -9.746393,-11.641518"
       id="path4631"
       inkscape:connector-curvature="0"
       sodipodi:nodetypes="cssssc" />
    <path
       style="display:inline;fill:none;stroke:#000000;stroke-width:1.03961468px;stroke-linecap:round;stroke-linejoin:miter;stroke-opacity:1"
       d="M 49.297169,60.736163 C 57.235275,58.907866 68.34261,57.871871 62.563113,52.614174"
       id="path4633"
       inkscape:connector-curvature="0"
       sodipodi:nodetypes="cc" />
    <path
       style="display:inline;fill:none;stroke:#000000;stroke-width:1.03961468px;stroke-linecap:round;stroke-linejoin:miter;stroke-opacity:1"
       d="m 24.119032,85.37287 c 14.071047,17.09533 34.134041,2.17136 38.985527,1.624397 5.001307,-0.563852 13.694865,11.734818 22.741574,-17.597649 2.427093,-7.869472 20.074627,-1.276654 33.841637,-11.370785 7.75633,-5.687051 34.51176,13.042065 39.52702,4.33173 2.69353,-4.678059 -12.72445,-10.017123 -12.72445,-10.017123"
       id="path4635"
       inkscape:connector-curvature="0"
       sodipodi:nodetypes="cssssc" />
    <path
       style="display:inline;fill:none;stroke:#000000;stroke-width:1.03961468px;stroke-linecap:round;stroke-linejoin:miter;stroke-opacity:1"
       d="m 15.455532,93.224124 c 6.955884,-2.818568 9.620855,14.843846 10.287887,20.034236 0.869509,6.766 20.115534,10.53346 16.243966,18.40986 -3.871579,7.87639 12.23981,3.6995 11.64151,10.82931"
       id="path4639"
       inkscape:connector-curvature="0"
       sodipodi:nodetypes="cszc" />
    <path
       style="display:inline;fill:none;stroke:#000000;stroke-width:1.03961468px;stroke-linecap:butt;stroke-linejoin:miter;stroke-opacity:1"
       d="m -54.122802,55.05077 c 9.446749,4.148398 3.853811,15.159767 5.143903,18.951311 1.290091,3.79154 12.485317,6.210824 9.475668,12.995181 -3.009691,6.78436 6.7446,0.282632 35.195293,5.414662 28.450656,5.132048 19.172196,22.224716 25.99036,27.344036 6.818152,5.11933 16.09826,11.94967 11.912239,18.68058 -4.185998,6.73091 14.478503,7.69534 14.348838,9.47566"
       id="path4641"
       inkscape:connector-curvature="0"
       sodipodi:nodetypes="czzzzzc" />
    <path
       style="display:inline;fill:none;stroke:#000000;stroke-width:1.03961468px;stroke-linecap:butt;stroke-linejoin:miter;stroke-opacity:1"
       d="m 8.957971,111.63397 c -0.204722,-17.354216 -22.096194,-3.8237 -27.61479,-4.60247 -5.518596,-0.77876 -4.815967,-4.72652 -6.226843,-6.49758 -1.152842,-1.447187 -3.841709,2.86204 -11.640017,3.04335 -9.166161,0.21313 -20.672112,-5.395564 -21.389397,-5.479949"
       id="path4643"
       inkscape:connector-curvature="0"
       sodipodi:nodetypes="czssc" />
    <ellipse
       style="display:inline;opacity:1;fill:#666666;fill-opacity:1;stroke:#000000;stroke-width:1.0410279;stroke-linecap:round;stroke-linejoin:round;stroke-miterlimit:4;stroke-dasharray:none;stroke-opacity:1"
       id="path4645"
       cx="47.545792"
       cy="129.49834"
       rx="8.7185774"
       ry="4.2057781"
       transform="matrix(0.97790617,0.20904431,-0.28045992,0.95986574,0,0)" />
    <path
       style="display:inline;fill:none;stroke:#000000;stroke-width:1.03961468px;stroke-linecap:butt;stroke-linejoin:miter;stroke-opacity:1"
       d="m -22.176329,119.75596 c 8.262432,1.43427 25.90863,12.68339 29.509901,17.05618 3.601248,4.37278 -8.650722,14.08396 -16.244001,16.78544 -7.593277,2.70149 -31.929614,-3.36812 -38.173353,-7.30978 -6.2437,-3.94167 -1.495552,-12.21442 3.51955,-16.51472 5.015101,-4.3003 13.125471,-11.45139 21.387903,-10.01712 z"
       id="path4647"
       inkscape:connector-curvature="0"
       sodipodi:nodetypes="zzzzzz" />
    <path
       style="display:inline;opacity:1;fill:url(#linearGradient4657);fill-opacity:1;stroke:none;stroke-width:0.27073294;stroke-linecap:round;stroke-linejoin:round;stroke-miterlimit:4;stroke-dasharray:none;stroke-opacity:1"
       d="m -15.922334,153.56444 c -10.850002,-0.68231 -27.722369,-5.17425 -31.557988,-8.40173 -1.177086,-0.99045 -1.877514,-2.52736 -1.877514,-4.11975 0,-3.97103 3.15295,-8.43194 9.61099,-13.59802 4.839464,-3.87129 8.312569,-5.81499 12.103473,-6.77363 2.822422,-0.71373 4.922882,-0.56804 8.378895,0.58116 6.782716,2.25543 19.78795305,9.97437 24.648828,14.6297 1.673781,1.60301 1.840776,1.8612 1.838461,2.84269 -0.0082,3.35102 -6.44680995,9.48045 -13.669483,13.01244 -2.5643,1.25398 -3.316594,1.49445 -5.414661,1.73086 -1.340112,0.15101 -2.497513,0.2536 -2.571972,0.22798 -0.07466,-0.0256 -0.744514,-0.0849 -1.489029,-0.13171 z"
       id="path4649"
       inkscape:connector-curvature="0" />
    <ellipse
       style="display:inline;opacity:1;fill:#666666;fill-opacity:1;stroke:#000000;stroke-width:1.03961468;stroke-linecap:round;stroke-linejoin:round;stroke-miterlimit:4;stroke-dasharray:none;stroke-opacity:1"
       id="path4659"
       cx="-47.083683"
       cy="155.08661"
       rx="5.9561257"
       ry="5.0085607" />
    <ellipse
       style="display:inline;opacity:1;fill:url(#linearGradient4669);fill-opacity:1;stroke:#000000;stroke-width:1.03961468;stroke-linecap:round;stroke-linejoin:round;stroke-miterlimit:4;stroke-dasharray:none;stroke-opacity:1"
       id="path4661"
       cx="11.394514"
       cy="149.26585"
       rx="11.328263"
       ry="7.8087344" />
    <path
       style="display:inline;fill:none;stroke:#000000;stroke-width:1.03961468px;stroke-linecap:round;stroke-linejoin:miter;stroke-opacity:1"
       d="m 9.499418,159.01224 c 21.079377,0.16283 20.960561,-9.50345 16.785448,-10.28784"
       id="path4671"
       inkscape:connector-curvature="0"
       sodipodi:nodetypes="cc" />
    <path
       style="display:inline;fill:none;stroke:#000000;stroke-width:1.03961468px;stroke-linecap:butt;stroke-linejoin:miter;stroke-opacity:1"
       d="m -12.971426,157.65859 c 0,0.9611 -20.62335,2.39663 -22.470806,-1e-5 -1.847455,-2.39665 -1.454216,19.15872 -23.28306,1.08294"
       id="path4673"
       inkscape:connector-curvature="0"
       sodipodi:nodetypes="czc" />
    <path
       style="display:inline;fill:none;stroke:#000000;stroke-width:1.03961468px;stroke-linecap:butt;stroke-linejoin:miter;stroke-opacity:1"
       d="m 163.00502,151.43172 c 1.97995,-5.77063 -22.29599,-9.90183 -13.2659,-10.28784 9.03013,-0.38602 -9.44266,-16.60521 -15.97324,-11.91227"
       id="path4675"
       inkscape:connector-curvature="0"
       sodipodi:nodetypes="czc" />
    <path
       style="display:inline;fill:none;stroke:#000000;stroke-width:1.03961468px;stroke-linecap:round;stroke-linejoin:miter;stroke-opacity:1"
       d="m 91.2608,128.14868 c 2.915428,-2.59148 9.16173,1.72461 8.93418,5.95614 -0.227505,4.23152 7.77135,-1.1541 10.28784,0.27072 2.51653,1.42483 -0.82459,5.25145 3.79028,5.95614 4.61491,0.70467 24.89346,-10.98775 23.82451,-3.2488 -1.06895,7.73895 10.0449,14.74935 11.64151,13.53665"
       id="path4677"
       inkscape:connector-curvature="0"
       sodipodi:nodetypes="czzzzc" />
    <path
       style="display:inline;fill:none;stroke:#000000;stroke-width:1.03961468px;stroke-linecap:butt;stroke-linejoin:miter;stroke-opacity:1"
       d="m -48.166683,185.00263 c 0.147739,2.80922 9.837669,4.07184 16.650521,1.04954 5.552348,-2.46313 8.011982,-9.49959 11.505715,-6.73494 7.780589,6.1569 21.117141,0.47976 21.117141,-2.70733"
       id="path4679"
       inkscape:connector-curvature="0"
       sodipodi:nodetypes="cssc" />
    <path
       style="display:inline;fill:none;stroke:#000000;stroke-width:1.03961468px;stroke-linecap:butt;stroke-linejoin:miter;stroke-opacity:1"
       d="m -51.686233,201.78808 c 6.27981,-5.09199 17.83028,-13.15836 24.365963,-8.122 3.169099,2.44203 7.548644,-5.96169 11.144578,-7.76357 3.820137,-1.91421 6.698634,1.41535 11.59699,1.26596 12.355575,-0.37681 19.38454,-17.57341 30.051392,-15.70251 10.666828,1.87093 -3.109722,22.64994 0.812176,24.36596 3.921909,1.71607 8.312535,12.45157 7.039066,12.72445"
       id="path4681"
       inkscape:connector-curvature="0"
       sodipodi:nodetypes="cssszzc" />
  </g>
</svg>
