<?xml version="1.0" encoding="UTF-8" standalone="no"?>
<!-- Created with Inkscape (http://www.inkscape.org/) -->

<svg
   xmlns:dc="http://purl.org/dc/elements/1.1/"
   xmlns:cc="http://creativecommons.org/ns#"
   xmlns:rdf="http://www.w3.org/1999/02/22-rdf-syntax-ns#"
   xmlns:svg="http://www.w3.org/2000/svg"
   xmlns="http://www.w3.org/2000/svg"
   xmlns:xlink="http://www.w3.org/1999/xlink"
   xmlns:sodipodi="http://sodipodi.sourceforge.net/DTD/sodipodi-0.dtd"
   xmlns:inkscape="http://www.inkscape.org/namespaces/inkscape"
   width="320mm"
   height="155mm"
   viewBox="0 0 320 155"
   version="1.1"
   id="svg7229"
   inkscape:version="0.92.1 r15371"
   sodipodi:docname="Спад.svg">
  <defs
     id="defs7223">
    <filter
       inkscape:collect="always"
       style="color-interpolation-filters:sRGB"
       id="filter4945"
       x="-0.12471007"
       width="1.24942"
       y="-0.25177446"
       height="1.5035489">
      <feGaussianBlur
         inkscape:collect="always"
         stdDeviation="1.6877289"
         id="feGaussianBlur4947" />
    </filter>
    <linearGradient
       gradientTransform="matrix(1.0007476,0,0,0.99703591,-114.44199,-349.58928)"
       inkscape:collect="always"
       xlink:href="#linearGradient7184"
       id="linearGradient7186"
       x1="281.7114"
       y1="430.47873"
       x2="282.63959"
       y2="440.45697"
       gradientUnits="userSpaceOnUse" />
    <linearGradient
       inkscape:collect="always"
       id="linearGradient7184">
      <stop
         style="stop-color:#808080;stop-opacity:1;"
         offset="0"
         id="stop7180" />
      <stop
         style="stop-color:#4d4d4d;stop-opacity:1"
         offset="1"
         id="stop7182" />
    </linearGradient>
    <linearGradient
       gradientTransform="matrix(1.0007476,0,0,0.99703591,-114.44199,-349.58928)"
       inkscape:collect="always"
       xlink:href="#linearGradient7184"
       id="linearGradient7166"
       x1="148.97752"
       y1="453.4519"
       x2="149.44162"
       y2="459.48526"
       gradientUnits="userSpaceOnUse" />
    <linearGradient
       inkscape:collect="always"
       xlink:href="#linearGradient7184"
       id="linearGradient7154"
       gradientUnits="userSpaceOnUse"
       gradientTransform="matrix(1.0007476,0,0,0.99703591,-114.67423,-350.28337)"
       x1="103.26324"
       y1="431.17487"
       x2="103.95939"
       y2="444.40186" />
  </defs>
  <sodipodi:namedview
     id="base"
     pagecolor="#ffffff"
     bordercolor="#666666"
     borderopacity="1.0"
     inkscape:pageopacity="0.0"
     inkscape:pageshadow="2"
     inkscape:zoom="1.1575153"
     inkscape:cx="619.86769"
     inkscape:cy="281.99756"
     inkscape:document-units="mm"
     inkscape:current-layer="layer1"
     showgrid="false"
     inkscape:window-width="1920"
     inkscape:window-height="1001"
     inkscape:window-x="-9"
     inkscape:window-y="-9"
     inkscape:window-maximized="1" />
  <metadata
     id="metadata7226">
    <rdf:RDF>
      <cc:Work
         rdf:about="">
        <dc:format>image/svg+xml</dc:format>
        <dc:type
           rdf:resource="http://purl.org/dc/dcmitype/StillImage" />
        <dc:title></dc:title>
      </cc:Work>
    </rdf:RDF>
  </metadata>
  <g
     inkscape:label="Layer 1"
     inkscape:groupmode="layer"
     id="layer1"
     transform="translate(42.333336,-55.159966)">
    <rect
       style="display:inline;opacity:1;fill:#a09682;fill-opacity:1;stroke:none;stroke-width:3.61106157;stroke-linecap:round;stroke-linejoin:round;stroke-miterlimit:4;stroke-dasharray:none;stroke-opacity:1"
       id="rect4498"
       width="320"
       height="155"
       x="-42.333336"
       y="55.159966" />
    <path
       style="display:inline;opacity:1;fill:#5a5745;fill-opacity:1;stroke:none;stroke-width:0.23179467;stroke-linecap:round;stroke-linejoin:round;stroke-miterlimit:4;stroke-dasharray:none;stroke-opacity:1"
       d="m 274.10005,208.84376 c -0.0791,-0.47722 -0.14562,-1.54435 -0.14789,-2.37147 -0.008,-2.17759 -0.59433,-5.74232 -1.28837,-7.80231 -0.77729,-2.30682 -2.42101,-5.46678 -3.94307,-7.5804 l -1.20457,-1.67267 0.78719,-1.01609 c 2.46275,-3.17895 3.95055,-7.74365 4.47868,-13.74115 0.13465,-1.52701 0.29086,-3.27199 0.3476,-3.87772 0.0568,-0.60577 0.67246,-2.53187 1.36815,-4.28024 1.83853,-4.62056 2.03706,-5.39654 2.17466,-8.5003 0.23904,-5.3897 -0.88973,-10.22905 -5.08167,-21.7885 l -1.60877,-4.43623 1.07247,-1.56066 c 3.33891,-4.85893 5.5898,-12.06095 6.3564,-20.33838 0.10894,-1.17637 0.20652,20.08746 0.2243,48.87572 l 0.0302,50.95801 h -1.71128 -1.71133 z"
       id="path7210"
       inkscape:connector-curvature="0" />
    <path
       style="display:inline;opacity:1;fill:#5a5745;fill-opacity:1;stroke:none;stroke-width:0.23179467;stroke-linecap:round;stroke-linejoin:round;stroke-miterlimit:4;stroke-dasharray:none;stroke-opacity:1"
       d="m 277.43439,98.552654 c 0,-1.40017 -0.60124,-5.96237 -1.17552,-8.919401 -0.6834,-3.518991 -1.71606,-7.235633 -3.18066,-11.447673 -1.64939,-4.743358 -1.6707,-5.486397 -0.27875,-9.722162 1.32405,-4.029358 1.3815,-5.750218 0.27005,-8.088655 -0.57783,-1.215768 -1.22082,-2.052141 -2.62358,-3.412602 l -1.85814,-1.802195 h 4.53944 4.53943 v 22.210972 c 0,12.216039 -0.0522,22.210972 -0.11612,22.210972 -0.064,0 -0.11611,-0.463154 -0.11611,-1.029256 z"
       id="path7212"
       inkscape:connector-curvature="0" />
    <path
       style="display:inline;fill:none;stroke:#000000;stroke-width:0.99888998px;stroke-linecap:butt;stroke-linejoin:miter;stroke-opacity:1"
       d="m -35.485251,193.90747 c 1.205586,-1.23625 2.396423,-2.45159 3.442811,-3.76726 2.998234,-3.76987 1.592674,-7.87361 2.302621,-10.51265 2.231967,-8.2967 12.107617,-9.28871 29.06383298,-7.87154 5.23023902,0.43708 12.32090302,-2.22595 19.69460102,1.69514 3.346249,1.77946 5.733708,8.57843 7.834844,10.80688 4.109186,4.35826 12.145363,-1.15976 18.762413,-0.772 4.70864,0.27595 9.86698,7.95354 16.07874,11.71166 6.48677,3.92452 14.0051,4.2834 19.16522,6.11338"
       id="path7188"
       inkscape:connector-curvature="0"
       sodipodi:nodetypes="csssssssc" />
    <path
       style="display:inline;fill:none;stroke:#000000;stroke-width:0.99888998px;stroke-linecap:butt;stroke-linejoin:miter;stroke-opacity:1"
       d="m 24.893406,181.64512 c -0.598369,3.09816 0.136164,8.18828 -6.495475,8.45835 -6.402995,0.2607 -8.436955,0.61023 -10.038327,2.79557 -2.315898,3.16039 9.762935,7.43309 3.296963,11.18843"
       id="path7190"
       inkscape:connector-curvature="0"
       sodipodi:nodetypes="cssc" />
    <path
       style="display:inline;fill:none;stroke:#000000;stroke-width:0.99888998px;stroke-linecap:butt;stroke-linejoin:miter;stroke-opacity:1"
       d="m -5.528139,192.28787 c 1.789469,6.9223 -3.007955,8.74036 -6.502323,11.56822"
       id="path7192"
       inkscape:connector-curvature="0"
       sodipodi:nodetypes="cc" />
    <ellipse
       style="display:inline;opacity:1;fill:#333333;fill-opacity:1;stroke:#000000;stroke-width:0.99888998;stroke-linecap:round;stroke-linejoin:round;stroke-miterlimit:4;stroke-dasharray:none;stroke-opacity:1"
       id="path7194"
       cx="-2.8575678"
       cy="180.83533"
       rx="23.338686"
       ry="7.2879782" />
    <ellipse
       style="display:inline;opacity:1;fill:#141414;fill-opacity:1;stroke:none;stroke-width:1.01609528;stroke-linecap:round;stroke-linejoin:round;stroke-miterlimit:4;stroke-dasharray:none;stroke-opacity:1"
       id="path7196"
       cx="-4.5992632"
       cy="182.10785"
       rx="19.981974"
       ry="6.2573628" />
    <path
       style="display:inline;fill:none;stroke:#000000;stroke-width:0.99888998px;stroke-linecap:butt;stroke-linejoin:miter;stroke-opacity:1"
       d="m 265.24704,53.700622 c 15.61144,9.9263 3.14367,13.949014 6.47354,22.458495 13.70336,35.018633 -2.21983,65.369193 -10.13823,56.142353 -9.67843,-11.27774 -16.71996,-17.93628 -22.62173,-18.65208 -9.95391,-1.20725 -6.5547,12.04047 -11.79957,10.37464 -29.75006,-9.44908 -20.94111,-50.502505 -52.01757,-70.786132"
       id="path7086"
       inkscape:connector-curvature="0"
       sodipodi:nodetypes="cssssc" />
    <path
       style="display:inline;fill:none;stroke:#000000;stroke-width:0.99888998px;stroke-linecap:butt;stroke-linejoin:miter;stroke-opacity:1"
       d="m 194.4182,59.484726 c 4.40777,5.827215 8.91307,11.692773 10.64786,18.171882 4.53258,16.928714 14.34911,38.229682 17.5634,30.731592 7.30179,-17.033188 10.39986,-4.74945 11.26713,-0.54832"
       id="path7088"
       inkscape:connector-curvature="0"
       sodipodi:nodetypes="cssc" />
    <path
       style="display:inline;fill:none;stroke:#000000;stroke-width:0.99888998px;stroke-linecap:butt;stroke-linejoin:miter;stroke-opacity:1"
       d="m 269.19488,131.43902 c 4.26409,11.33034 7.78785,20.70328 6.83947,28.23291 -0.59436,4.71854 -3.54686,8.28295 -3.64642,12.11731 -0.23035,8.87329 -2.53977,15.59754 -7.61194,19.23097 -1.95102,1.39762 -1.87192,1.98839 -8.1082,2.55785 -2.16627,0.19777 -9.9798,-4.2732 -16.25617,-11.04741 -4.44835,-4.80116 -8.5614,-9.17923 -19.94597,-13.68644 -5.13576,-2.03322 -14.65541,2.50591 -26.19061,2.28356 -18.47835,-0.35606 -23.13862,-23.73238 -42.59641,-31.5612 -8.35761,-3.36265 -18.09879,-3.65649 -29.25042,-1.18607 -8.69638,1.92649 -18.58834,-0.0919 -29.337528,1.79239 -19.59418,3.43492 -42.01076,-5.69777 -69.184282,-4.41165 -6.204195,0.29353 -10.895146,-3.97718 -14.80432,-5.94169"
       id="path7090"
       inkscape:connector-curvature="0"
       sodipodi:nodetypes="csssssssssssc" />
    <path
       style="display:inline;fill:none;stroke:#000000;stroke-width:0.99888998px;stroke-linecap:butt;stroke-linejoin:miter;stroke-opacity:1"
       d="m 58.333942,63.417897 c 31.00166,17.539726 60.585068,24.626602 57.799598,6.538713 -1.13626,-7.378487 12.74809,4.542189 17.89803,4.631575 5.48721,0.09537 10.08985,-1.352682 13.94149,-3.997934"
       id="path7092"
       inkscape:connector-curvature="0"
       sodipodi:nodetypes="cssc" />
    <path
       style="display:inline;fill:none;stroke:#000000;stroke-width:0.99888998px;stroke-linecap:butt;stroke-linejoin:miter;stroke-opacity:1"
       d="m 73.196372,92.569843 c 4.95201,7.726887 8.71313,10.951767 11.60468,10.871797 3.1311,-0.0868 0.5448,-8.361466 6.74196,-10.365299 3.36082,-1.086633 17.863378,10.840339 22.060668,-1.431946"
       id="path7094"
       inkscape:connector-curvature="0"
       sodipodi:nodetypes="cssc" />
    <path
       style="display:inline;fill:none;stroke:#000000;stroke-width:0.99888998px;stroke-linecap:butt;stroke-linejoin:miter;stroke-opacity:1"
       d="m 124.05383,87.479842 c -0.76615,1.794027 -12.04161,-1.121418 2.00187,12.926638 14.04356,14.04817 6.97932,15.85908 -23.6032,3.66927 -6.393928,-2.54856 2.87016,14.77718 -3.395798,14.11579 C 87.019032,116.92109 68.284382,110.70913 33.124224,72.614018 30.774737,70.068431 26.493,70.175758 23.035627,68.739317"
       id="path7096"
       inkscape:connector-curvature="0"
       sodipodi:nodetypes="czsssc" />
    <path
       style="display:inline;fill:none;stroke:#000000;stroke-width:0.99888998px;stroke-linecap:butt;stroke-linejoin:miter;stroke-opacity:1"
       d="m 9.10208,129.81955 c -19.603109,1.02347 -20.343088,1.68193 -24.848174,-2.54504"
       id="path7114"
       inkscape:connector-curvature="0"
       sodipodi:nodetypes="cc" />
    <path
       style="display:inline;fill:none;stroke:#000000;stroke-width:0.99888998px;stroke-linecap:butt;stroke-linejoin:miter;stroke-opacity:1"
       d="m 263.85369,155.26959 c -1.14027,8.74891 -2.06342,16.06271 -4.19689,20.00054 -3.70481,6.83806 -13.4493,5.04927 -21.07618,-14.63175 -2.85001,-7.35437 -19.88126,0.16142 -27.64934,-3.11407 -8.70962,-3.6726 -13.41643,-14.31411 -26.01159,-22.67308 -4.91762,-3.26372 -11.15423,-4.55274 -16.97521,-7.34538"
       id="path7116"
       inkscape:connector-curvature="0"
       sodipodi:nodetypes="cssssc" />
    <path
       style="display:inline;fill:none;stroke:#000000;stroke-width:0.99888998px;stroke-linecap:butt;stroke-linejoin:miter;stroke-opacity:1"
       d="m 230.18096,182.80198 c -0.82158,9.69985 -11.66531,3.74944 -17.41691,9.71728"
       id="path7118"
       inkscape:connector-curvature="0"
       sodipodi:nodetypes="cc" />
    <path
       style="display:inline;fill:none;stroke:#000000;stroke-width:0.99888998px;stroke-linecap:butt;stroke-linejoin:miter;stroke-opacity:1"
       d="m 223.44644,178.17467 c -1.44444,1.13107 -0.98776,3.23824 -4.05672,3.40208 -4.08562,0.2181 -8.69752,-1.87555 -9.68452,0.66558 -1.49438,3.8473 -2.29619,10.25101 -6.8331,12.48162 -3.87529,1.9053 -8.93554,-8.2584 -16.80556,8.39078 -4.38106,9.26819 -17.3545,-7.53366 -22.92322,-20.72661 -2.79784,-6.62854 -8.5257,-12.9193 -10.92226,-21.02867 -1.39196,-4.70998 -6.90642,-3.09738 -10.51809,-4.93299"
       id="path7120"
       inkscape:connector-curvature="0"
       sodipodi:nodetypes="cssssssc" />
    <path
       style="display:inline;fill:none;stroke:#000000;stroke-width:0.99888998px;stroke-linecap:butt;stroke-linejoin:miter;stroke-opacity:1"
       d="m 266.64042,189.28015 c 8.57381,10.75595 6.00926,16.9077 7.199,23.13647"
       id="path7122"
       inkscape:connector-curvature="0"
       sodipodi:nodetypes="cc" />
    <path
       style="display:inline;fill:none;stroke:#000000;stroke-width:0.99888998px;stroke-linecap:butt;stroke-linejoin:miter;stroke-opacity:1"
       d="m -20.855032,135.14089 c 1.665408,3.61936 3.78538,8.94872 7.657072,8.33954 4.871786,-0.76641 9.80859,-1.63534 14.640888,-0.97024 2.88775,0.39742 5.844151,0.28728 8.456736,1.25228 10.085911,3.72594 11.275574,13.12698 16.496244,10.38632 9.312524,-4.88875 19.022034,-3.25677 28.222404,-1.88693"
       id="path7124"
       inkscape:connector-curvature="0"
       sodipodi:nodetypes="cssssc" />
    <path
       style="display:inline;fill:none;stroke:#000000;stroke-width:0.99888998px;stroke-linecap:butt;stroke-linejoin:miter;stroke-opacity:1"
       d="m 11.424331,86.091633 c 7.013013,-0.877179 3.847787,-6.877305 3.715595,-6.940896 -0.132004,-0.06371 -6.543282,-6.755867 -8.592333,-3.470525 -2.049055,3.28542 -2.820238,5.546978 -2.090016,7.635078 0.730182,2.088061 -0.04615,3.653598 6.966754,2.776343 z"
       id="path7128"
       inkscape:connector-curvature="0"
       sodipodi:nodetypes="zzzzz" />
    <path
       style="display:inline;opacity:1;fill:#666666;fill-opacity:1;stroke:none;stroke-width:0.23179467;stroke-linecap:round;stroke-linejoin:round;stroke-miterlimit:4;stroke-dasharray:none;stroke-opacity:1"
       d="M 5.951417,85.2868 C 5.459219,84.796405 4.8579,82.789679 4.8579,81.637579 c 0,-1.175511 0.693381,-3.09156 1.739883,-4.807925 0.755601,-1.23922 0.930158,-1.391181 1.598612,-1.391181 1.083872,0 2.792057,0.937251 4.812098,2.64021 1.472017,1.240978 1.813752,1.663132 2.062404,2.54801 0.361594,1.286121 0.19517,2.775951 -0.381791,3.423858 -0.909278,1.020932 -2.33114,1.419322 -5.434258,1.52278 -2.494538,0.08325 -2.974064,0.04143 -3.303431,-0.286492 z"
       id="path7132"
       inkscape:connector-curvature="0" />
    <path
       inkscape:connector-curvature="0"
       id="path7148"
       d="M 5.951417,85.2868 C 5.459219,84.796405 4.8579,82.789679 4.8579,81.637579 c 0,-1.175511 0.693381,-3.09156 1.739883,-4.807925 0.755601,-1.23922 0.930158,-1.391181 1.598612,-1.391181 1.083872,0 2.792057,0.937251 4.812098,2.64021 1.472017,1.240978 1.813752,1.663132 2.062404,2.54801 0.361594,1.286121 0.19517,2.775951 -0.381791,3.423858 -0.909278,1.020932 -2.33114,1.419322 -5.434258,1.52278 -2.494538,0.08325 -2.974064,0.04143 -3.303431,-0.286492 z"
       style="display:inline;opacity:1;fill:#666666;fill-opacity:1;stroke:none;stroke-width:0.23179467;stroke-linecap:round;stroke-linejoin:round;stroke-miterlimit:4;stroke-dasharray:none;stroke-opacity:1" />
    <path
       style="display:inline;fill:none;stroke:#000000;stroke-width:0.99888998px;stroke-linecap:butt;stroke-linejoin:miter;stroke-opacity:1"
       d="m -28.750733,87.942566 c 1.87737,-3.670834 5.023533,-7.645709 9.289045,-10.41142 4.265473,-2.765672 9.764373,-2.687347 14.165785,-0.925448 4.40137298,1.761899 12.65515,2.863267 11.843496,8.791868 -0.811656,5.928602 -12.007538,10.35037 -18.81029,10.874105 -6.802752,0.523774 -19.392165,-2.650646 -16.488036,-8.329105 z"
       id="path7150"
       inkscape:connector-curvature="0"
       sodipodi:nodetypes="szzzzs" />
    <path
       inkscape:connector-curvature="0"
       id="path7152"
       d="m -16.855194,95.54704 c -6.505685,-0.757148 -11.727414,-3.424405 -11.727414,-5.990393 0,-1.24516 2.709603,-5.409439 5.132389,-7.887839 4.426526,-4.528001 8.705427,-6.261681 13.726958,-5.561635 1.841853,0.256786 9.58225198,2.753478 11.817811,3.81193 5.013889,2.373848 5.192869,6.568223 0.435994,10.214942 -2.80522202,2.150596 -7.528436,4.188198 -11.728928,5.059866 -2.23178,0.463114 -5.44016,0.611089 -7.65681,0.352934 z"
       style="display:inline;opacity:1;fill:url(#linearGradient7154);fill-opacity:1;stroke:none;stroke-width:0.23179467;stroke-linecap:round;stroke-linejoin:round;stroke-miterlimit:4;stroke-dasharray:none;stroke-opacity:1" />
    <path
       style="display:inline;fill:none;stroke:#000000;stroke-width:0.99888998px;stroke-linecap:butt;stroke-linejoin:miter;stroke-opacity:1"
       d="m 37.665852,100.43622 c -3.68156,-0.852903 -11.393173,4.98901 -13.701317,7.86638 -2.183326,2.72171 6.098629,2.34372 9.753479,2.545 3.654818,0.20129 9.788578,-1.03433 10.682388,-4.16455 0.89376,-3.13017 -3.053,-5.39392 -6.73455,-6.24683 z"
       id="path7156"
       inkscape:connector-curvature="0"
       sodipodi:nodetypes="zszzz" />
    <path
       style="display:inline;opacity:1;fill:url(#linearGradient7166);fill-opacity:1;stroke:none;stroke-width:0.23179467;stroke-linecap:round;stroke-linejoin:round;stroke-miterlimit:4;stroke-dasharray:none;stroke-opacity:1"
       d="m 26.803229,109.90093 c -0.766342,-0.10083 -1.687762,-0.29626 -2.047652,-0.43364 l -0.654272,-0.24975 0.500972,-0.70091 c 1.094311,-1.5311 5.586385,-4.95938 8.275526,-6.31577 0.65881,-0.33222 1.817349,-0.77576 2.574569,-0.98548 1.28551,-0.35607 1.46691,-0.35528 2.73785,0.0117 3.32534,0.96304 5.41816,2.58221 5.61774,4.34622 0.10288,0.90801 0.0302,1.12055 -0.64291,1.88435 -0.94657,1.07408 -2.08744,1.6616 -4.34203,2.23607 -1.4665,0.37365 -2.49942,0.44361 -6.193228,0.41918 -2.438257,-0.0156 -5.060223,-0.11178 -5.826565,-0.21301 z"
       id="path7158"
       inkscape:connector-curvature="0" />
    <path
       style="display:inline;fill:none;stroke:#000000;stroke-width:0.99888998px;stroke-linecap:butt;stroke-linejoin:miter;stroke-opacity:1"
       d="M -4.831467,100.20488 C 9.490905,99.693771 12.678143,94.644302 13.514345,88.636632"
       id="path7168"
       inkscape:connector-curvature="0"
       sodipodi:nodetypes="cc" />
    <path
       style="display:inline;fill:none;stroke:#000000;stroke-width:0.99888998px;stroke-linecap:butt;stroke-linejoin:miter;stroke-opacity:1"
       d="m 29.770145,115.24358 c 37.560847,1.40286 14.274527,-8.42049 20.900347,-12.72508"
       id="path7170"
       inkscape:connector-curvature="0"
       sodipodi:nodetypes="cc" />
    <path
       style="display:inline;fill:none;stroke:#000000;stroke-width:0.99888998px;stroke-linecap:butt;stroke-linejoin:miter;stroke-opacity:1"
       d="m 172.12455,96.965776 c 19.07729,-0.02736 13.6111,-6.795539 16.25581,-11.336867"
       id="path7172"
       inkscape:connector-curvature="0"
       sodipodi:nodetypes="cc" />
    <ellipse
       style="display:inline;opacity:1;fill:#666666;fill-opacity:1;stroke:#000000;stroke-width:0.99889076;stroke-linecap:round;stroke-linejoin:round;stroke-miterlimit:4;stroke-dasharray:none;stroke-opacity:1"
       id="path7174"
       cx="159.93741"
       cy="50.358292"
       rx="5.4562445"
       ry="3.3554397"
       transform="matrix(0.97360628,0.22823411,-0.22984705,0.97322676,0,0)" />
    <path
       style="display:inline;fill:none;stroke:#000000;stroke-width:0.99888998px;stroke-linecap:butt;stroke-linejoin:miter;stroke-opacity:1"
       d="m 152.15312,89.330737 c 0.0227,-5.207097 8.08475,-11.065698 13.23688,-11.56821 5.15217,-0.502512 13.196,3.67572 16.48803,7.172316 3.96092,4.206959 -10.14615,9.68206 -15.09469,8.560447 -4.94853,-1.121653 -14.65337,1.042544 -14.63022,-4.164553 z"
       id="path7176"
       inkscape:connector-curvature="0"
       sodipodi:nodetypes="zzszz" />
    <path
       style="display:inline;opacity:1;fill:url(#linearGradient7186);fill-opacity:1;stroke:none;stroke-width:0.23179467;stroke-linecap:round;stroke-linejoin:round;stroke-miterlimit:4;stroke-dasharray:none;stroke-opacity:1"
       d="m 166.04632,92.794345 c -0.57477,-0.110219 -1.98552,-0.209885 -3.13505,-0.22161 -1.14949,-0.01173 -3.26386,-0.117646 -4.6986,-0.236072 -4.20756,-0.346681 -5.56829,-1.223351 -5.35368,-3.448716 0.17247,-1.786679 1.01321,-3.206391 3.18394,-5.375475 3.33671,-3.334237 6.95602,-5.093635 10.46785,-5.088593 4.02054,0.0078 10.77598,3.002057 14.25372,6.321989 1.42827,1.363431 1.44998,2.095057 0.10516,3.548422 -1.18558,1.28143 -4.69269,3.061895 -7.74059,3.929652 -2.27894,0.648846 -5.37438,0.897971 -7.08287,0.570168 z"
       id="path7178"
       inkscape:connector-curvature="0" />
    <path
       transform="matrix(0.63903679,0.62696251,-1.5298129,0.09169375,381.04785,188.27189)"
       style="display:inline;opacity:1;fill:#837863;fill-opacity:1;stroke:none;stroke-width:0.17571242;stroke-linecap:round;stroke-linejoin:round;stroke-miterlimit:4;stroke-dasharray:none;stroke-opacity:1;filter:url(#filter4945)"
       d="m -24.928202,220.11561 c -3.016351,-0.24958 -5.771423,-0.88225 -6.808856,-1.56357 -0.554998,-0.36449 -0.658922,-0.53045 -0.658922,-1.05224 0,-0.96737 0.626354,-1.97891 2.174894,-3.51237 3.850913,-3.81342 13.196897,-8.60735 18.843037,-9.66534 2.1752901,-0.40761 2.6987101,-0.27562 3.4612401,0.87283 0.78871,1.18789 1.49078,2.58335 2.39971,4.76979 1.30497,3.1391 2.6085,5.04971 4.58637001,6.72234 l 1.01448,0.85792 -0.5974,0.28488 c -1.86477001,0.88925 -7.41588001,1.78485 -13.78395111,2.22386 -2.339073,0.16126 -8.963574,0.19983 -10.630602,0.0619 z"
       id="path7198"
       inkscape:connector-curvature="0" />
    <path
       style="display:inline;fill:none;stroke:#000000;stroke-width:0.99888998px;stroke-linecap:butt;stroke-linejoin:miter;stroke-opacity:1"
       d="m 39.523662,176.55512 c 5.31361,-1.61369 15.13399,-3.70906 15.53212,-19.23527 0.0821,-3.19501 4.98072,-4.17162 8.25204,-5.4502 5.803,-2.26816 10.32707,-6.92385 16.98129,-7.24927 4.48236,-0.21927 8.37806,0.49614 11.66428,6.05296 1.98011,3.34835 3.30457,8.84045 3.79065,17.13352 0.20954,3.57309 4.390788,6.19083 6.760808,9.99748 2.82115,4.53129 10.49073,4.04245 16.38346,7.06666 6.28128,3.22371 13.9615,3.89719 21.42131,6.49147"
       id="path7200"
       inkscape:connector-curvature="0"
       sodipodi:nodetypes="csssssssc" />
    <path
       style="display:inline;fill:none;stroke:#000000;stroke-width:0.99888998px;stroke-linecap:butt;stroke-linejoin:miter;stroke-opacity:1"
       d="m 88.755492,159.66552 c -3.89594,2.65413 -7.33326,9.08649 -15.09466,6.70959 -11.15521,-3.41627 4.9619,16.2268 0,26.83825"
       id="path7202"
       inkscape:connector-curvature="0"
       sodipodi:nodetypes="csc" />
    <path
       inkscape:connector-curvature="0"
       id="path7204"
       d="m -24.928202,220.11561 c -3.016351,-0.24958 -5.771423,-0.88225 -6.808856,-1.56357 -0.554998,-0.36449 -0.658922,-0.53045 -0.658922,-1.05224 0,-0.96737 0.626354,-1.97891 2.174894,-3.51237 3.850913,-3.81342 13.196897,-8.60735 18.843037,-9.66534 2.1752901,-0.40761 2.6987101,-0.27562 3.4612401,0.87283 0.78871,1.18789 1.49078,2.58335 2.39971,4.76979 1.30497,3.1391 2.6085,5.04971 4.58637001,6.72234 l 1.01448,0.85792 -0.5974,0.28488 c -1.86477001,0.88925 -7.41588001,1.78485 -13.78395111,2.22386 -2.339073,0.16126 -8.963574,0.19983 -10.630602,0.0619 z"
       style="display:inline;opacity:1;fill:#837863;fill-opacity:1;stroke:none;stroke-width:0.17571242;stroke-linecap:round;stroke-linejoin:round;stroke-miterlimit:4;stroke-dasharray:none;stroke-opacity:1;filter:url(#filter4945)"
       transform="matrix(0.44666707,0.94568886,-2.5372177,-0.74508916,651.11663,363.43041)" />
    <path
       style="display:inline;fill:none;stroke:#000000;stroke-width:0.99888998px;stroke-linecap:butt;stroke-linejoin:miter;stroke-opacity:1"
       d="m 59.495052,160.59101 c -2.25786,-4.30483 23.31296,-16.28312 27.86711,-11.10553 4.5541,5.17763 -7.31455,11.80792 -9.52129,9.71732 -2.20669,-2.0906 -16.08794,5.69303 -18.34582,1.38821 z"
       id="path7206"
       inkscape:connector-curvature="0"
       sodipodi:nodetypes="zzzz" />
    <path
       style="display:inline;opacity:1;fill:#282828;fill-opacity:1;stroke:none;stroke-width:0.23179467;stroke-linecap:round;stroke-linejoin:round;stroke-miterlimit:4;stroke-dasharray:none;stroke-opacity:1"
       d="m 60.940862,161.02582 c -1.36336,-0.59127 -1.1749,-1.55494 0.6433,-3.28975 2.95028,-2.81488 10.34811,-6.47747 16.33251,-8.08608 2.98885,-0.80335 7.27857,-0.93444 8.32224,-0.25444 0.83813,0.54621 1.54539,1.72391 1.54648,2.57509 0.002,1.85055 -2.48009,4.61196 -5.40633,6.01393 -2.17051,1.03992 -3.38317,1.24254 -4.20928,0.70321 -0.97498,-0.63646 -3.52738,-0.33222 -7.91658,0.94354 -5.66509,1.64672 -7.94384,1.98793 -9.31234,1.39439 z"
       id="path7208"
       inkscape:connector-curvature="0" />
  </g>
</svg>
