<?xml version="1.0" encoding="UTF-8" standalone="no"?>
<!-- Created with Inkscape (http://www.inkscape.org/) -->

<svg
   xmlns:dc="http://purl.org/dc/elements/1.1/"
   xmlns:cc="http://creativecommons.org/ns#"
   xmlns:rdf="http://www.w3.org/1999/02/22-rdf-syntax-ns#"
   xmlns:svg="http://www.w3.org/2000/svg"
   xmlns="http://www.w3.org/2000/svg"
   xmlns:xlink="http://www.w3.org/1999/xlink"
   xmlns:sodipodi="http://sodipodi.sourceforge.net/DTD/sodipodi-0.dtd"
   xmlns:inkscape="http://www.inkscape.org/namespaces/inkscape"
   width="320.00018mm"
   height="155.00044mm"
   viewBox="0 0 320.00018 155.00044"
   version="1.1"
   id="svg5039"
   inkscape:version="0.92.1 r15371"
   sodipodi:docname="шипы1.svg">
  <defs
     id="defs5033">
    <filter
       inkscape:collect="always"
       style="color-interpolation-filters:sRGB"
       id="filter4945"
       x="-0.12471007"
       width="1.24942"
       y="-0.25177446"
       height="1.5035489">
      <feGaussianBlur
         inkscape:collect="always"
         stdDeviation="1.6877289"
         id="feGaussianBlur4947" />
    </filter>
    <linearGradient
       gradientTransform="matrix(1.0000031,0,0,0.9987487,58.956742,-57.848241)"
       inkscape:collect="always"
       xlink:href="#linearGradient4762"
       id="linearGradient4764"
       x1="123.84521"
       y1="139.4521"
       x2="124.02092"
       y2="144.02063"
       gradientUnits="userSpaceOnUse" />
    <linearGradient
       inkscape:collect="always"
       id="linearGradient4762">
      <stop
         style="stop-color:#808080;stop-opacity:1;"
         offset="0"
         id="stop4758" />
      <stop
         style="stop-color:#4d4d4d;stop-opacity:1"
         offset="1"
         id="stop4760" />
    </linearGradient>
    <linearGradient
       gradientTransform="matrix(1.0000031,0,0,0.9987487,58.956742,-57.848241)"
       inkscape:collect="always"
       xlink:href="#linearGradient4762"
       id="linearGradient4750"
       x1="197.293"
       y1="212.8999"
       x2="197.99585"
       y2="216.58986"
       gradientUnits="userSpaceOnUse" />
    <linearGradient
       gradientTransform="matrix(1.0000031,0,0,0.9987487,-123.11393,-164.79676)"
       inkscape:collect="always"
       xlink:href="#linearGradient4762"
       id="linearGradient4716"
       x1="171.49533"
       y1="372.3447"
       x2="171.49533"
       y2="385.17172"
       gradientUnits="userSpaceOnUse" />
    <linearGradient
       gradientTransform="matrix(1.0000031,0,0,0.9987487,58.956742,-57.848241)"
       inkscape:collect="always"
       xlink:href="#linearGradient4762"
       id="linearGradient4704"
       x1="-42.37875"
       y1="277.91348"
       x2="-42.554462"
       y2="283.36057"
       gradientUnits="userSpaceOnUse" />
    <linearGradient
       gradientTransform="matrix(1.0000031,0,0,0.9987487,-123.11393,-164.79676)"
       inkscape:collect="always"
       xlink:href="#linearGradient4762"
       id="linearGradient4686"
       x1="93.505249"
       y1="256.84573"
       x2="96.332626"
       y2="267.34741"
       gradientUnits="userSpaceOnUse" />
  </defs>
  <sodipodi:namedview
     id="base"
     pagecolor="#ffffff"
     bordercolor="#666666"
     borderopacity="1.0"
     inkscape:pageopacity="0.0"
     inkscape:pageshadow="2"
     inkscape:zoom="0.93"
     inkscape:cx="629.51535"
     inkscape:cy="257.78148"
     inkscape:document-units="mm"
     inkscape:current-layer="layer2"
     showgrid="false"
     inkscape:window-width="1920"
     inkscape:window-height="1001"
     inkscape:window-x="-9"
     inkscape:window-y="-9"
     inkscape:window-maximized="1" />
  <metadata
     id="metadata5036">
    <rdf:RDF>
      <cc:Work
         rdf:about="">
        <dc:format>image/svg+xml</dc:format>
        <dc:type
           rdf:resource="http://purl.org/dc/dcmitype/StillImage" />
        <dc:title></dc:title>
      </cc:Work>
    </rdf:RDF>
  </metadata>
  <g
     inkscape:groupmode="layer"
     id="layer2"
     inkscape:label="Layer 2"
     style="display:inline"
     transform="translate(-0.28536695,-0.57753605)">
    <rect
       style="display:inline;opacity:1;fill:#a09682;fill-opacity:1;stroke:none;stroke-width:3.61106753;stroke-linecap:round;stroke-linejoin:round;stroke-miterlimit:4;stroke-dasharray:none;stroke-opacity:1"
       id="rect4498"
       width="320.00018"
       height="155.00044"
       x="0.28536695"
       y="0.57753605" />
    <path
       style="display:inline;opacity:1;fill:#837863;fill-opacity:1;stroke:none;stroke-width:0.17571272;stroke-linecap:round;stroke-linejoin:round;stroke-miterlimit:4;stroke-dasharray:none;stroke-opacity:1"
       d="m 310.2519,66.206359 c -7.86411,-4.444483 -12.55609,-7.826961 -13.48181,-9.719089 -0.80833,-1.652165 -0.3462,-2.422075 2.91413,-4.855281 1.45935,-1.089105 2.12141,-1.488095 2.23249,-1.345365 0.44074,0.566511 11.98153,17.673819 11.98153,17.760627 0,0.200996 -0.31333,0.04278 -3.64634,-1.840892 z"
       id="path4983"
       inkscape:connector-curvature="0" />
    <path
       style="display:inline;opacity:1;fill:#736853;fill-opacity:1;stroke:none;stroke-width:0.17571272;stroke-linecap:round;stroke-linejoin:round;stroke-miterlimit:4;stroke-dasharray:none;stroke-opacity:1"
       d="m 319.60892,71.904044 c -0.28989,-0.24703 -1.10718,-0.834983 -1.81611,-1.306624 l -1.28893,-0.857512 -6.98045,-10.328039 -6.98041,-10.328037 -0.2109,-1.288596 c -0.19956,-1.221014 -0.60382,-2.323565 -2.03966,-5.564214 -0.66538,-1.501754 -0.81309,-2.701897 -0.37719,-3.06378 0.30386,-0.252322 -0.80067,-1.717374 10.97514,14.55519 l 9.33314,12.897107 v 2.87313 c 0,1.580213 -0.0189,2.870276 -0.0439,2.866805 -0.0227,-0.003 -0.2812,-0.208403 -0.57105,-0.45543 z"
       id="path4985"
       inkscape:connector-curvature="0" />
    <path
       style="display:inline;opacity:1;fill:#736853;fill-opacity:1;stroke:none;stroke-width:0.17571272;stroke-linecap:round;stroke-linejoin:round;stroke-miterlimit:4;stroke-dasharray:none;stroke-opacity:1"
       d="m 310.47474,51.183097 c -5.31372,-7.339689 -9.89599,-13.810909 -10.18284,-14.380491 -0.64741,-1.285563 -1.76093,-2.194806 -4.1056,-3.352409 -4.40716,-2.175916 -9.40177,-3.75991 -25.77693,-8.174933 -12.68209,-3.419313 -17.7594,-4.943073 -21.78834,-6.538933 -2.13936,-0.84739 -4.33588,-1.97173 -4.75348,-2.43319 -0.29518,-0.32597 -0.29367,-0.3581 0.0265,-0.7198 0.18406,-0.20824 0.96729,-0.67648 1.74044,-1.04054 3.65083,-1.71909 12.41443,-3.57242 23.98474,-5.0723002 7.66938,-0.99419 21.89006,-2.26686 22.16573,-1.98371 0.0692,0.0708 6.49751,11.0208102 14.28557,24.3333022 l 14.16017,24.204508 -0.0473,4.251689 -0.0473,4.251694 z"
       id="path4987"
       inkscape:connector-curvature="0" />
    <path
       style="display:inline;opacity:1;fill:#736853;fill-opacity:1;stroke:none;stroke-width:0.17571272;stroke-linecap:round;stroke-linejoin:round;stroke-miterlimit:4;stroke-dasharray:none;stroke-opacity:1"
       d="m 311.35042,66.828952 c -1.06307,-0.617123 -2.19259,-1.241867 -2.51006,-1.388327 -0.31748,-0.146457 -0.69873,-0.387762 -0.84718,-0.536241 -0.14854,-0.148498 -0.38294,-0.269972 -0.52098,-0.269972 -0.13795,0 -0.25096,-0.0737 -0.25096,-0.163881 0,-0.0901 -0.17423,-0.219175 -0.38717,-0.286754 -0.21279,-0.06762 -0.49535,-0.231081 -0.62755,-0.363289 -0.13229,-0.132209 -0.35339,-0.240379 -0.49142,-0.240379 -0.13796,0 -0.25096,-0.0776 -0.25096,-0.172347 0,-0.09479 -0.19767,-0.221972 -0.43926,-0.282633 -0.24151,-0.06058 -0.43929,-0.180738 -0.43929,-0.266911 0,-0.08621 -0.0783,-0.156663 -0.17386,-0.156663 -0.0956,0 -0.33525,-0.138368 -0.53284,-0.307502 -0.19767,-0.169135 -0.39768,-0.285998 -0.44481,-0.25973 -0.0473,0.02645 -0.30085,-0.151636 -0.56361,-0.395351 -0.26267,-0.243705 -0.57751,-0.443113 -0.69928,-0.443113 -0.1217,0 -0.22148,-0.0791 -0.22148,-0.175711 0,-0.0966 -0.11868,-0.175711 -0.26343,-0.175711 -0.14477,0 -0.26345,-0.07381 -0.26345,-0.16388 0,-0.0901 -0.13832,-0.209501 -0.30764,-0.265248 -0.16894,-0.05579 -0.57521,-0.337853 -0.90237,-0.626833 -0.3273,-0.288984 -0.6491,-0.525454 -0.71535,-0.525454 -0.30085,0 -2.42846,-2.315874 -2.71865,-2.959379 -0.52536,-1.164989 -0.3258,-1.865342 0.87201,-3.058795 0.55767,-0.555693 1.06121,-1.011604 1.11897,-1.013154 0.0578,-0.002 0.38181,-0.246842 0.72004,-0.54507 0.33826,-0.298243 0.83244,-0.654834 1.09821,-0.792414 0.26571,-0.137575 0.48322,-0.331843 0.48322,-0.431722 0,-0.09989 0.0745,-0.135609 0.16516,-0.07949 0.0907,0.0562 0.26533,-0.0049 0.38808,-0.136516 0.18331,-0.196423 0.95192,0.836184 4.34506,5.838596 2.26719,3.34246 4.55941,6.749309 5.09375,7.570769 0.53439,0.821452 1.03503,1.519915 1.11258,1.552128 0.0775,0.03213 0.14098,0.170609 0.14098,0.307503 0,0.136895 0.079,0.24892 0.17575,0.24892 0.0968,0 0.17575,0.118603 0.17575,0.263548 0,0.144983 0.079,0.263585 0.17575,0.263585 0.0968,0 0.17574,0.118601 0.17574,0.263584 0,0.144946 0.079,0.263586 0.17575,0.263586 0.0968,0 0.17575,0.118601 0.17575,0.263584 0,0.144946 0.079,0.263586 0.17575,0.263586 0.0968,0 0.17575,0.118602 0.17575,0.263585 0,0.426679 -0.33412,0.302741 -2.37215,-0.880455 z"
       id="path4989"
       inkscape:connector-curvature="0" />
    <path
       style="display:inline;opacity:1;fill:#655e4d;fill-opacity:1;stroke:none;stroke-width:0.17571272;stroke-linecap:round;stroke-linejoin:round;stroke-miterlimit:4;stroke-dasharray:none;stroke-opacity:1"
       d="m 319.58087,71.937845 c -0.45305,-0.433151 -0.5707,-0.521263 -1.83802,-1.376716 -1.00928,-0.681269 -1.91176,-1.570536 -1.91176,-1.883783 0,-0.09752 -0.079,-0.177223 -0.17575,-0.177223 -0.0968,0 -0.17575,-0.118601 -0.17575,-0.263585 0,-0.144945 -0.079,-0.263585 -0.17575,-0.263585 -0.0968,0 -0.17574,-0.08031 -0.17574,-0.178394 0,-0.269897 -1.25628,-2.105857 -1.44095,-2.105857 -0.0888,0 -0.11188,-0.0796 -0.0518,-0.176958 0.0601,-0.09729 -0.0151,-0.22424 -0.16441,-0.281991 -0.15042,-0.05779 -0.22979,-0.176353 -0.17575,-0.263585 0.0541,-0.08719 -0.0265,-0.205984 -0.17688,-0.263963 -0.15118,-0.05798 -0.27477,-0.215547 -0.27477,-0.350174 0,-0.134627 -0.079,-0.244763 -0.17575,-0.244763 -0.0968,0 -0.17575,-0.118601 -0.17575,-0.263584 0,-0.144946 -0.079,-0.263586 -0.17574,-0.263586 -0.0968,0 -0.17575,-0.118602 -0.17575,-0.263585 0,-0.144945 -0.079,-0.263546 -0.17576,-0.263546 -0.0968,0 -0.17574,-0.08031 -0.17574,-0.178433 0,-0.269859 -1.25627,-2.105853 -1.44094,-2.105853 -0.0888,0 -0.11188,-0.0796 -0.0518,-0.176957 0.0601,-0.09729 -0.0151,-0.224203 -0.1644,-0.281992 -0.15044,-0.05779 -0.22943,-0.176354 -0.17575,-0.263585 0.0541,-0.0872 -0.0265,-0.205796 -0.17575,-0.263585 -0.15043,-0.05779 -0.2298,-0.176353 -0.17575,-0.263585 0.0541,-0.0872 -0.0265,-0.205796 -0.17575,-0.263547 -0.15042,-0.05779 -0.22941,-0.176353 -0.17575,-0.263585 0.0541,-0.0872 -0.0265,-0.205796 -0.17574,-0.263585 -0.15043,-0.05779 -0.23282,-0.170949 -0.18331,-0.251528 0.0499,-0.08062 -0.0227,-0.210671 -0.16441,-0.289097 -0.14022,-0.07839 -0.27288,-0.22167 -0.2948,-0.318313 -0.076,-0.334981 -1.26566,-2.020696 -1.42606,-2.020696 -0.0888,0 -0.11188,-0.0796 -0.0518,-0.176958 0.0601,-0.09729 -0.0151,-0.224202 -0.16442,-0.281992 -0.15042,-0.05779 -0.22979,-0.176352 -0.17575,-0.263584 0.0541,-0.0872 -0.0265,-0.205796 -0.17575,-0.263547 -0.15042,-0.05779 -0.22979,-0.176391 -0.17574,-0.263586 0.054,-0.08719 -0.0265,-0.205795 -0.17575,-0.263584 -0.15043,-0.05779 -0.22942,-0.176354 -0.17575,-0.263585 0.0541,-0.0872 -0.0265,-0.205796 -0.17574,-0.263585 -0.15043,-0.05779 -0.23283,-0.170949 -0.18331,-0.251528 0.0499,-0.08058 -0.0495,-0.22802 -0.22073,-0.327687 -0.17121,-0.09959 -0.24755,-0.183571 -0.17007,-0.18652 0.19011,-0.0071 -1.65775,-2.641039 -1.853,-2.641039 -0.0847,0 -0.10469,-0.0796 -0.0446,-0.176958 0.0601,-0.09729 -0.0151,-0.224202 -0.16441,-0.281991 -0.15043,-0.05779 -0.22942,-0.176391 -0.17576,-0.263586 0.0541,-0.08719 -0.0227,-0.204057 -0.16554,-0.259692 -0.14513,-0.0556 -0.22072,-0.213203 -0.16819,-0.350173 0.0525,-0.13697 0.0113,-0.249034 -0.0885,-0.249034 -0.10129,0 -0.16516,-0.217437 -0.14211,-0.483214 0.0559,-0.64389 -0.49216,-2.474135 -1.20643,-4.02918 -0.3186,-0.693943 -0.53449,-1.306745 -0.47943,-1.361783 0.0548,-0.05499 0.008,-0.10005 -0.10506,-0.10005 -0.11263,0 -0.19011,-0.0593 -0.1716,-0.131792 0.0404,-0.16063 -0.60166,-2.205175 -0.73138,-2.328195 -0.14853,-0.141053 -0.0952,-0.587741 0.11415,-0.954243 0.18746,-0.328102 0.21165,-0.324435 0.7305,0.112252 0.29519,0.248316 0.49013,0.497962 0.43333,0.554761 -0.0567,0.0568 0.0265,0.153109 0.18558,0.214035 0.15873,0.06088 0.28875,0.223409 0.28875,0.361097 0,0.137651 0.1183,0.295636 0.26268,0.351044 0.14437,0.05541 0.22714,0.157985 0.18406,0.227944 -0.0431,0.07 0.14362,0.370395 0.41503,0.66764 0.27136,0.297261 0.54206,0.666643 0.60125,0.820844 0.0593,0.154205 0.18897,0.280366 0.28875,0.280366 0.0998,0 0.18142,0.118601 0.18142,0.263584 0,0.144946 0.079,0.263586 0.17575,0.263586 0.0968,0 0.17574,0.121097 0.17574,0.269066 0,0.148006 0.11868,0.314608 0.26344,0.370205 0.14513,0.0556 0.26344,0.177412 0.26344,0.270615 0,0.09321 0.0986,0.279686 0.21958,0.414381 0.44766,0.499213 0.59161,0.703833 0.70617,1.003902 0.0646,0.169134 0.19881,0.307503 0.29859,0.307503 0.0998,0 0.18104,0.0847 0.18104,0.188259 0,0.103559 0.0986,0.29847 0.21958,0.433181 0.44769,0.499201 0.59165,0.703833 0.70621,1.003893 0.0646,0.169135 0.19881,0.307504 0.29859,0.307504 0.0998,0 0.18141,0.118601 0.18141,0.263584 0,0.144946 0.079,0.263586 0.17575,0.263586 0.0968,0 0.17575,0.121058 0.17575,0.269066 0,0.148006 0.11868,0.314608 0.26343,0.370204 0.14514,0.0556 0.26343,0.175107 0.26343,0.265475 0,0.150993 0.10998,0.30996 0.62484,0.902381 0.10205,0.117468 0.2381,0.351913 0.30198,0.521043 0.0639,0.169134 0.19804,0.307503 0.29782,0.307503 0.0998,0 0.18142,0.118602 0.18142,0.263585 0,0.144983 0.079,0.263585 0.17576,0.263585 0.0968,0 0.17574,0.121097 0.17574,0.269066 0,0.148006 0.11867,0.314608 0.26343,0.370243 0.14476,0.0556 0.26344,0.202848 0.26344,0.327119 0,0.124271 0.11867,0.271484 0.26343,0.327119 0.14514,0.0556 0.26344,0.222237 0.26344,0.370206 0,0.148006 0.079,0.269103 0.17574,0.269103 0.0968,0 0.17575,0.121097 0.17575,0.269065 0,0.148007 0.11868,0.314609 0.26343,0.370244 0.14513,0.0556 0.26343,0.192302 0.26343,0.303761 0,0.111458 0.1818,0.399509 0.40442,0.640122 0.22261,0.240605 0.45713,0.575862 0.5216,0.744992 0.0646,0.169134 0.19881,0.307503 0.29859,0.307503 0.0998,0 0.18104,0.0847 0.18104,0.188259 0,0.103559 0.0987,0.29847 0.21959,0.433184 0.44769,0.499202 0.59161,0.70383 0.70616,1.00389 0.0646,0.169135 0.19881,0.307504 0.29859,0.307504 0.0998,0 0.18142,0.118601 0.18142,0.263584 0,0.144946 0.079,0.263586 0.17574,0.263586 0.0968,0 0.17576,0.121097 0.17576,0.269065 0,0.148007 0.11867,0.314609 0.26343,0.370206 0.14475,0.0556 0.26343,0.19234 0.26343,0.303799 0,0.111458 0.1818,0.399512 0.40441,0.640133 0.22223,0.240605 0.45718,0.575851 0.52161,0.744981 0.0646,0.169134 0.19881,0.307503 0.29859,0.307503 0.0998,0 0.18141,0.118602 0.18141,0.263585 0,0.144984 0.079,0.263585 0.17575,0.263585 0.0968,0 0.17575,0.121097 0.17575,0.269103 0,0.148007 0.11868,0.314609 0.26343,0.370244 0.14476,0.0556 0.26344,0.192341 0.26344,0.303799 0,0.111459 0.1818,0.399501 0.4044,0.640121 0.22262,0.240606 0.45717,0.575862 0.52162,0.744985 0.0646,0.169134 0.19881,0.307503 0.29859,0.307503 0.0998,0 0.18104,0.118603 0.18104,0.263586 0,0.144945 0.079,0.263584 0.17574,0.263584 0.0968,0 0.17575,0.114672 0.17575,0.254817 0,0.140145 0.0987,0.318085 0.21959,0.395362 0.55079,0.352366 0.65896,0.950093 0.65896,3.642009 0,1.493568 -0.0593,2.745109 -0.13191,2.781211 -0.0726,0.03628 -0.30236,-0.09759 -0.51126,-0.297147 z"
       id="path4991"
       inkscape:connector-curvature="0" />
    <path
       style="display:inline;opacity:1;fill:#5f543a;fill-opacity:1;stroke:none;stroke-width:0.17571272;stroke-linecap:round;stroke-linejoin:round;stroke-miterlimit:4;stroke-dasharray:none;stroke-opacity:1"
       d="M 306.34261,30.001337 C 298.75623,17.037701 292.50311,6.2231708 292.4468,5.9690608 c -0.2162,-0.97605 -0.80927,-1.78832 -3.45612,-4.73425 l -1.09856,-1.22267999 2.85566,-0.13002 c 3.37977,-0.15388 12.78218,-0.0554 12.78294,0.13388 2.7e-4,0.0725 -0.0786,0.13179 -0.17537,0.13179 -0.30539,0 -0.19011,0.26126 0.19465,0.44154 0.24944,0.11675 3.03587,5.18130999 8.52333,15.49135019 l 8.15294,15.317877 -0.0454,11.086521 -0.0454,11.086522 z M 301.76693,0.33341081 c -0.24568,-0.0746 -2.77584,-0.19197 -5.6228,-0.26092 -4.51949,-0.10943 -5.22098,-0.091 -5.5278,0.14511 -0.31823,0.24497 0.2109,0.26953 5.62281,0.26092 3.28581,-0.005 5.7733,-0.0705 5.52779,-0.14511 z"
       id="path4993"
       inkscape:connector-curvature="0" />
    <path
       style="display:inline;opacity:1;fill:#3f3828;fill-opacity:1;stroke:none;stroke-width:0.17571272;stroke-linecap:round;stroke-linejoin:round;stroke-miterlimit:4;stroke-dasharray:none;stroke-opacity:1"
       d="m 312.71218,14.839021 c -4.0831,-7.6707502 -7.42383,-13.99569019 -7.42383,-14.05546019 0,-0.0598 3.3605,-0.10864 7.46779,-0.10864 h 7.46779 V 14.731951 c 0,7.73138 -0.0189,14.056323 -0.0439,14.055453 -0.0227,-8.8e-4 -3.38468,-6.277643 -7.46783,-13.948383 z"
       id="path4995"
       inkscape:connector-curvature="0" />
    <path
       style="display:inline;opacity:1;fill:#a09682;fill-opacity:1;stroke:none;stroke-width:0.17571272;stroke-linecap:round;stroke-linejoin:round;stroke-miterlimit:4;stroke-dasharray:none;stroke-opacity:1"
       d="m 319.62517,52.606088 c -0.18444,-0.342652 -0.40645,-0.623 -0.49357,-0.623 -0.0869,0 -0.11112,-0.07619 -0.0537,-0.169285 0.0575,-0.09308 -0.0563,-0.330332 -0.25323,-0.52714 -0.19691,-0.1968 -0.3137,-0.357846 -0.26003,-0.357846 0.0537,0 -0.0423,-0.237204 -0.21354,-0.527144 -0.17122,-0.289928 -0.3781,-0.527139 -0.4596,-0.527139 -0.0816,0 -0.10091,-0.0762 -0.0435,-0.169286 0.0575,-0.09309 -0.0563,-0.330332 -0.25322,-0.527144 -0.19692,-0.1968 -0.31371,-0.357809 -0.26004,-0.357809 0.0537,0 -0.0423,-0.237203 -0.21354,-0.527143 -0.17122,-0.289928 -0.3781,-0.527132 -0.4596,-0.527132 -0.0816,0 -0.10657,-0.06708 -0.0559,-0.149103 0.0507,-0.08202 -0.0435,-0.302514 -0.20939,-0.49007 -0.16592,-0.187541 -0.32239,-0.440052 -0.34771,-0.561141 -0.0616,-0.292952 -0.92863,-1.670226 -1.137,-1.806444 -0.0903,-0.05912 -0.15269,-0.177715 -0.13832,-0.263586 0.0385,-0.228019 -0.92233,-1.825343 -1.09785,-1.825343 -0.082,0 -0.10205,-0.07619 -0.0446,-0.169285 0.0574,-0.09309 -0.0563,-0.330332 -0.25324,-0.527144 -0.19691,-0.1968 -0.31369,-0.357846 -0.26003,-0.357846 0.0537,0 -0.0423,-0.237204 -0.21355,-0.527144 -0.17121,-0.289928 -0.37806,-0.527132 -0.45958,-0.527132 -0.0816,0 -0.10092,-0.07619 -0.0435,-0.169323 0.0574,-0.09309 -0.0563,-0.330332 -0.25324,-0.527144 -0.1969,-0.196801 -0.31369,-0.357847 -0.26003,-0.357847 0.0537,0 -0.0423,-0.237204 -0.21354,-0.52714 -0.17122,-0.289928 -0.37806,-0.527131 -0.45956,-0.527131 -0.0816,0 -0.10091,-0.0762 -0.0435,-0.169324 0.0575,-0.09309 -0.0563,-0.330332 -0.25322,-0.527143 -0.19692,-0.1968 -0.35264,-0.417131 -0.34659,-0.489612 0.0189,-0.224489 -0.95498,-1.801055 -1.11284,-1.801055 -0.082,0 -0.10205,-0.0762 -0.0446,-0.169311 0.0575,-0.0931 -0.0563,-0.330332 -0.25323,-0.527142 -0.19692,-0.196801 -0.3137,-0.357831 -0.26003,-0.357831 0.0537,0 -0.0423,-0.237212 -0.21355,-0.527142 -0.17121,-0.289921 -0.37807,-0.527131 -0.45955,-0.527131 -0.0817,0 -0.10129,-0.0762 -0.0435,-0.169312 0.0575,-0.0931 -0.0563,-0.330332 -0.25323,-0.527141 -0.19692,-0.196801 -0.3137,-0.357832 -0.26003,-0.357832 0.0537,0 -0.0423,-0.237211 -0.21355,-0.527141 -0.17121,-0.289921 -0.3781,-0.527132 -0.45959,-0.527132 -0.0816,0 -0.10091,-0.0762 -0.0435,-0.169311 0.0575,-0.09311 -0.0378,-0.317153 -0.20939,-0.497853 -0.17272,-0.180699 -0.33487,-0.42412 -0.36019,-0.54094 -0.0631,-0.28929 -0.93305,-1.665335 -1.13703,-1.798665 -0.0903,-0.0591 -0.14816,-0.163243 -0.12775,-0.231373 0.0624,-0.211128 -0.89684,-1.857534 -1.08211,-1.857534 -0.0964,0 -0.12813,-0.0762 -0.0707,-0.169312 0.0575,-0.0931 -0.0563,-0.33032 -0.25322,-0.527141 -0.19692,-0.196801 -0.31635,-0.357832 -0.26533,-0.357832 0.0507,0 -0.0302,-0.237212 -0.18028,-0.527141 -0.15005,-0.289921 -0.35414,-0.527131 -0.45418,-0.527131 -0.0998,0 -0.13456,-0.0762 -0.0771,-0.169313 0.0575,-0.0931 -0.0378,-0.317152 -0.20939,-0.497851 -0.17272,-0.1807 -0.3379,-0.433992 -0.36775,-0.562851 -0.0854,-0.372999 -0.93294,-1.757099 -1.07585,-1.757099 -0.0714,0 -0.12964,-0.10181 -0.12964,-0.22624 0,-0.29169 -0.92976,-1.88233 -1.10025,-1.88233 -0.0714,0 -0.12964,-0.1058 -0.12964,-0.23513 0,-0.12933 -0.55567,-1.17702 -1.23484,-2.3282 -2.83186,-4.80002 -6.26224,-10.8739202 -6.26224,-11.0880202 0,-0.12647 -0.0658,-0.22996 -0.14626,-0.22996 -0.0805,0 -0.14628,-0.1186 -0.14628,-0.26357 0,-0.14497 -0.079,-0.26356 -0.17574,-0.26356 -0.0968,0 -0.17575,-0.11795 -0.17575,-0.26209 0,-0.14415 -0.15798,-0.36084 -0.35149,-0.48155 -0.19314,-0.12071 -0.3515,-0.31086 -0.3515,-0.42257 0,-0.11171 -0.27666,-0.44609 -0.61497,-0.74307 -0.33826,-0.29698 -0.615,-0.61227 -0.615,-0.70061 0,-0.0883 -0.31635,-0.44638 -0.70285,-0.79562 -1.07587,-0.97187999 -0.96472,-1.16566999 0.65885,-1.14912999 0.74895,0.008 1.26294,0.0538 1.14214,0.10249 -0.80262,0.32386 0.34696,0.41076 5.43243,0.41076 5.63078,0 7.2384,-0.17447 3.33933,-0.36242 -2.04303,-0.0985 -2.03963,-0.099 0.90278,-0.13178 1.90673,-0.0213 2.91556,0.0286 2.84636,0.14051 -0.059,0.0954 0.0476,0.33977 0.23735,0.54309 0.18936,0.2033 1.17503,1.88458999 2.19024,3.73617999 1.01522,1.85158 1.96468,3.4983 2.10989,3.65936 0.14513,0.16108 0.21808,0.33899 0.16139,0.39536 -0.0563,0.0564 0.003,0.1025 0.1319,0.1025 0.12888,0 0.18293,0.0515 0.11981,0.11443 -0.13644,0.13658 0.95142,2.1698502 1.16107,2.1698502 0.0801,0 0.0968,0.0791 0.0378,0.17571 -0.0597,0.0966 -0.0113,0.1757 0.10697,0.1757 0.1183,0 0.1629,0.0523 0.099,0.11634 -0.12547,0.12562 1.07456,2.3931 1.31819,2.49044 0.0813,0.0324 0.1028,0.13126 0.0484,0.21965 -0.0548,0.0884 -0.002,0.16069 0.11603,0.16069 0.1183,0 0.16366,0.0516 0.10053,0.11469 -0.12245,0.1224 0.90415,2.04155 1.14505,2.14065 0.0786,0.0324 0.0987,0.13127 0.0439,0.21965 -0.0544,0.0884 -0.002,0.16071 0.11603,0.16071 0.11829,0 0.16365,0.0516 0.10054,0.11468 -0.12246,0.1224 0.90417,2.04155 1.14503,2.14067 0.0786,0.0324 0.0987,0.13124 0.0439,0.21963 -0.0548,0.0885 -0.002,0.16071 0.11604,0.16071 0.11829,0 0.16365,0.0515 0.10053,0.11469 -0.12246,0.12238 0.90417,2.04155 1.14504,2.14066 0.0786,0.0324 0.0987,0.13126 0.0438,0.21964 -0.0544,0.0884 -0.002,0.1607 0.11603,0.1607 0.11829,0 0.16365,0.0516 0.10054,0.11469 -0.12246,0.12239 0.90417,2.041546 1.14504,2.140657 0.079,0.03239 0.0987,0.13126 0.0438,0.21964 -0.0548,0.0884 -0.0113,0.16071 0.0971,0.16071 0.10809,0 0.14777,0.07911 0.0881,0.175712 -0.0597,0.0966 -0.0113,0.17571 0.10696,0.17571 0.1183,0 0.16554,0.05 0.10432,0.110989 -0.11793,0.118013 0.73379,1.693276 0.96948,1.792936 0.0767,0.03239 0.0949,0.131251 0.0401,0.21964 -0.0548,0.0884 -0.0113,0.160702 0.0971,0.160702 0.1081,0 0.14777,0.07911 0.0881,0.175722 -0.0597,0.0966 -0.0113,0.175711 0.10696,0.175711 0.11831,0 0.16365,0.0516 0.10054,0.114679 -0.12246,0.1224 0.90417,2.041555 1.14509,2.140666 0.0786,0.03239 0.0987,0.131252 0.0438,0.21964 -0.0548,0.0884 -0.002,0.160703 0.11604,0.160703 0.1183,0 0.16592,0.0496 0.10507,0.110139 -0.0605,0.0606 0.004,0.330252 0.14286,0.599271 0.21619,0.418181 0.23434,2.060396 0.12473,11.319212 -0.12775,10.79102 -0.12927,10.827818 -0.46337,10.207066 z"
       id="path4997"
       inkscape:connector-curvature="0" />
    <path
       style="display:inline;opacity:1;fill:#817a61;fill-opacity:1;stroke:none;stroke-width:0.17571272;stroke-linecap:round;stroke-linejoin:round;stroke-miterlimit:4;stroke-dasharray:none;stroke-opacity:1"
       d="m 312.83721,67.658303 c -1.52678,-0.789874 -4.67244,-2.59203 -4.88183,-2.79679 -0.12775,-0.124914 -0.34507,-0.227075 -0.48318,-0.227075 -0.13795,0 -0.25096,-0.09218 -0.25096,-0.205002 0,-0.112743 -0.048,-0.157039 -0.10658,-0.09842 -0.0586,0.05858 -0.26834,-0.04411 -0.4659,-0.228207 -0.19767,-0.18414 -0.42645,-0.293293 -0.50847,-0.242609 -0.082,0.05072 -0.1489,0.0079 -0.1489,-0.09389 0,-0.10235 -0.11868,-0.186104 -0.26344,-0.186104 -0.14514,0 -0.26343,-0.08372 -0.26343,-0.186068 0,-0.102349 -0.079,-0.137197 -0.17575,-0.07748 -0.0968,0.05968 -0.17575,0.02495 -0.17575,-0.07748 0,-0.10235 -0.0824,-0.186067 -0.18293,-0.186067 -0.10054,0 -0.35603,-0.161197 -0.56757,-0.358225 -0.21128,-0.197027 -0.56398,-0.403269 -0.78334,-0.458329 -0.21922,-0.0551 -0.39886,-0.170608 -0.39886,-0.256781 0,-0.08621 -0.10998,-0.156663 -0.24492,-0.156663 -0.13454,0 -0.29027,-0.118601 -0.34582,-0.263584 -0.0556,-0.144946 -0.22224,-0.263585 -0.37002,-0.263585 -0.14815,0 -0.2691,-0.0791 -0.2691,-0.175711 0,-0.0966 -0.11868,-0.17571 -0.26343,-0.17571 -0.14476,0 -0.26344,-0.07911 -0.26344,-0.175712 0,-0.0966 -0.09,-0.175711 -0.19993,-0.175711 -0.45756,0 -2.99702,-2.265455 -4.07346,-3.633949 -0.49634,-0.630972 -0.83093,-1.977874 -0.57593,-2.318384 0.3496,-0.467084 2.70436,-2.833308 2.81938,-2.833308 0.062,0 0.3258,-0.19767 0.58632,-0.439285 0.26041,-0.241587 0.57589,-0.43928 0.70072,-0.43928 0.12473,0 0.26571,-0.101519 0.31332,-0.2256 0.14551,-0.378983 0.87622,-0.321186 1.24037,0.09812 0.49497,0.569943 9.73395,14.17247 9.95377,14.654932 0.10243,0.224505 0.25247,0.408171 0.33335,0.408171 0.0813,0 0.14741,0.118602 0.14741,0.263547 0,0.144983 0.079,0.263586 0.17574,0.263586 0.0968,0 0.17575,0.118601 0.17575,0.263584 0,0.144945 0.079,0.263585 0.17575,0.263585 0.0968,0 0.17574,0.118602 0.17574,0.263585 0,0.144946 0.079,0.263585 0.17576,0.263585 0.0968,0 0.17575,0.118602 0.17575,0.263585 0,0.340423 -0.14476,0.33207 -0.88536,-0.0511 z"
       id="path4999"
       inkscape:connector-curvature="0" />
    <path
       style="display:inline;opacity:1;fill:#a09682;fill-opacity:1;stroke:none;stroke-width:0.17571272;stroke-linecap:round;stroke-linejoin:round;stroke-miterlimit:4;stroke-dasharray:none;stroke-opacity:1"
       d="m 318.42283,71.109411 c -0.8456,-0.664272 -1.53748,-1.164551 -1.53748,-1.11172 0,0.0528 -0.23735,-0.174124 -0.52713,-0.504312 -0.28989,-0.330218 -0.52713,-0.688784 -0.52713,-0.796833 0,-0.108057 -0.079,-0.196423 -0.17575,-0.196423 -0.0968,0 -0.17575,-0.118601 -0.17575,-0.263585 0,-0.144945 -0.0643,-0.263585 -0.14324,-0.263585 -0.0786,0 -0.27516,-0.276738 -0.43643,-0.614991 -0.16138,-0.338231 -0.37829,-0.614992 -0.48219,-0.614992 -0.10394,0 -0.13984,-0.0796 -0.0798,-0.176958 0.0601,-0.09728 -0.008,-0.222274 -0.15306,-0.277644 -0.14439,-0.05541 -0.34281,-0.331579 -0.44131,-0.613752 -0.0983,-0.282181 -0.26683,-0.51305 -0.37417,-0.51305 -0.10733,0 -0.14589,-0.0796 -0.0858,-0.176957 0.0601,-0.09729 -0.0151,-0.224392 -0.16554,-0.28237 -0.15117,-0.05798 -0.27477,-0.200656 -0.27477,-0.317065 0,-0.11641 -0.15798,-0.381378 -0.35149,-0.588852 -0.19314,-0.207459 -0.3515,-0.45958 -0.3515,-0.56026 0,-0.100687 -0.0643,-0.18308 -0.14325,-0.18308 -0.0786,0 -0.27514,-0.276738 -0.43645,-0.615 -0.16139,-0.338231 -0.37826,-0.614991 -0.4822,-0.614991 -0.10393,0 -0.13984,-0.0796 -0.0798,-0.176958 0.0601,-0.09729 -0.008,-0.222275 -0.15308,-0.277645 -0.14437,-0.05541 -0.3428,-0.331579 -0.44126,-0.613752 -0.0983,-0.28218 -0.26683,-0.513049 -0.37417,-0.513049 -0.10734,0 -0.14588,-0.0796 -0.0858,-0.176958 0.0601,-0.09729 -0.0151,-0.224203 -0.16441,-0.281991 -0.15043,-0.05779 -0.2298,-0.176354 -0.17575,-0.263586 0.0541,-0.0872 -0.0265,-0.205795 -0.17575,-0.263547 -0.15043,-0.05779 -0.22979,-0.176353 -0.17575,-0.263584 0.0541,-0.0872 -0.0265,-0.205796 -0.17575,-0.263586 -0.15042,-0.05779 -0.22941,-0.176391 -0.17575,-0.263584 0.0541,-0.0872 -0.0265,-0.205986 -0.17688,-0.263963 -0.15118,-0.05802 -0.27477,-0.20402 -0.27477,-0.324512 0,-0.120491 -0.18935,-0.423459 -0.42085,-0.673211 -0.2313,-0.249751 -0.3783,-0.49665 -0.32617,-0.54866 0.0522,-0.05201 -0.034,-0.144228 -0.19314,-0.204965 -0.15836,-0.0607 -0.24378,-0.181191 -0.19048,-0.267704 0.0537,-0.08651 0.0151,-0.157305 -0.0888,-0.157305 -0.10243,0 -0.18595,-0.121096 -0.18595,-0.269065 0,-0.148006 -0.11831,-0.31442 -0.26268,-0.369827 -0.14438,-0.05541 -0.21846,-0.172083 -0.16442,-0.259314 0.0541,-0.0872 -0.0265,-0.205797 -0.17574,-0.263548 -0.15043,-0.05779 -0.22942,-0.176392 -0.17575,-0.263585 0.0541,-0.08719 -0.0265,-0.205796 -0.17575,-0.263585 -0.15043,-0.05779 -0.2298,-0.176353 -0.17574,-0.263585 0.0541,-0.08719 -0.0265,-0.205796 -0.17575,-0.263585 -0.15043,-0.05779 -0.22942,-0.176353 -0.17576,-0.263585 0.0541,-0.0872 -0.0189,-0.203226 -0.161,-0.257878 -0.14249,-0.05461 -0.30464,-0.282067 -0.36057,-0.505393 -0.0559,-0.223332 -0.33221,-0.652491 -0.61349,-0.953702 -0.28157,-0.301229 -0.46496,-0.547651 -0.40796,-0.547651 0.0571,0 -0.0696,-0.161235 -0.28082,-0.358262 -0.21166,-0.197027 -0.38457,-0.47627 -0.38457,-0.620502 0,-0.144227 -0.1183,-0.307579 -0.26268,-0.362987 -0.14438,-0.05541 -0.21846,-0.172082 -0.16441,-0.259276 0.0541,-0.0872 -0.0189,-0.204058 -0.16554,-0.259692 -0.14513,-0.0556 -0.22072,-0.213203 -0.16819,-0.350174 0.0525,-0.13697 0.0265,-0.24945 -0.0548,-0.249941 -0.0828,-5.1e-4 -0.17009,-0.336567 -0.19351,-0.746784 -0.0541,-0.93889 -0.61422,-2.687978 -1.28826,-4.02325 -0.28536,-0.565173 -0.46583,-1.027584 -0.40112,-1.027584 0.0646,0 -0.034,-0.166451 -0.21694,-0.369866 -0.18407,-0.203415 -0.31031,-0.420882 -0.28044,-0.483211 0.0952,-0.198501 -0.35755,-1.606897 -0.5166,-1.606897 -0.22601,0 -0.18557,-0.599751 0.0745,-1.100801 l 0.22714,-0.438113 0.54924,0.490761 c 0.30199,0.269897 0.5048,0.535244 0.45042,0.589605 -0.0544,0.05439 0.0302,0.148687 0.18973,0.209651 0.15874,0.06088 0.28875,0.223409 0.28875,0.361097 0,0.137651 0.11868,0.295787 0.26344,0.351422 0.14513,0.0556 0.26343,0.21377 0.26343,0.351421 0,0.13765 0.1183,0.295635 0.26267,0.351043 0.14439,0.05541 0.21846,0.17212 0.16441,0.259315 -0.0541,0.08719 0.0265,0.205985 0.17688,0.263962 0.15119,0.05802 0.27478,0.196612 0.27478,0.308071 0,0.111458 0.19766,0.41582 0.43929,0.676378 0.24151,0.260561 0.44153,0.536502 0.44425,0.613192 0.003,0.07668 0.31899,0.492413 0.70288,0.923803 0.38381,0.431381 0.69785,0.852092 0.69785,0.934895 0,0.08281 0.31635,0.52565 0.70284,0.98409 0.38658,0.458453 0.70288,0.908332 0.70288,0.999744 0,0.09139 0.19767,0.37939 0.43926,0.639952 0.24151,0.260561 0.44152,0.536501 0.44428,0.613203 0.003,0.07668 0.319,0.492398 0.70284,0.923791 0.38381,0.431381 0.69786,0.867082 0.69786,0.968211 0,0.101141 0.18179,0.380744 0.40441,0.621364 0.22261,0.240605 0.45717,0.575861 0.52161,0.744981 0.0646,0.169135 0.1988,0.307504 0.29858,0.307504 0.0998,0 0.18104,0.0847 0.18104,0.188258 0,0.103559 0.0987,0.298471 0.21959,0.433191 0.4998,0.557302 0.65897,0.77668 0.65919,0.90862 1.2e-4,0.07661 0.31634,0.495022 0.70261,0.929903 0.38627,0.434892 0.70247,0.855605 0.70258,0.934903 1.5e-4,0.0793 0.31672,0.519282 0.7031,0.977736 0.38658,0.458439 0.70285,0.908321 0.70285,0.999729 0,0.09139 0.19767,0.379394 0.43929,0.639956 0.24152,0.260561 0.43938,0.536498 0.43953,0.613199 1.5e-4,0.07668 0.31634,0.495272 0.70261,0.930163 0.38631,0.434882 0.70247,0.870583 0.70262,0.968213 1.1e-4,0.09759 0.18217,0.374363 0.40463,0.61499 0.22262,0.240606 0.45713,0.575862 0.52162,0.744982 0.0646,0.169134 0.1988,0.307503 0.29858,0.307503 0.0998,0 0.18142,0.121096 0.18142,0.269065 0,0.148007 0.11867,0.314609 0.26343,0.370244 0.14475,0.0556 0.26343,0.211276 0.26343,0.345903 0,0.134627 0.079,0.244763 0.17575,0.244763 0.0968,0 0.17574,0.09959 0.17574,0.221443 0,0.121777 0.21733,0.455944 0.48322,0.742562 0.2657,0.286602 0.48321,0.564504 0.48321,0.617524 0,0.08969 0.28838,0.462362 0.70285,0.908771 0.17537,0.188787 0.0926,5.658468 -0.0881,5.817817 -0.0484,0.04259 -0.77971,-0.465979 -1.62535,-1.130263 z"
       id="path5001"
       inkscape:connector-curvature="0" />
    <path
       style="display:inline;opacity:1;fill:#817a61;fill-opacity:1;stroke:none;stroke-width:0.17571272;stroke-linecap:round;stroke-linejoin:round;stroke-miterlimit:4;stroke-dasharray:none;stroke-opacity:1"
       d="m 319.89919,64.264723 c -0.0151,-0.154998 -0.2128,-0.482431 -0.43983,-0.727614 -0.22715,-0.245178 -0.46197,-0.573 -0.52165,-0.728502 -0.0597,-0.155528 -0.19011,-0.282747 -0.28989,-0.282747 -0.0998,0 -0.18142,-0.118601 -0.18142,-0.263584 0,-0.144946 -0.079,-0.263586 -0.17575,-0.263586 -0.0968,0 -0.17574,-0.121096 -0.17574,-0.269065 0,-0.148007 -0.11868,-0.314609 -0.26343,-0.370244 -0.14514,-0.0556 -0.26344,-0.199748 -0.26344,-0.32024 0,-0.120492 -0.19767,-0.432413 -0.43926,-0.693102 -0.24151,-0.260714 -0.43929,-0.551474 -0.43929,-0.646174 0,-0.09471 -0.11868,-0.217663 -0.26343,-0.273298 -0.14476,-0.0556 -0.26343,-0.199748 -0.26343,-0.320278 0,-0.120492 -0.18596,-0.419702 -0.41315,-0.664885 -0.22715,-0.245178 -0.46193,-0.573 -0.52161,-0.728502 -0.0597,-0.155528 -0.19464,-0.282747 -0.30009,-0.282747 -0.10545,0 -0.1425,-0.0796 -0.082,-0.176958 0.0601,-0.09729 -0.0151,-0.224391 -0.16555,-0.282369 -0.15118,-0.05802 -0.27477,-0.218042 -0.27477,-0.355692 0,-0.137652 -0.11867,-0.295788 -0.26343,-0.351423 -0.14513,-0.0556 -0.26343,-0.199748 -0.26343,-0.32024 0,-0.120529 -0.18595,-0.41971 -0.41311,-0.66488 -0.22714,-0.245179 -0.46197,-0.573001 -0.52164,-0.728514 -0.0597,-0.15549 -0.19011,-0.282747 -0.2899,-0.282747 -0.0998,0 -0.18103,-0.107036 -0.18103,-0.237922 0,-0.130848 -0.19767,-0.451202 -0.43927,-0.711903 -0.24151,-0.260674 -0.43929,-0.551472 -0.43929,-0.646173 0,-0.09471 -0.1183,-0.217512 -0.26267,-0.27292 -0.14439,-0.05541 -0.21846,-0.172082 -0.16441,-0.259314 0.0541,-0.08719 -0.0265,-0.205984 -0.17688,-0.263963 -0.15119,-0.05802 -0.27478,-0.218041 -0.27478,-0.355692 0,-0.137651 -0.11867,-0.295787 -0.26343,-0.351422 -0.14513,-0.0556 -0.26344,-0.199748 -0.26344,-0.32024 0,-0.120492 -0.18595,-0.41971 -0.41314,-0.66488 -0.22714,-0.24518 -0.46193,-0.573001 -0.52161,-0.728511 -0.0597,-0.155489 -0.19464,-0.282747 -0.30009,-0.282747 -0.10546,0 -0.15118,-0.0655 -0.10168,-0.145588 0.0495,-0.08009 -0.13227,-0.388801 -0.40364,-0.686061 -0.27138,-0.297261 -0.54207,-0.666632 -0.60122,-0.820833 -0.0593,-0.154205 -0.19389,-0.280366 -0.29934,-0.280366 -0.10545,0 -0.15117,-0.0655 -0.10167,-0.145588 0.0495,-0.08009 -0.13908,-0.396353 -0.41899,-0.70285 -0.28006,-0.306483 -0.45415,-0.559893 -0.3871,-0.563114 0.0669,-0.003 -0.0525,-0.151559 -0.26608,-0.329613 -0.21317,-0.178054 -0.34054,-0.371264 -0.28233,-0.429303 0.0578,-0.05802 -0.0227,-0.155225 -0.18217,-0.215925 -0.15837,-0.0607 -0.24719,-0.175786 -0.19805,-0.255685 0.0495,-0.0799 -0.0692,-0.256631 -0.26344,-0.392698 -0.19426,-0.136064 -0.31181,-0.288795 -0.26154,-0.339327 0.0507,-0.05049 -0.14362,-0.343862 -0.43113,-0.651823 -0.28762,-0.307957 -0.50744,-0.584124 -0.48839,-0.613702 0.0189,-0.02948 -0.87466,-1.347164 -1.98603,-2.927937 -1.1113,-1.580754 -2.04983,-2.956156 -2.08559,-3.056427 -0.18028,-0.50591 -1.67848,-1.801104 -2.97146,-2.568936 -0.80024,-0.475232 -1.49707,-0.864063 -1.54852,-0.864063 -0.0514,0 -0.50369,-0.18999 -1.00497,-0.422201 -1.44904,-0.671262 -2.25853,-1.018192 -2.47121,-1.059103 -0.10847,-0.0209 -0.51095,-0.173661 -0.89423,-0.339511 -0.38328,-0.16584 -0.85769,-0.332081 -1.05427,-0.36943 -0.19653,-0.03742 -0.37719,-0.0837 -0.40131,-0.102921 -0.0227,-0.01932 -0.12283,-0.0548 -0.21958,-0.07899 -0.0968,-0.02419 -0.21544,-0.0637 -0.26344,-0.0879 -0.0484,-0.02419 -0.16706,-0.0637 -0.26344,-0.0879 -0.0968,-0.02419 -0.21542,-0.0637 -0.26343,-0.0879 -0.0484,-0.02419 -0.16705,-0.0637 -0.26343,-0.0879 -0.0968,-0.02419 -0.21543,-0.0637 -0.26343,-0.0879 -0.0484,-0.02419 -0.16706,-0.0637 -0.26344,-0.0879 -0.0968,-0.02419 -0.19539,-0.0599 -0.21958,-0.0793 -0.0227,-0.01951 -0.16252,-0.0625 -0.30766,-0.0956 -0.14475,-0.03311 -0.71822,-0.22048 -1.27392,-0.416372 -0.55567,-0.195882 -1.01036,-0.322829 -1.01036,-0.282113 0,0.0407 -0.21731,-0.01039 -0.48321,-0.113601 -0.2657,-0.1032 -1.03669,-0.342989 -1.71318,-0.532871 -0.6765,-0.18988 -1.48699,-0.419762 -1.80106,-0.510862 -0.31408,-0.09109 -0.82805,-0.240238 -1.14214,-0.331431 -0.31408,-0.09121 -0.88736,-0.251619 -1.27392,-0.35649 -0.38657,-0.104878 -0.82145,-0.225661 -0.96639,-0.268412 -0.3496,-0.103078 -1.58978,-0.43062 -1.97745,-0.522241 -0.16932,-0.0401 -0.37266,-0.112721 -0.45158,-0.16148 -0.079,-0.0488 -0.33563,-0.128263 -0.57041,-0.176672 -0.23471,-0.0484 -0.62464,-0.135658 -0.86627,-0.19389 -0.24151,-0.0582 -0.6314,-0.145482 -0.86623,-0.19389 -0.2347,-0.0484 -0.49153,-0.127911 -0.57041,-0.17666 -0.079,-0.0488 -0.32163,-0.128329 -0.53945,-0.176822 -0.63064,-0.140402 -0.71369,-0.16346 -1.36245,-0.37838 -0.33826,-0.112052 -0.8522,-0.250269 -1.14212,-0.30714 -0.61532,-0.120719 -1.01863,-0.21746 -1.14214,-0.273983 -0.0484,-0.02211 -0.16706,-0.0556 -0.26344,-0.0744 -0.0968,-0.01878 -0.29442,-0.0849 -0.43926,-0.1469 -0.14475,-0.062 -0.46125,-0.147341 -0.70283,-0.1896 -0.24152,-0.0423 -0.47883,-0.09479 -0.52718,-0.11667 -0.0484,-0.02188 -0.16705,-0.05501 -0.26343,-0.0735 -0.0968,-0.01848 -0.40411,-0.127309 -0.68326,-0.24172 -0.27931,-0.114421 -0.54864,-0.166969 -0.59883,-0.11678 -0.0503,0.0502 -0.18897,0.01009 -0.30841,-0.0891 -0.11943,-0.0992 -0.28498,-0.16481 -0.36775,-0.14581 -0.0828,0.01901 -0.37757,-0.05899 -0.65503,-0.173379 -0.27779,-0.114361 -0.71248,-0.235132 -0.96639,-0.268381 -0.25398,-0.0333 -0.6819,-0.149221 -0.951,-0.2577 -0.2691,-0.108489 -0.54588,-0.185389 -0.615,-0.170909 -0.0692,0.0145 -0.34584,-0.0646 -0.61498,-0.17571 -0.2691,-0.11113 -0.54587,-0.1902 -0.615,-0.17571 -0.0692,0.0145 -0.34583,-0.0646 -0.61501,-0.17571 -0.2691,-0.11112 -0.54584,-0.1902 -0.61496,-0.17572 -0.0692,0.0145 -0.3496,-0.0661 -0.62366,-0.179 -0.27402,-0.11293 -0.5704,-0.16057 -0.65892,-0.10586 -0.0885,0.0547 -0.16102,0.0123 -0.16102,-0.0943 0,-0.10658 -0.0986,-0.17764 -0.21958,-0.1579 -0.12095,0.0197 -0.45688,-0.0625 -0.74676,-0.18266 -0.28989,-0.12019 -0.72484,-0.24603 -0.96643,-0.27965 -0.24151,-0.0336 -0.45906,-0.0764 -0.48321,-0.0952 -0.0227,-0.0187 -0.10318,-0.0509 -0.17575,-0.0712 -0.0726,-0.0204 -0.25059,-0.0892 -0.39538,-0.15283 -0.69691,-0.30589 -3.33854,-1.13773 -3.33854,-1.05129 0,0.054 -0.11867,-2.1e-4 -0.26343,-0.12052 -0.14513,-0.1203 -0.26343,-0.15984 -0.26343,-0.0879 0,0.072 -0.11868,0.0324 -0.26343,-0.0879 -0.14476,-0.12031 -0.26494,-0.14977 -0.26608,-0.0654 -9.8e-4,0.0843 -0.0608,0.0624 -0.13191,-0.0488 -0.0711,-0.11114 -0.28724,-0.22975 -0.48049,-0.26357 -0.19313,-0.0338 -0.3981,-0.12475 -0.45509,-0.20208 -0.0571,-0.0773 -0.27439,-0.15344 -0.48322,-0.16917 -0.20863,-0.0157 -0.37954,-0.0823 -0.37954,-0.14786 0,-0.11415 -0.75469,-0.35904 -0.98993,-0.32124 -0.062,0.0101 -0.16139,-0.057 -0.22035,-0.14895 -0.1319,-0.20498 -1.60104,-0.96299 -1.60104,-0.82604 0,0.054 -0.17008,-0.0602 -0.37803,-0.25392 -0.20788,-0.19371 -0.43944,-0.31425 -0.5145,-0.26786 -0.0749,0.0464 -0.18709,-0.075 -0.2487,-0.26966 -0.1217,-0.38345 0.034,-1.06959 0.22942,-1.01774 0.13341,0.0352 1.65036,-0.72496 1.79036,-0.89732 0.0484,-0.0595 0.24605,-0.13519 0.43926,-0.16821 0.19313,-0.033 0.37644,-0.12742 0.40671,-0.20977 0.0302,-0.0824 0.16895,-0.10619 0.30766,-0.053 0.1387,0.0532 0.25209,0.0117 0.25209,-0.0922 0,-0.10395 0.11868,-0.14348 0.26343,-0.0879 0.14476,0.0556 0.26344,0.0334 0.26381,-0.0494 8e-5,-0.0828 0.17802,-0.16264 0.39534,-0.17739 0.21733,-0.0147 0.63247,-0.1259 0.9224,-0.24704 0.28989,-0.12112 0.6062,-0.2354 0.70284,-0.25394 0.0968,-0.0185 0.25474,-0.0548 0.3515,-0.0807 0.0968,-0.0259 0.25473,-0.0602 0.35149,-0.0762 1.07914,-0.17913 1.68378,-0.33872 1.76184,-0.46504 0.0518,-0.084 0.20257,-0.11128 0.33448,-0.0606 0.13191,0.0507 0.28762,0.0151 0.34582,-0.079 0.0582,-0.0942 0.25513,-0.1322 0.43726,-0.0845 0.18218,0.0477 0.38238,0.004 0.4447,-0.0967 0.0624,-0.10084 0.22148,-0.14186 0.35338,-0.0911 0.13191,0.0507 0.2933,0.006 0.35792,-0.0984 0.0646,-0.1048 0.18407,-0.14946 0.26571,-0.0992 0.0813,0.0502 0.68863,-0.0296 1.34963,-0.17713 1.53366,-0.34256 2.11862,-0.45521 3.53061,-0.67983 0.31445,-0.05 0.82836,-0.13382 1.14214,-0.18624 0.3137,-0.0524 0.68912,-0.10225 0.83407,-0.11073 0.14475,-0.008 0.38218,-0.0613 0.52712,-0.11731 0.14514,-0.056 0.46126,-0.12495 0.70289,-0.15318 0.67702,-0.0791 1.60622,-0.20783 2.28426,-0.31643 0.33828,-0.0542 0.93124,-0.1386502 1.31781,-0.1877302 0.38657,-0.049 0.94008,-0.12427 1.23001,-0.16712 2.18212,-0.32257 5.97231,-0.77059 8.96135,-1.05931 0.48321,-0.0467 1.23436,-0.1203 1.66926,-0.16362 1.95761,-0.19501 2.78915,-0.27555 3.68996,-0.35743 0.53151,-0.0483 1.4013,-0.12835 1.93285,-0.17784 6.41817,-0.59757 7.46083,-0.6024 7.98491,-0.037 0.19879,0.21451 0.37606,0.46657 0.39408,0.56014 0.0643,0.33476 1.01054,1.8394002 1.15676,1.8394002 0.082,0 0.10205,0.0762 0.0446,0.1693 -0.0575,0.0931 0.0563,0.33033 0.25322,0.52714 0.19692,0.19681 0.31371,0.35784 0.26003,0.35784 -0.0537,0 0.0423,0.2372 0.21355,0.52714 0.17121,0.28993 0.37807,0.52713 0.45959,0.52713 0.0816,0 0.10658,0.0671 0.0559,0.14911 -0.0507,0.082 0.065,0.31768 0.25702,0.52371 0.192,0.20605 0.34884,0.41507 0.34847,0.46448 -10e-4,0.23906 0.4199,0.97127 0.55891,0.97127 0.0869,0 0.11641,0.0671 0.0658,0.14909 -0.0507,0.082 0.065,0.31769 0.25702,0.52373 0.19199,0.20603 0.34885,0.41505 0.34847,0.46446 -10e-4,0.22998 0.41725,0.97127 0.54856,0.97127 0.0813,0 0.1474,0.11295 0.1474,0.25101 0,0.13806 0.10431,0.3555 0.23206,0.48321 0.12775,0.12771 0.24756,0.29087 0.26684,0.36256 0.10091,0.38057 0.4529,1.01177 0.56454,1.01177 0.0707,0 0.17802,0.19767 0.23888,0.43928 0.0605,0.24161 0.19238,0.43928 0.2929,0.43928 0.10054,0 0.14136,0.0671 0.0907,0.14911 -0.0506,0.082 0.0586,0.31079 0.24264,0.50843 0.18406,0.19762 0.28687,0.40727 0.22829,0.46588 -0.0586,0.0586 -0.0227,0.10657 0.0794,0.10657 0.10242,0 0.23546,0.19767 0.29631,0.43928 0.0605,0.24161 0.19237,0.43928 0.29291,0.43928 0.10054,0 0.14136,0.0671 0.0907,0.14911 -0.0507,0.082 0.048,0.29945 0.21921,0.48321 0.17121,0.18376 0.32807,0.392764 0.34847,0.464464 0.12209,0.427701 0.4605,1.011763 0.58629,1.011763 0.0813,0 0.1474,0.112959 0.1474,0.251022 0,0.138058 0.13833,0.38939 0.30765,0.558521 0.16895,0.16912 0.28913,0.332271 0.26683,0.362553 -0.0824,0.11122 0.36549,0.936462 0.50832,0.936462 0.0813,0 0.1474,0.112959 0.1474,0.251021 0,0.13806 0.10431,0.355512 0.23206,0.483212 0.12775,0.12771 0.24756,0.290862 0.26683,0.362559 0.10734,0.406032 0.45684,1.011763 0.58364,1.011763 0.0813,0 0.1474,0.112959 0.1474,0.251022 0,0.138058 0.1081,0.359192 0.24038,0.491411 0.13228,0.132212 0.29556,0.414601 0.36321,0.627542 0.0677,0.212939 0.20145,0.387161 0.29708,0.387161 0.096,0 0.12548,0.0791 0.0658,0.17571 -0.0597,0.0966 -0.0265,0.175711 0.0775,0.175711 0.10242,0 0.18595,0.112959 0.18595,0.251023 0,0.138058 0.1081,0.359191 0.24038,0.491401 0.13228,0.132219 0.29556,0.41461 0.36321,0.627551 0.0677,0.212939 0.20145,0.387161 0.29708,0.387161 0.0956,0 0.12547,0.0791 0.0658,0.175711 -0.0597,0.0966 -0.034,0.17571 0.0586,0.17571 0.0919,0 0.21657,0.197682 0.27742,0.439282 0.0605,0.241611 0.18785,0.439281 0.28271,0.439281 0.0949,0 0.17235,0.112959 0.17235,0.251022 0,0.138059 0.12131,0.372451 0.26985,0.520862 0.14854,0.148418 0.26835,0.31157 0.26684,0.36256 -0.008,0.224599 0.41242,0.974113 0.54591,0.974113 0.0813,0 0.14741,0.112959 0.14741,0.251021 0,0.13806 0.10808,0.359193 0.24037,0.491402 0.13229,0.13222 0.29556,0.414611 0.36321,0.627552 0.0677,0.212939 0.20145,0.387161 0.29708,0.387161 0.096,0 0.12548,0.0791 0.0658,0.175711 -0.0597,0.0966 -0.0265,0.17571 0.0775,0.17571 0.10241,0 0.18595,0.11296 0.18595,0.251022 0,0.138067 0.10808,0.359208 0.24037,0.4914 0.13229,0.132209 0.29556,0.414612 0.36321,0.627555 0.0677,0.212939 0.20145,0.387161 0.29708,0.387161 0.096,0 0.12548,0.0791 0.0658,0.17571 -0.0597,0.0966 -0.034,0.175711 0.0586,0.175711 0.0918,0 0.21656,0.19767 0.27741,0.439281 0.0605,0.241626 0.18785,0.439281 0.28271,0.439281 0.0949,0 0.17235,0.11297 0.17235,0.251036 0,0.138067 0.13832,0.389391 0.30765,0.558511 0.16932,0.169133 0.28913,0.332296 0.26684,0.362571 -0.0824,0.111194 0.36548,0.936463 0.5083,0.936463 0.0813,0 0.14741,0.112971 0.14741,0.251037 0,0.138067 0.10204,0.355504 0.22714,0.48321 0.12473,0.12771 0.33223,0.48917 0.46057,0.803261 0.12851,0.31408 0.30312,0.571062 0.38794,0.571062 0.085,0 0.15458,0.11297 0.15458,0.251037 0,0.138066 0.1081,0.359208 0.24038,0.491401 0.13229,0.132208 0.29556,0.414612 0.36321,0.62755 0.0677,0.21294 0.20145,0.387165 0.29707,0.387165 0.0956,0 0.12549,0.0791 0.0658,0.17571 -0.0597,0.0966 -0.0265,0.175712 0.0775,0.175712 0.10242,0 0.18595,0.11297 0.18595,0.251037 0,0.138066 0.10809,0.359207 0.24038,0.4914 0.13229,0.132208 0.29556,0.414611 0.36321,0.627554 0.0677,0.212939 0.20145,0.387149 0.29707,0.387149 0.096,0 0.12549,0.0791 0.0658,0.175711 -0.0597,0.0966 -0.034,0.175711 0.0582,0.175711 0.0919,0 0.21656,0.19767 0.27742,0.43928 0.0605,0.241626 0.18784,0.439281 0.28271,0.439281 0.0949,0 0.17234,0.11297 0.17234,0.251037 0,0.138066 0.13833,0.389391 0.30766,0.55851 0.16894,0.169134 0.28914,0.332297 0.26683,0.362571 -0.0824,0.111194 0.36548,0.936464 0.50831,0.936464 0.0813,0 0.1474,0.11297 0.1474,0.251037 0,0.138066 0.1081,0.359207 0.24038,0.4914 0.13229,0.132208 0.29556,0.414611 0.36321,0.627551 0.0677,0.212939 0.20145,0.38716 0.29707,0.38716 0.096,0 0.12549,0.07911 0.0658,0.175711 -0.0597,0.0966 -0.0265,0.175711 0.0775,0.175711 0.10243,0 0.18595,0.112971 0.18595,0.251037 0,0.138067 0.1081,0.359207 0.24038,0.4914 0.13229,0.132209 0.29556,0.414612 0.36321,0.627555 0.0677,0.212939 0.20145,0.387149 0.29707,0.387149 0.096,0 0.12549,0.0791 0.0658,0.175711 -0.0597,0.0966 -0.0446,0.175673 0.034,0.175598 0.0782,-5.8e-5 0.1183,0.375534 0.0888,0.834635 -0.0302,0.459108 -0.11603,2.376626 -0.19313,4.261149 -0.0767,1.884527 -0.15156,3.299571 -0.1663,3.144561 z"
       id="path5003"
       inkscape:connector-curvature="0" />
    <path
       style="display:inline;opacity:1;fill:#5a5745;fill-opacity:1;stroke:none;stroke-width:0.17571272;stroke-linecap:round;stroke-linejoin:round;stroke-miterlimit:4;stroke-dasharray:none;stroke-opacity:1"
       d="m 319.47713,52.290089 c -0.16895,-0.25871 -0.30766,-0.53638 -0.30766,-0.617101 0,-0.08069 -0.0953,-0.242003 -0.21165,-0.358451 -0.11641,-0.116447 -0.45249,-0.641002 -0.7468,-1.165673 -1.19932,-2.138266 -2.6408,-4.609131 -2.96217,-5.077613 -0.18822,-0.274092 -0.51224,-0.827571 -0.72045,-1.229983 -0.45358,-0.876592 -0.82466,-1.516055 -1.08737,-1.873808 -0.10658,-0.144945 -0.38067,-0.619379 -0.60942,-1.054271 -0.22865,-0.434889 -0.50837,-0.909312 -0.62142,-1.054273 -0.11301,-0.144983 -0.42071,-0.679372 -0.68368,-1.187565 -0.26306,-0.508189 -0.54633,-0.966121 -0.62967,-1.017621 -0.0832,-0.05152 -0.30879,-0.426422 -0.50102,-0.833142 -0.192,-0.406743 -0.54837,-1.055795 -0.79146,-1.442365 -0.24303,-0.386572 -0.61914,-1.019134 -0.83552,-1.405705 -0.21656,-0.38657 -0.47527,-0.830501 -0.57527,-0.986523 -0.10016,-0.15602 -0.37682,-0.630441 -0.61497,-1.054272 -0.23811,-0.423842 -0.515,-0.898263 -0.615,-1.054283 -0.10016,-0.15602 -0.37002,-0.630442 -0.60008,-1.054273 -0.23018,-0.423841 -0.58591,-1.006813 -0.79072,-1.295503 -0.20484,-0.288691 -0.50793,-0.802653 -0.67354,-1.142134 -0.16555,-0.339481 -0.49951,-0.933523 -0.74193,-1.320093 -0.24227,-0.386571 -0.56142,-0.940062 -0.70881,-1.229993 -0.1474,-0.289921 -0.42437,-0.764353 -0.61539,-1.054274 -0.19086,-0.289932 -0.59119,-0.962032 -0.88932,-1.493559 -0.29821,-0.53154 -0.84884,-1.48038 -1.22389,-2.10856 -0.37493,-0.62817 -0.87564,-1.49794 -1.11246,-1.93284 -0.23698,-0.43489 -1.21455,-2.13491 -2.17274,-3.77782 -0.95815,-1.64292 -2.48115,-4.33132 -3.38442,-5.9742402 -2.15607,-3.92155 -2.49053,-4.42563 -4.31369,-6.50138 -1.25159,-1.42494999 -1.48041,-1.76865999 -1.21039,-1.81811999 0.1833,-0.0335 0.40803,-0.13238 0.49983,-0.21964 0.20637,-0.19614 0.9752,-0.21052 0.9752,-0.0182 0,0.0772 0.26268,0.23537 0.58356,0.35143 0.74533,0.26952 11.01348,0.30243 11.01348,0.0353 0,-0.0966 0.40852,-0.1757 0.90788,-0.1757 0.49928,0 0.85746,0.0505 0.79586,0.11195 -0.0616,0.0616 0.0548,0.3462 0.25889,0.63251 0.78398,1.10100999 4.12547,7.16455999 10.14441,18.40824019 l 6.25508,11.684912 0.0439,7.116369 c 0.0227,3.91401 -0.0151,8.813395 -0.0881,10.887523 -0.1285,3.675687 -0.13946,3.759249 -0.43917,3.300798 z"
       id="path5005"
       inkscape:connector-curvature="0" />
    <path
       style="display:inline;opacity:1;fill:#5a5745;fill-opacity:1;stroke:none;stroke-width:0.17571272;stroke-linecap:round;stroke-linejoin:round;stroke-miterlimit:4;stroke-dasharray:none;stroke-opacity:1"
       d="m 320.0665,64.370853 c -0.034,-0.0966 -0.0507,-0.235011 -0.0389,-0.307503 0.0113,-0.07249 -0.0484,-0.111988 -0.13304,-0.0878 -0.0847,0.02419 -3.7581,-4.937531 -8.16352,-11.025989 -4.40538,-6.088447 -8.09209,-11.165414 -8.19266,-11.282133 -0.10054,-0.116712 -0.18293,-0.283087 -0.18293,-0.369714 0,-0.08659 -0.18596,-0.358073 -0.41311,-0.603245 -0.22714,-0.245178 -0.46197,-0.573 -0.52165,-0.728509 -0.0597,-0.155529 -0.19464,-0.282748 -0.30009,-0.282748 -0.10545,0 -0.14778,-0.07101 -0.0941,-0.157833 0.0537,-0.08681 -0.1353,-0.407003 -0.41964,-0.711514 -0.2846,-0.304517 -0.52944,-0.609072 -0.54437,-0.67679 -0.0151,-0.06769 -0.33902,-0.656983 -0.72004,-1.309475 -0.81543,-1.396278 -1.79406,-2.192751 -4.10335,-3.339644 -2.04156,-1.013902 -4.2324,-1.872475 -7.75991,-3.041048 -4.14082,-1.371724 -8.37828,-2.573797 -20.17842,-5.724166 -13.01001,-3.473391 -20.15347,-5.796541 -23.23878,-7.557591 -1.67264,-0.95473 -1.7932,-1.26812 -0.76271,-1.98226 4.00116,-2.77281 23.86161,-6.2012102 43.85703,-7.5708002 0.86977,-0.0596 2.00061,-0.14149 2.51297,-0.18205 0.58636,-0.0464 0.89177,-0.009 0.82423,0.0999 -0.059,0.0955 -0.0227,0.17358 0.0786,0.17358 0.10242,0 0.18595,-0.0936 0.18595,-0.20795 0,-0.11436 4.29499,7.1403702 9.54438,16.1216702 5.24938,8.981285 11.67387,19.966867 14.27664,24.412401 l 4.73228,8.082802 -0.0926,4.217099 c -0.051,2.319416 -0.11944,4.138042 -0.1527,4.041404 z"
       id="path5007"
       inkscape:connector-curvature="0" />
    <path
       style="display:inline;opacity:1;fill:#5a5745;fill-opacity:1;stroke:none;stroke-width:0.17571272;stroke-linecap:round;stroke-linejoin:round;stroke-miterlimit:4;stroke-dasharray:none;stroke-opacity:1"
       d="m 309.84518,65.978389 c -4.84513,-2.760681 -6.66338,-3.910922 -9.24273,-5.847029 -3.45755,-2.595325 -4.24305,-3.614591 -4.11919,-5.345052 0.0227,-0.310112 0.47531,-0.950426 0.97195,-1.373545 0.18557,-0.158136 0.50187,-0.451731 0.70283,-0.652412 0.32391,-0.323642 1.4597,-1.147184 3.17042,-2.299158 l 0.56398,-0.37976 0.32353,0.555471 c 0.17802,0.3055 2.80025,4.206014 5.82717,8.667785 3.02691,4.461763 5.55149,8.237393 5.61014,8.390294 0.0661,0.172423 0.0151,0.27122 -0.1319,0.260183 -0.13115,-0.0098 -1.78556,-0.89934 -3.6765,-1.976762 z"
       id="path5009"
       inkscape:connector-curvature="0" />
    <path
       style="display:inline;opacity:1;fill:#37362b;fill-opacity:1;stroke:none;stroke-width:0.17571272;stroke-linecap:round;stroke-linejoin:round;stroke-miterlimit:4;stroke-dasharray:none;stroke-opacity:1"
       d="m 318.46935,50.448384 c -0.60755,-1.040435 -1.81787,-3.117287 -2.68955,-4.615242 -0.87167,-1.497956 -1.79898,-3.079368 -2.06071,-3.51426 -0.70209,-1.166732 -3.18414,-5.413475 -5.44294,-9.312786 -1.09168,-1.884516 -2.31807,-3.979901 -2.7253,-4.656393 -1.87099,-3.107818 -9.70081,-16.720732 -11.85,-20.6023422 -0.60197,-1.08722 -1.16667,-1.97677 -1.25488,-1.97677 -0.0881,0 -0.14174,-0.0593 -0.11868,-0.13178 0.0484,-0.15266 -1.06949,-1.82614 -1.34789,-2.01801 -0.10318,-0.0709 -0.12246,-0.13031 -0.0427,-0.13179 0.0794,-9.9e-4 -0.41431,-0.65502 -1.09738,-1.45231 -0.68308,-0.7973 -1.24229,-1.54072999 -1.24275,-1.65207999 -4.5e-4,-0.11136 0.24227,-0.28721 0.53945,-0.3908 0.43842,-0.15284 0.62736,-0.13123 1.00214,0.11459 0.40498,0.26561 1.09093,0.30988 5.56574,0.35924 3.587,0.0396 5.4124,-0.008 6.14204,-0.16169 l 1.0382,-0.218 0.40165,0.5037 c 0.73939,0.92730999 6.6595,11.72285019 14.37896,26.22055919 1.04202,1.957006 1.96974,3.558181 2.06158,3.558181 0.0919,0 0.1183,0.0791 0.0582,0.175721 -0.0597,0.0966 -0.0446,0.175662 0.034,0.175609 0.16138,-1.19e-4 0.0227,21.351078 -0.13871,21.51322 -0.0578,0.05779 -0.60238,-0.746133 -1.20998,-1.786565 z"
       id="path5011"
       inkscape:connector-curvature="0" />
    <path
       style="display:inline;opacity:1;fill:#1a1a14;fill-opacity:1;stroke:none;stroke-width:0.17571272;stroke-linecap:round;stroke-linejoin:round;stroke-miterlimit:4;stroke-dasharray:none;stroke-opacity:1"
       d="M 314.82766,18.645361 C 307.59924,5.0915408 305.44725,0.98457081 305.53025,0.90156081 c 0.0397,-0.0397 3.36204,-0.11951 7.38292,-0.1773 l 7.31076,-0.10511 -0.0189,12.10815019 c -0.0113,6.65948 -0.0707,12.880797 -0.13191,13.825139 l -0.11112,1.716995 z"
       id="path5013"
       inkscape:connector-curvature="0" />
    <path
       style="display:inline;opacity:1;fill:#76735b;fill-opacity:1;stroke:none;stroke-width:0.17571272;stroke-linecap:round;stroke-linejoin:round;stroke-miterlimit:4;stroke-dasharray:none;stroke-opacity:1"
       d="m 319.34533,71.699922 c -0.33826,-0.274772 -1.13249,-0.86529 -1.765,-1.31227 -1.01544,-0.717583 -1.38959,-1.168586 -3.19703,-3.854022 -1.12584,-1.672737 -3.06093,-4.543685 -4.3002,-6.379891 -1.23926,-1.836194 -2.91428,-4.326929 -3.72223,-5.534952 -0.80794,-1.208024 -1.61469,-2.394088 -1.79274,-2.635699 -1.51998,-2.062584 -1.91657,-2.830227 -2.24901,-4.353453 -0.31862,-1.459362 -0.6982,-2.519345 -1.68193,-4.695762 -0.90879,-2.010514 -1.19928,-3.777818 -0.62098,-3.777818 0.20598,0 1.08053,1.09706 2.96206,3.716358 0.78792,1.096872 2.26541,3.140827 3.28331,4.542144 1.01787,1.401312 2.24323,3.101327 2.72304,3.777829 0.47977,0.676493 1.28742,1.792995 1.79479,2.481116 1.04394,1.415943 4.38595,6.030809 5.57881,7.703621 0.43491,0.609874 1.38376,1.917238 2.10856,2.905258 0.72481,0.988025 1.41551,1.965617 1.53491,2.172426 0.23169,0.401134 0.26985,2.941892 0.0714,4.729636 l -0.11263,1.015062 z"
       id="path5015"
       inkscape:connector-curvature="0" />
    <path
       style="opacity:1;fill:#5a5745;fill-opacity:1;stroke:none;stroke-width:0.25252524;stroke-linecap:round;stroke-linejoin:round;stroke-miterlimit:4;stroke-dasharray:none;stroke-opacity:1"
       d="m 1187.0716,255.33817 c -1.5704,-0.89769 -2.2056,-1.41524 -2.4499,-1.9961 -0.1813,-0.4313 -0.4473,-0.78418 -0.591,-0.78418 -0.1438,0 -0.4177,-0.36932 -0.6087,-0.82071 -0.191,-0.45139 -0.5903,-1.03718 -0.8872,-1.30177 -0.297,-0.26458 -0.5399,-0.64927 -0.5399,-0.85488 0,-0.2056 -0.2841,-0.63711 -0.6313,-0.9589 -0.3472,-0.3218 -0.6313,-0.80471 -0.6313,-1.07315 0,-0.26844 -0.2743,-0.66774 -0.6094,-0.88734 -0.3352,-0.2196 -0.6825,-0.73225 -0.7719,-1.13922 -0.089,-0.40697 -0.3987,-0.95059 -0.6873,-1.20805 -0.2887,-0.25746 -2.0057,-2.68401 -3.8157,-5.39235 -4.9736,-7.44236 -15.5396,-23.06366 -23.9124,-35.35353 -7.9866,-11.72292 -10.1023,-14.93112 -10.1023,-15.31889 0,-0.13375 0.3164,-0.54632 0.7031,-0.91682 l 0.7031,-0.67364 23.6025,34.76125 c 12.9813,19.11869 23.6403,34.85511 23.6866,34.96983 0.1508,0.37378 -0.3037,0.17926 -2.457,-1.05155 z"
       id="path5972"
       inkscape:connector-curvature="0"
       transform="matrix(0.26458333,0,0,0.26458333,0.28536695,0.57753605)" />
    <path
       style="opacity:1;fill:#76735b;fill-opacity:1;stroke:none;stroke-width:0.25252524;stroke-linecap:round;stroke-linejoin:round;stroke-miterlimit:4;stroke-dasharray:none;stroke-opacity:1"
       d="m 1208.7942,250.40768 c -0.017,-0.41872 -0.2591,-1.18577 -0.5372,-1.70454 -0.278,-0.51878 -0.4389,-0.94323 -0.3575,-0.94323 0.205,0 -1.4466,-2.09912 -1.8501,-2.35138 -0.1803,-0.1127 -0.2588,-0.31655 -0.1744,-0.45299 0.1868,-0.30233 -0.3716,-1.02797 -0.6559,-0.85227 -0.1118,0.0691 -0.2749,-0.20026 -0.3624,-0.59864 -0.088,-0.39838 -0.8313,-1.43958 -1.6529,-2.31376 -0.8215,-0.87419 -1.4477,-1.66389 -1.3915,-1.75489 0.056,-0.091 -0.2219,-0.47137 -0.618,-0.84527 -0.3962,-0.3739 -0.9679,-1.1914 -1.2706,-1.81667 -0.3027,-0.62527 -0.6418,-1.08035 -0.7535,-1.01129 -0.1683,0.10397 -0.4852,-0.344 -0.6238,-0.88163 -0.018,-0.0695 -0.4823,-0.78928 -1.032,-1.59963 -0.5496,-0.81036 -1.1733,-1.77627 -1.386,-2.14647 -0.2127,-0.3702 -0.9331,-1.2377 -1.6009,-1.92777 -1.2164,-1.25702 -3.3525,-4.13376 -3.2732,-4.40813 0.023,-0.0803 -0.288,-0.60043 -0.6916,-1.15577 -0.4036,-0.55534 -1.1213,-1.58282 -1.5949,-2.28328 -0.4736,-0.70046 -1.043,-1.42461 -1.2655,-1.6092 -0.2224,-0.1846 -0.4044,-0.49876 -0.4044,-0.69814 0,-0.19938 -0.512,-0.86729 -1.1378,-1.48423 -0.6258,-0.61695 -1.0586,-1.12173 -0.9618,-1.12173 0.097,0 0,-0.14204 -0.2172,-0.31565 -0.619,-0.49688 -2.3467,-3.00327 -2.7413,-3.9767 -0.1969,-0.48579 -0.8962,-1.42711 -1.5539,-2.09181 -1.0864,-1.09794 -3.3475,-4.08014 -3.3733,-4.44913 -0.031,-0.44674 -0.9962,-1.898 -1.8228,-2.74127 -0.5194,-0.52992 -0.9444,-1.12993 -0.9444,-1.33335 0,-0.20343 -0.1372,-0.36986 -0.3048,-0.36986 -0.4457,0 -1.032,-0.90244 -0.904,-1.3917 0.071,-0.27055 -0.3564,-0.84099 -1.1929,-1.59308 -0.7167,-0.64438 -1.3265,-1.33096 -1.3551,-1.52574 -0.029,-0.19478 -0.3598,-0.75769 -0.736,-1.25092 -0.3762,-0.49323 -0.684,-0.99819 -0.684,-1.12214 0,-0.12395 -0.2841,-0.49224 -0.6313,-0.81844 -0.3472,-0.3262 -0.6313,-0.75033 -0.6313,-0.9425 0,-0.19218 -0.5022,-0.84446 -1.1159,-1.44951 -0.6137,-0.60506 -1.0493,-1.16665 -0.968,-1.24799 0.081,-0.0813 0.023,-0.14788 -0.1306,-0.14788 -0.3054,0 -2.491,-3.00461 -2.4022,-3.30234 0.03,-0.10151 -0.1117,-0.32303 -0.3156,-0.49224 -0.2039,-0.16922 -0.3707,-0.47758 -0.3707,-0.68524 0,-0.20767 -0.4546,-0.83212 -1.0101,-1.38768 -0.5556,-0.55556 -1.0101,-1.14738 -1.0101,-1.31516 0,-0.16778 -0.2841,-0.57195 -0.6313,-0.89815 -0.3473,-0.3262 -0.6314,-0.73982 -0.6314,-0.91915 0,-0.17934 -0.3125,-0.65364 -0.6944,-1.05401 -2.214,-2.32079 -4.4023,-5.28158 -4.532,-6.13189 -0.045,-0.29531 -0.6028,-1.06408 -1.2394,-1.70836 -1.3003,-1.31609 -3.6651,-4.4664 -3.4867,-4.64481 0.064,-0.064 -0.057,-0.26002 -0.2686,-0.43571 -0.2117,-0.17568 -0.3849,-0.46644 -0.3849,-0.64612 0,-0.17968 -0.4546,-0.81415 -1.0101,-1.40993 -0.5556,-0.59578 -1.0101,-1.23106 -1.0101,-1.41173 0,-0.18067 -0.2841,-0.57551 -0.6313,-0.87742 -0.3473,-0.3019 -0.6313,-0.69 -0.6313,-0.86244 0,-0.17244 -0.5744,-0.91899 -1.2765,-1.65901 -0.702,-0.74001 -1.4966,-1.76552 -1.7659,-2.27891 -0.2692,-0.51338 -0.6453,-1.02475 -0.8358,-1.13636 -0.1905,-0.11162 -0.5214,-0.54385 -0.7354,-0.96051 -0.2139,-0.41667 -0.6839,-1.03307 -1.0443,-1.36978 -0.3604,-0.33671 -0.6553,-0.70098 -0.6553,-0.80949 0,-0.39969 -1.2061,-1.95983 -1.3816,-1.78718 -0.1,0.0982 -0.1423,-0.007 -0.094,-0.23377 0.048,-0.22679 -0.3833,-0.93058 -0.9583,-1.56398 -0.575,-0.6334 -1.0023,-1.19476 -0.9496,-1.24748 0.053,-0.0527 -0.2379,-0.41555 -0.6457,-0.8063 l -0.7416,-0.71044 0.6671,-0.91256 c 0.367,-0.50191 0.7445,-1.00639 0.8391,-1.12107 0.095,-0.11469 16.6065,22.46457 36.6932,50.17611 l 36.5213,50.38464 -0.019,1.71782 c -0.021,1.89761 -0.3986,4.58135 -0.4547,3.22923 z"
       id="path5974"
       inkscape:connector-curvature="0"
       transform="matrix(0.26458333,0,0,0.26458333,0.28536695,0.57753605)" />
    <path
       style="opacity:1;fill:#5a5745;fill-opacity:1;stroke:none;stroke-width:0.25252524;stroke-linecap:round;stroke-linejoin:round;stroke-miterlimit:4;stroke-dasharray:none;stroke-opacity:1"
       d="m 1208.8888,208.63272 c -0.1389,-0.28193 -1.0009,-1.7925 -1.9156,-3.35684 -0.9146,-1.56434 -1.7397,-3.01471 -1.8335,-3.22304 -0.094,-0.20834 -0.3682,-0.68172 -0.6097,-1.05197 -0.8966,-1.37442 -3.8482,-6.4619 -3.8482,-6.63285 0,-0.0974 -0.2756,-0.5389 -0.6123,-0.98102 -0.3368,-0.44212 -0.9428,-1.42886 -1.3467,-2.19275 -0.4039,-0.76389 -1.1548,-2.04259 -1.6686,-2.84156 -0.5138,-0.79896 -1.0104,-1.65124 -1.1035,-1.89394 -0.093,-0.2427 -0.4725,-0.89581 -0.8431,-1.45137 -0.3706,-0.55555 -1.0578,-1.70415 -1.5271,-2.55244 -0.4693,-0.84828 -1.4913,-2.60964 -2.271,-3.91414 -0.7797,-1.30449 -1.8024,-3.06368 -2.2727,-3.90931 -0.4703,-0.84562 -1.5937,-2.78215 -2.4965,-4.3034 -0.9027,-1.52125 -1.8118,-3.06792 -2.0202,-3.43704 -0.2083,-0.36911 -1.3162,-2.24984 -2.4621,-4.17939 -1.1458,-1.92956 -2.0833,-3.59065 -2.0833,-3.69131 0,-0.10067 -0.2714,-0.54477 -0.6032,-0.98689 -0.3317,-0.44212 -0.9458,-1.45279 -1.3646,-2.24594 -0.4188,-0.79314 -0.9851,-1.75905 -1.2584,-2.14646 -0.2733,-0.38741 -0.799,-1.27257 -1.1682,-1.96701 -0.3693,-0.69445 -1.024,-1.83081 -1.455,-2.52526 -0.431,-0.69444 -1.081,-1.79065 -1.4444,-2.43602 -0.8132,-1.44418 -4.7637,-8.28049 -5.086,-8.80135 -0.4548,-0.73499 -2.949,-4.93779 -3.5509,-5.98338 -0.3354,-0.58252 -1.1144,-1.94616 -1.7312,-3.0303 -0.6167,-1.08414 -1.4974,-2.5623 -1.957,-3.28479 -0.4596,-0.7225 -0.8357,-1.39256 -0.8357,-1.48902 0,-0.0965 -0.3798,-0.75533 -0.8441,-1.46415 -0.4642,-0.70882 -1.1745,-1.91376 -1.5783,-2.67765 -0.4038,-0.76389 -0.8032,-1.44571 -0.8877,-1.51515 -0.2758,-0.22673 -4.2656,-7.27255 -4.2656,-7.53286 0,-0.13934 -0.1024,-0.29122 -0.2275,-0.33751 -0.1251,-0.0463 -0.9791,-1.391 -1.8976,-2.98822 -0.9186,-1.59722 -1.7741,-3.07449 -1.9011,-3.28283 -0.8846,-1.451 -6.5326,-11.111025 -6.8586,-11.730442 -0.2228,-0.423255 -0.8194,-1.444689 -1.3258,-2.269851 -0.5064,-0.825164 -0.9207,-1.639558 -0.9207,-1.809765 0,-0.170207 -0.1017,-0.347346 -0.226,-0.393644 -0.2667,-0.09935 -4.572,-7.402023 -4.572,-7.755038 0,-0.132876 -0.09,-0.279472 -0.1994,-0.32577 -0.1097,-0.0463 -1.1414,-1.731902 -2.2927,-3.745791 -1.1513,-2.013888 -2.1961,-3.83207 -2.3218,-4.040404 -0.1257,-0.208333 -0.5309,-0.890151 -0.9004,-1.515151 -0.3694,-0.625 -0.9264,-1.534091 -1.2376,-2.020202 -0.3112,-0.486111 -1.3802,-2.304293 -2.3756,-4.040404 -0.9953,-1.736111 -1.9113,-3.32702 -2.0355,-3.535354 -0.1241,-0.208333 -1.1978,-2.00455 -2.3859,-3.991596 -1.1881,-1.987043 -2.1602,-3.735878 -2.1602,-3.886303 0,-0.150421 -0.1609,-0.399656 -0.3576,-0.553858 -0.1966,-0.1542 -0.8622,-1.189455 -1.479,-2.300566 -0.6168,-1.111111 -1.5322,-2.689828 -2.0341,-3.50826 -0.5019,-0.818432 -0.8567,-1.578493 -0.7883,-1.689025 0.068,-0.110532 -0.038,-0.293179 -0.2357,-0.405882 -0.4811,-0.273924 -4.4487,-6.950255 -4.4487,-7.485875 0,-0.231583 -0.1074,-0.421059 -0.2385,-0.421059 -0.2043,0 -6.5797,-10.366263 -6.5797,-10.698354 0,-0.212184 2.3931,-0.639855 2.5756,-0.460292 0.097,0.09559 23.709,40.342017 52.4706,89.436506 l 52.2939,89.26271 -0.072,2.35171 c -0.054,1.77737 -0.1332,2.22652 -0.3241,1.83912 z"
       id="path5976"
       inkscape:connector-curvature="0"
       transform="matrix(0.26458333,0,0,0.26458333,0.28536695,0.57753605)" />
    <path
       style="opacity:1;fill:#37362b;fill-opacity:1;stroke:none;stroke-width:0.25252524;stroke-linecap:round;stroke-linejoin:round;stroke-miterlimit:4;stroke-dasharray:none;stroke-opacity:1"
       d="m 1208.4469,114.82356 c -0.3819,-0.78005 -0.6944,-1.55048 -0.6944,-1.71206 0,-0.16159 -0.2163,-0.52839 -0.4807,-0.81512 -0.2643,-0.28673 -0.9021,-1.31678 -1.4173,-2.289 -1.0465,-1.97499 -3.2997,-6.10863 -3.6477,-6.69192 -0.1243,-0.20833 -0.2922,-0.54924 -0.3732,-0.75757 -0.081,-0.20834 -0.3699,-0.7197 -0.6419,-1.13637 -0.7862,-1.20418 -1.2915,-2.146463 -1.1511,-2.146463 0.2066,0 -2.4195,-4.869464 -2.9407,-5.452899 -0.2598,-0.290762 -0.5249,-0.801752 -0.5892,-1.13553 -0.064,-0.33378 -0.2316,-0.645126 -0.3719,-0.691881 -0.1403,-0.04676 -0.255,-0.253576 -0.255,-0.459604 0,-0.206025 -0.2883,-0.752525 -0.6406,-1.214444 -0.3523,-0.461919 -0.6856,-1.073712 -0.7407,-1.359541 -0.1431,-0.742967 -3.1637,-6.352767 -3.4207,-6.352767 -0.1763,0 -0.544,-0.746975 -0.6215,-1.262627 -0.01,-0.06944 -0.2187,-0.424616 -0.4627,-0.78927 -0.2441,-0.364656 -0.4885,-0.87602 -0.543,-1.136363 -0.1489,-0.710339 -3.3506,-6.607614 -3.9182,-7.216808 -0.2715,-0.291503 -0.4288,-0.635134 -0.3494,-0.763627 0.08,-0.128492 -0.095,-0.456618 -0.3875,-0.729169 -0.4892,-0.455752 -0.6397,-0.803151 -0.5618,-1.296581 0.016,-0.104166 -0.1027,-0.189394 -0.2647,-0.189394 -0.162,0 -0.2224,-0.07219 -0.1342,-0.160414 0.2192,-0.219169 -2.7975,-5.877174 -3.5398,-6.639048 -0.3282,-0.336924 -0.5374,-0.767363 -0.4648,-0.956528 0.073,-0.189164 -0.028,-0.405239 -0.223,-0.480164 -0.3812,-0.146262 -0.6597,-0.675103 -0.7828,-1.486068 -0.085,-0.562727 -3.6388,-7.213308 -3.6467,-6.825124 0,0.135069 -0.1775,-7.57e-4 -0.3884,-0.301805 -0.2109,-0.301063 -0.3679,-0.638849 -0.3489,-0.750634 0.084,-0.495482 -0.045,-0.852409 -0.2596,-0.719533 -0.2237,0.138273 -0.6297,-0.672035 -0.6477,-1.292853 -0.014,-0.498149 -4.027,-7.87426 -4.219,-7.755604 -0.2459,0.15196 -1.016,-1.377088 -0.8383,-1.664525 0.078,-0.126273 -0.01,-0.321801 -0.1943,-0.434503 -0.391,-0.238257 -1.1896,-1.356033 -1.1896,-1.664894 0,-0.116181 0.12,-0.137101 0.2666,-0.04649 0.1466,0.09061 -0.2754,-0.840179 -0.9377,-2.068432 -1.9503,-3.616869 -2.3523,-4.274778 -2.3673,-3.874596 -0.01,0.208334 -0.241,-0.05088 -0.5182,-0.576025 -0.2771,-0.525147 -0.4501,-1.041934 -0.3843,-1.148419 0.066,-0.106485 0.015,-0.358639 -0.1123,-0.560341 -0.201,-0.31769 -0.2339,-0.316076 -0.2465,0.01205 -0.01,0.208334 -0.2321,-0.01894 -0.4983,-0.50505 -0.5567,-1.016922 -0.626,-1.3672 -0.2209,-1.116821 0.1563,0.09659 -0.1152,-0.550114 -0.6034,-1.437116 -0.4882,-0.886987 -2.562,-4.680899 -4.6086,-8.430899 -4.354,-7.97804 -7.5151,-13.5737761 -9.2274,-16.3346828 l -1.224,-1.97339806 h 1.84 1.8399 l 29.595,55.49211886 29.5949,55.492116 -0.071,2.61248 -0.071,2.61248 z"
       id="path5978"
       inkscape:connector-curvature="0"
       transform="matrix(0.26458333,0,0,0.26458333,0.28536695,0.57753605)" />
  </g>
  <g
     inkscape:label="Layer 1"
     inkscape:groupmode="layer"
     id="layer1"
     transform="translate(53.387248,-75.392271)"
     style="display:inline">
    <path
       style="display:inline;fill:none;stroke:#000000;stroke-width:0.99937558px;stroke-linecap:butt;stroke-linejoin:miter;stroke-opacity:1"
       d="m 195.45368,219.36652 c 4.76735,-1.56368 16.39644,-1.45726 17.57962,-5.38978 1.244,-4.13468 2.27823,-7.8512 3.4921,-11.05241 2.39468,-6.31516 4.80198,-9.69912 7.23197,-8.90732 2.81817,0.91826 6.10486,2.74722 8.56182,6.0863 0.6994,0.95053 0.98873,2.65024 2.1376,2.77107 13.91747,1.46383 13.05766,12.76048 22.84785,16.49214"
       id="path5019"
       inkscape:connector-curvature="0"
       sodipodi:nodetypes="csssssc" />
    <path
       style="display:inline;fill:none;stroke:#000000;stroke-width:0.99937558;stroke-linecap:butt;stroke-linejoin:miter;stroke-miterlimit:4;stroke-dasharray:none;stroke-opacity:1"
       d="m -39.342837,107.3135 c 8.926403,0.0498 26.974193,1.11825 28.31045,-6.25757 1.3362551,-7.375836 -8.757874,-11.305133 -15.54755,-14.369242 -6.789678,-3.06411 -21.689302,20.577092 -12.7629,20.626812 z"
       id="path4674"
       inkscape:connector-curvature="0"
       sodipodi:nodetypes="zzzz" />
    <ellipse
       style="display:inline;opacity:1;fill:#666666;fill-opacity:1;stroke:#000000;stroke-width:0.99937606;stroke-linecap:round;stroke-linejoin:round;stroke-miterlimit:4;stroke-dasharray:none;stroke-opacity:1"
       id="path4676"
       cx="-66.986214"
       cy="68.191452"
       rx="6.1561542"
       ry="8.1735983"
       transform="matrix(0.74011492,-0.67248041,0.67340474,0.73927401,0,0)" />
    <path
       style="display:inline;opacity:1;fill:url(#linearGradient4686);fill-opacity:1;stroke:none;stroke-width:0.15137181;stroke-linecap:round;stroke-linejoin:round;stroke-miterlimit:4;stroke-dasharray:none;stroke-opacity:1"
       d="m -40.473221,106.58648 c -0.849754,-0.36917 -1.076148,-0.85172 -1.076148,-2.29358 0,-3.91119 4.544782,-11.567091 8.983851,-15.13364 1.760397,-1.414398 3.074315,-2.081315 4.324699,-2.195159 0.775978,-0.07062 1.279224,0.07082 3.049862,0.857004 9.961807,4.423528 13.741119,7.699205 13.72842,11.898982 -0.0038,1.702153 -0.431283,2.758423 -1.48585,3.683183 -2.018236,1.7698 -5.652905,2.80184 -11.514555,3.26949 -4.013606,0.3202 -15.21359,0.25986 -16.010279,-0.0863 z"
       id="path4678"
       inkscape:connector-curvature="0" />
    <path
       style="display:inline;fill:none;stroke:#000000;stroke-width:0.99937558;stroke-linecap:round;stroke-linejoin:miter;stroke-miterlimit:4;stroke-dasharray:none;stroke-opacity:1"
       d="m -47.380518,103.82974 c 2.584411,3.58016 -9.49734,9.71788 24.234707,7.86639"
       id="path4688"
       inkscape:connector-curvature="0"
       sodipodi:nodetypes="cc" />
    <path
       style="display:inline;fill:none;stroke:#000000;stroke-width:0.99937558;stroke-linecap:butt;stroke-linejoin:miter;stroke-miterlimit:4;stroke-dasharray:none;stroke-opacity:1"
       d="m -21.889567,109.42498 c 5.921403,0.0553 12.1666011,-2.01593 19.1431023,-1.87793 7.3661701,0.14571 14.3924837,2.12121 19.8415967,1.03435 2.584071,-0.51542 -0.51534,-7.35399 1.940415,-7.41422 5.624635,-0.13797 10.613814,8.78954 15.650352,7.50091 8.552077,-2.18811 17.498624,-12.603134 22.715862,-13.556129 10.509461,-1.919684 13.459161,-1.099712 29.439241,2.707266 4.12594,0.98293 6.54571,1.93858 8.98155,1.33111 1.84937,-0.46121 3.68543,-2.872185 4.288688,-3.856682 2.63097,-4.2938 0.90527,-9.531499 -3.497248,-15.869916"
       id="path4690"
       inkscape:connector-curvature="0"
       sodipodi:nodetypes="cssssssssc" />
    <path
       style="display:inline;fill:none;stroke:#000000;stroke-width:0.99937558;stroke-linecap:butt;stroke-linejoin:miter;stroke-miterlimit:4;stroke-dasharray:none;stroke-opacity:1"
       d="m 44.691927,114.07098 c 8.710817,-0.12273 16.529965,-1.35853 19.679875,-8.42364"
       id="path4692"
       inkscape:connector-curvature="0"
       sodipodi:nodetypes="cc" />
    <path
       style="display:inline;fill:none;stroke:#000000;stroke-width:0.99937558px;stroke-linecap:butt;stroke-linejoin:miter;stroke-opacity:1"
       d="m 52.247566,110.03466 c 3.544489,-2.7826 6.140726,-8.45075 12.823976,-8.68631 12.00442,-0.42312 29.76225,6.13203 37.082388,3.47563 4.3621,-1.58295 6.20326,-4.75433 3.51041,-10.934645"
       id="path4694"
       inkscape:connector-curvature="0"
       sodipodi:nodetypes="cssc" />
    <ellipse
       style="display:inline;opacity:1;fill:url(#linearGradient4704);fill-opacity:1;stroke:#000000;stroke-width:0.99937558;stroke-linecap:round;stroke-linejoin:round;stroke-miterlimit:4;stroke-dasharray:none;stroke-opacity:1"
       id="path4696"
       cx="14.293607"
       cy="223.31509"
       rx="16.517017"
       ry="5.0015378" />
    <path
       style="display:inline;fill:none;stroke:#000000;stroke-width:0.99937558px;stroke-linecap:butt;stroke-linejoin:miter;stroke-opacity:1"
       d="m 30.283455,218.48906 c -0.173859,-3.78834 9.398089,-14.2625 16.165618,-15.96984 6.767529,-1.70731 16.740929,7.88434 19.504119,12.46 2.76318,4.57562 -10.019215,11.32277 -15.638445,11.58248 -5.619267,0.25971 -19.86469,-4.44275 -20.031292,-8.07264 z"
       id="path4706"
       inkscape:connector-curvature="0"
       sodipodi:nodetypes="szzzs" />
    <path
       style="display:inline;opacity:1;fill:url(#linearGradient4716);fill-opacity:1;stroke:none;stroke-width:0.17560273;stroke-linecap:round;stroke-linejoin:round;stroke-miterlimit:4;stroke-dasharray:none;stroke-opacity:1"
       d="m 47.08309,225.74075 c -7.07337,-1.14331 -15.11449,-4.60499 -16.074645,-6.92007 -0.989521,-2.3859 6.014381,-10.61707 12.10046,-14.22091 0.639536,-0.37869 1.716289,-0.90153 2.39275,-1.16196 3.077377,-1.18453 6.735782,-0.20836 11.229919,2.99678 2.889948,2.06107 6.467168,5.58862 8.125368,8.01261 1.35863,1.98611 1.15616,2.9685 -1.06323,5.15886 -1.96804,1.94236 -4.9725,3.75045 -8.446282,5.08303 -3.242504,1.24384 -5.387052,1.51676 -8.26434,1.05166 z"
       id="path4708"
       inkscape:connector-curvature="0" />
    <path
       style="display:inline;fill:none;stroke:#000000;stroke-width:0.99937558px;stroke-linecap:butt;stroke-linejoin:miter;stroke-opacity:1"
       d="m 33.797745,208.66145 c -0.767926,-1.93617 -4.284523,-2.42912 -3.411223,-4.56509 4.774353,-11.67768 8.789621,-25.50702 -44.288525,-9.63766 -4.214488,1.26003 -7.944251,-3.748 -11.665585,-6.09279 -4.913741,-3.09612 -11.304866,-2.07587 -16.894124,-2.16749"
       id="path4718"
       inkscape:connector-curvature="0"
       sodipodi:nodetypes="csssc" />
    <path
       style="display:inline;fill:none;stroke:#000000;stroke-width:0.99937558px;stroke-linecap:butt;stroke-linejoin:miter;stroke-opacity:1"
       d="m 53.829001,194.62207 c 13.046861,-4.74885 24.851001,-6.09399 24.775861,-0.40334 -0.0832,6.28629 -3.99452,11.01188 -0.29291,10.91143 10.1724,-0.27594 13.42696,7.09081 14.34981,13.88538"
       id="path4720"
       inkscape:connector-curvature="0"
       sodipodi:nodetypes="cssc" />
    <path
       style="display:inline;fill:none;stroke:#000000;stroke-width:0.99937558px;stroke-linecap:butt;stroke-linejoin:miter;stroke-opacity:1"
       d="m 104.61008,227.0882 c -8.429528,-6.1793 -3.68742,-16.07335 -2.35807,-22.68804 0.72092,-3.58727 -5.017278,-6.55656 -11.763108,-9.60086 -3.71669,-1.6773 4.37644,-8.73258 -3.53901,-13.60471 -11.86642,-7.30409 -37.088953,-14.86351 -113.35582,-5.26471 -4.10182,0.51624 -4.564436,-6.82121 -5.976849,-10.74589 -1.21671,-3.38089 -7.103228,-0.7251 -10.606068,-0.74665"
       id="path4722"
       inkscape:connector-curvature="0"
       sodipodi:nodetypes="csssssc" />
    <ellipse
       style="display:inline;opacity:1;fill:#4d4d4d;fill-opacity:1;stroke:#000000;stroke-width:0.99937558;stroke-linecap:round;stroke-linejoin:round;stroke-miterlimit:4;stroke-dasharray:none;stroke-opacity:1"
       id="path4724"
       cx="211.09216"
       cy="123.81084"
       rx="2.6356943"
       ry="2.0181639" />
    <path
       style="display:inline;fill:none;stroke:#000000;stroke-width:0.99937558px;stroke-linecap:butt;stroke-linejoin:miter;stroke-opacity:1"
       d="m 155.03967,201.81725 c 2.26334,-3.70602 4.79874,-8.77614 8.71585,-8.23302 31.29953,4.33958 39.63848,4.68543 37.4967,-9.66722"
       id="path4726"
       inkscape:connector-curvature="0"
       sodipodi:nodetypes="csc" />
    <path
       style="display:inline;fill:none;stroke:#000000;stroke-width:0.99937558px;stroke-linecap:butt;stroke-linejoin:miter;stroke-opacity:1"
       d="m 198.96794,204.80063 c 3.01289,-1.10795 4.91014,-3.52578 7.46807,-5.18658 4.54352,-2.94996 -0.48432,-10.4218 3.33608,-16.45321 1.14698,-1.81073 4.31528,-2.21407 8.07166,-7.95191 2.03962,-3.11557 2.7518,-6.95322 4.1426,-10.24511"
       id="path4728"
       inkscape:connector-curvature="0"
       sodipodi:nodetypes="csssc" />
    <path
       style="display:inline;fill:none;stroke:#000000;stroke-width:0.99937558px;stroke-linecap:butt;stroke-linejoin:miter;stroke-opacity:1"
       d="m 194.75083,170.93057 c 1.49013,-1.59217 5.36185,-4.85484 6.35099,-8.85506 0.53288,-2.15496 -4.63091,-5.77241 -1.73398,-6.96115 21.62335,-8.87307 4.9404,-18.426 -21.56601,-18.7297 -3.26226,-0.0376 -1.8796,-5.86427 -2.62893,-8.03834 -0.89999,-2.61111 -5.9575,-0.5413 -10.21662,1.25483 -1.49761,0.63155 -1.64614,-2.83025 -2.48501,-4.28459 -2.83001,-4.90612 -10.60018,-5.15756 -18.15007,-5.62982"
       id="path4730"
       inkscape:connector-curvature="0"
       sodipodi:nodetypes="cssssssc" />
    <path
       style="display:inline;fill:none;stroke:#000000;stroke-width:0.99937558px;stroke-linecap:butt;stroke-linejoin:miter;stroke-opacity:1"
       d="m 252.38469,163.55988 c 5.82167,0.68968 12.43555,2.96185 14.23273,-4.38731"
       id="path4732"
       inkscape:connector-curvature="0"
       sodipodi:nodetypes="cc" />
    <path
       style="display:inline;fill:none;stroke:#000000;stroke-width:0.99937558px;stroke-linecap:butt;stroke-linejoin:miter;stroke-opacity:1"
       d="m 225.14918,117.58083 c 1.75019,3.2975 6.62576,4.36543 14.9356,2.98337"
       id="path4734"
       inkscape:connector-curvature="0"
       sodipodi:nodetypes="cc" />
    <path
       style="display:inline;fill:none;stroke:#000000;stroke-width:0.99937558px;stroke-linecap:butt;stroke-linejoin:miter;stroke-opacity:1"
       d="m 173.13811,85.114707 c 1.34627,4.105195 4.34969,7.015093 14.05704,5.089285"
       id="path4738"
       inkscape:connector-curvature="0"
       sodipodi:nodetypes="cc" />
    <path
       style="display:inline;fill:none;stroke:#000000;stroke-width:0.99937558px;stroke-linecap:butt;stroke-linejoin:miter;stroke-opacity:1"
       d="m 195.45368,178.47673 c 10.68964,-0.95279 15.1166,-4.36597 17.48516,-8.45238 1.64558,-2.83916 -4.3637,-9.38976 -1.2864,-11.39541 16.65761,-10.85675 18.88077,-20.12177 13.5034,-28.30181 -5.85868,-8.91219 -19.19228,-23.5885 -35.80388,-23.52833 -4.72201,0.0171 -13.54202,2.15251 -12.92459,-1.86708 0.49894,-3.24793 0.11149,-8.282466 -2.8943,-7.923783 -4.30931,0.514256 -11.78146,1.653247 -11.62567,-2.104343 0.28043,-6.764994 -1.46616,-13.307275 -11.78766,-10.666346"
       id="path4740"
       inkscape:connector-curvature="0"
       sodipodi:nodetypes="csssssssc" />
    <ellipse
       style="display:inline;opacity:1;fill:url(#linearGradient4750);fill-opacity:1;stroke:#000000;stroke-width:0.99937558;stroke-linecap:round;stroke-linejoin:round;stroke-miterlimit:4;stroke-dasharray:none;stroke-opacity:1"
       id="path4742"
       cx="256.60178"
       cy="157.24217"
       rx="5.6228151"
       ry="2.6323881" />
    <ellipse
       style="display:inline;opacity:1;fill:#4d4d4d;fill-opacity:1;stroke:#000000;stroke-width:0.99937558;stroke-linecap:round;stroke-linejoin:round;stroke-miterlimit:4;stroke-dasharray:none;stroke-opacity:1"
       id="path4752"
       cx="261.17029"
       cy="151.4509"
       rx="2.2842686"
       ry="1.579433" />
    <ellipse
       style="display:inline;opacity:1;fill:#666666;fill-opacity:1;stroke:#000000;stroke-width:0.99937558;stroke-linecap:round;stroke-linejoin:round;stroke-miterlimit:4;stroke-dasharray:none;stroke-opacity:1"
       id="path4754"
       cx="234.19839"
       cy="115.91367"
       rx="4.3049679"
       ry="2.0181639" />
    <ellipse
       style="display:inline;opacity:1;fill:url(#linearGradient4764);fill-opacity:1;stroke:#000000;stroke-width:0.99937558;stroke-linecap:round;stroke-linejoin:round;stroke-miterlimit:4;stroke-dasharray:none;stroke-opacity:1"
       id="path4756"
       cx="182.89014"
       cy="83.623032"
       rx="5.7106709"
       ry="3.7730899" />
    <ellipse
       style="display:inline;opacity:1;fill:#666666;fill-opacity:1;stroke:#000000;stroke-width:0.99937558;stroke-linecap:round;stroke-linejoin:round;stroke-miterlimit:4;stroke-dasharray:none;stroke-opacity:1"
       id="path4766"
       cx="192.64221"
       cy="84.149498"
       rx="2.6356943"
       ry="1.1407015" />
    <path
       style="display:inline;fill:none;stroke:#000000;stroke-width:0.99937558px;stroke-linecap:butt;stroke-linejoin:miter;stroke-opacity:1"
       d="m -52.301631,143.90472 c 8.245596,-4.48584 15.967459,-6.75461 23.357856,-7.80561 7.28903,-1.03659 14.34732,-1.68948 21.0842363,-0.51466 11.8799591,2.07166 22.0621127,2.64228 31.0557537,-1.02475 4.317933,-1.76057 7.984275,5.67605 11.651714,10.76763 2.635661,3.65912 8.207533,1.51653 11.425433,1.38526"
       id="path4768"
       inkscape:connector-curvature="0"
       sodipodi:nodetypes="cssssc" />
    <path
       style="display:inline;fill:none;stroke:#000000;stroke-width:0.99937558px;stroke-linecap:butt;stroke-linejoin:miter;stroke-opacity:1"
       d="m -13.293346,141.79881 c 1.68764,-4.43757 12.67922125,-0.2706 17.9227264,-0.52648 5.243506,-0.25585 13.5841166,-5.8806 15.8141586,-0.70197 2.230041,5.17863 -10.4466086,7.11943 -16.3412906,7.37069 -5.8946821,0.25126 -19.0832344,-1.70467 -17.3955944,-6.14224 z"
       id="path4770"
       inkscape:connector-curvature="0"
       sodipodi:nodetypes="zzzzz" />
    <path
       style="display:inline;opacity:1;fill:#282828;fill-opacity:1;stroke:none;stroke-width:0.17560273;stroke-linecap:round;stroke-linejoin:round;stroke-miterlimit:4;stroke-dasharray:none;stroke-opacity:1"
       d="m -0.14769275,147.26408 c -4.92821595,-0.56975 -8.10968205,-1.29731 -10.30393125,-2.35637 -2.286772,-1.10371 -2.920562,-2.27315 -1.892906,-3.49287 1.055701,-1.25305 3.9409252,-1.36683 9.8246853,-0.3874 7.292735,1.21395 7.246813,1.21735 14.7263317,-1.0919 2.532669,-0.78196 4.219704,-1.07551 5.273667,-0.91766 2.045033,0.30629 3.222624,2.38856 2.196591,3.88409 -1.595494,2.32556 -8.590929,4.23206 -16.0466366,4.37331 -1.7395332,0.033 -3.43957015,0.0281 -3.77780115,-0.0114 z"
       id="path4774"
       inkscape:connector-curvature="0" />
    <path
       style="display:inline;opacity:1;fill:#837863;fill-opacity:1;stroke:none;stroke-width:0.17571242;stroke-linecap:round;stroke-linejoin:round;stroke-miterlimit:4;stroke-dasharray:none;stroke-opacity:1;filter:url(#filter4945)"
       d="m 16.284022,82.689068 c -3.016351,-0.24958 -5.771423,-0.88225 -6.8088561,-1.56357 -0.554998,-0.36449 -0.658922,-0.53045 -0.658922,-1.05224 0,-0.96737 0.626354,-1.97891 2.1748941,-3.51237 3.850913,-3.81342 13.196897,-8.60735 18.843037,-9.66534 2.17529,-0.40761 2.69871,-0.27562 3.46124,0.87283 0.78871,1.18789 1.49078,2.58335 2.39971,4.76979 1.30497,3.1391 2.6085,5.04971 4.58637,6.72234 l 1.01448,0.85792 -0.5974,0.28488 c -1.86477,0.88925 -7.41588,1.78485 -13.783951,2.22386 -2.339073,0.16126 -8.963574,0.19983 -10.630602,0.0619 z"
       id="path4778"
       inkscape:connector-curvature="0"
       transform="matrix(1.0000031,0,0,0.99874865,-52.540801,73.966069)" />
    <path
       inkscape:connector-curvature="0"
       id="path4949"
       d="m -24.928202,220.11561 c -3.016351,-0.24958 -5.771423,-0.88225 -6.808856,-1.56357 -0.554998,-0.36449 -0.658922,-0.53045 -0.658922,-1.05224 0,-0.96737 0.626354,-1.97891 2.174894,-3.51237 3.850913,-3.81342 13.196897,-8.60735 18.843037,-9.66534 2.1752901,-0.40761 2.6987101,-0.27562 3.4612401,0.87283 0.78871,1.18789 1.49078,2.58335 2.39971,4.76979 1.30497,3.1391 2.6085,5.04971 4.58637001,6.72234 l 1.01448,0.85792 -0.5974,0.28488 c -1.86477001,0.88925 -7.41588001,1.78485 -13.78395111,2.22386 -2.339073,0.16126 -8.963574,0.19983 -10.630602,0.0619 z"
       style="display:inline;opacity:1;fill:#837863;fill-opacity:1;stroke:none;stroke-width:0.17571242;stroke-linecap:round;stroke-linejoin:round;stroke-miterlimit:4;stroke-dasharray:none;stroke-opacity:1;filter:url(#filter4945)"
       transform="matrix(-0.71368127,-0.19079756,-0.12341303,1.1033572,43.835294,-89.266351)" />
    <path
       style="display:inline;fill:none;stroke:#000000;stroke-width:0.99937558px;stroke-linecap:butt;stroke-linejoin:miter;stroke-opacity:1"
       d="m 45.92194,150.04696 c 8.589343,-2.17039 16.707602,-2.53565 20.292122,-6.86301 2.01851,-2.43681 2.82335,-5.90586 5.22053,-6.72206 2.94615,-1.00315 5.79652,-1.69218 6.81072,-3.58173 3.75161,-6.98946 3.91289,-15.02085 10.85144,-16.13145 3.41943,-0.54732 6.62799,0.29832 9.63854,-0.0337 2.783708,-0.30682 5.407408,-0.74628 7.906818,-0.92606 2.75214,-0.19797 5.01612,-2.36917 7.28623,-4.71178 2.2427,-2.31431 4.49738,5.02795 6.59431,8.2804 4.45393,6.90818 9.72026,14.81885 14.39037,23.9234 5.0588,9.86238 14.40132,16.14473 23.28952,18.69923"
       id="path4951"
       inkscape:connector-curvature="0"
       sodipodi:nodetypes="csssssssssc" />
    <path
       sodipodi:nodetypes="zzzzz"
       inkscape:connector-curvature="0"
       id="path4953"
       d="m 88.209362,121.77277 c 1.09553,-3.34768 10.29357,-1.07828 14.541478,-1.629 4.24794,-0.5507 10.67947,-5.22502 12.81593,-1.61017 2.13646,3.61483 -8.05084,5.90876 -12.82859,6.50137 -4.777728,0.59263 -15.624368,0.0855 -14.528818,-3.2622 z"
       style="display:inline;fill:none;stroke:#000000;stroke-width:0.99937558;stroke-linecap:butt;stroke-linejoin:miter;stroke-miterlimit:4;stroke-dasharray:none;stroke-opacity:1" />
    <path
       inkscape:connector-curvature="0"
       id="path4955"
       d="m 99.239972,124.83757 c -4.04304,-0.0722 -6.6755,-0.38072 -8.52588,-0.99917 -1.9284,-0.64452 -2.51669,-1.45176 -1.75715,-2.4111 0.78029,-0.98553 3.11941,-1.26891 7.96504,-0.96488 6.005998,0.37683 5.968888,0.38248 11.906998,-1.81843 2.01072,-0.74526 3.36429,-1.07621 4.2312,-1.03456 1.68208,0.0808 2.76953,1.51478 2.02847,2.67478 -1.15234,1.80382 -6.72191,3.6779 -12.77594,4.29893 -1.4125,0.14487 -2.795208,0.25948 -3.072698,0.25459 z"
       style="display:inline;opacity:1;fill:#282828;fill-opacity:1;stroke:none;stroke-width:0.99937558;stroke-linecap:round;stroke-linejoin:round;stroke-miterlimit:4;stroke-dasharray:none;stroke-opacity:1" />
    <path
       transform="matrix(0.00508379,0.73785936,0.99787465,-0.17453928,-140.718,200.00939)"
       style="display:inline;opacity:1;fill:#837863;fill-opacity:1;stroke:none;stroke-width:0.17571242;stroke-linecap:round;stroke-linejoin:round;stroke-miterlimit:4;stroke-dasharray:none;stroke-opacity:1;filter:url(#filter4945)"
       d="m -24.928202,220.11561 c -3.016351,-0.24958 -5.771423,-0.88225 -6.808856,-1.56357 -0.554998,-0.36449 -0.658922,-0.53045 -0.658922,-1.05224 0,-0.96737 0.626354,-1.97891 2.174894,-3.51237 3.850913,-3.81342 13.196897,-8.60735 18.843037,-9.66534 2.1752901,-0.40761 2.6987101,-0.27562 3.4612401,0.87283 0.78871,1.18789 1.49078,2.58335 2.39971,4.76979 1.30497,3.1391 2.6085,5.04971 4.58637001,6.72234 l 1.01448,0.85792 -0.5974,0.28488 c -1.86477001,0.88925 -7.41588001,1.78485 -13.78395111,2.22386 -2.339073,0.16126 -8.963574,0.19983 -10.630602,0.0619 z"
       id="path4957"
       inkscape:connector-curvature="0" />
    <path
       inkscape:connector-curvature="0"
       id="path4961"
       d="m -24.928202,220.11561 c -3.016351,-0.24958 -5.771423,-0.88225 -6.808856,-1.56357 -0.554998,-0.36449 -0.658922,-0.53045 -0.658922,-1.05224 0,-0.96737 0.626354,-1.97891 2.174894,-3.51237 3.850913,-3.81342 13.196897,-8.60735 18.843037,-9.66534 2.1752901,-0.40761 2.6987101,-0.27562 3.4612401,0.87283 0.78871,1.18789 1.49078,2.58335 2.39971,4.76979 1.30497,3.1391 2.6085,5.04971 4.58637001,6.72234 l 1.01448,0.85792 -0.5974,0.28488 c -1.86477001,0.88925 -7.41588001,1.78485 -13.78395111,2.22386 -2.339073,0.16126 -8.963574,0.19983 -10.630602,0.0619 z"
       style="display:inline;opacity:1;fill:#837863;fill-opacity:1;stroke:none;stroke-width:0.17571242;stroke-linecap:round;stroke-linejoin:round;stroke-miterlimit:4;stroke-dasharray:none;stroke-opacity:1;filter:url(#filter4945)"
       transform="matrix(0.06576115,1.04679,-1.3780471,-0.89703011,422.80547,353.80622)" />
    <path
       style="display:inline;fill:none;stroke:#000000;stroke-width:0.99937558px;stroke-linecap:butt;stroke-linejoin:miter;stroke-opacity:1"
       d="m 104.08294,129.16334 c 5.45048,-2.31896 0.71672,25.14746 8.43423,35.80048"
       id="path4971"
       inkscape:connector-curvature="0"
       sodipodi:nodetypes="cc" />
    <path
       style="display:inline;fill:none;stroke:#000000;stroke-width:0.99937558px;stroke-linecap:butt;stroke-linejoin:miter;stroke-opacity:1"
       d="m 233.75908,74.234169 c 1.55355,2.4382 7.40326,7.3066 4.47434,7.50066 -29.01236,1.922236 -52.69789,6.683249 -47.35993,10.201112 10.70073,7.052097 61.83386,14.597969 55.63719,21.827569 -1.59266,1.85818 2.10826,5.53859 2.45262,9.51188 0.23055,2.66005 -10.4053,4.77812 -4.0128,10.28408 8.45354,7.28116 20.2895,11.12387 23.07263,15.43453"
       id="path4973"
       inkscape:connector-curvature="0"
       sodipodi:nodetypes="csssssc" />
    <path
       style="display:inline;fill:none;stroke:#000000;stroke-width:0.99937558px;stroke-linecap:butt;stroke-linejoin:miter;stroke-opacity:1"
       d="m 250.97897,74.409659 17.21988,32.290631"
       id="path4975"
       inkscape:connector-curvature="0" />
    <path
       style="display:inline;fill:none;stroke:#000000;stroke-width:0.99937558px;stroke-linecap:butt;stroke-linejoin:miter;stroke-opacity:1"
       d="m 239.03048,81.429359 28.99265,49.488911"
       id="path4977"
       inkscape:connector-curvature="0" />
    <path
       style="display:inline;fill:none;stroke:#000000;stroke-width:0.99937558px;stroke-linecap:butt;stroke-linejoin:miter;stroke-opacity:1"
       d="m 247.289,112.84254 20.73413,28.60528"
       id="path4979"
       inkscape:connector-curvature="0" />
    <path
       style="display:inline;fill:none;stroke:#000000;stroke-width:0.99937558px;stroke-linecap:butt;stroke-linejoin:miter;stroke-opacity:1"
       d="m 248.87041,123.89857 14.05704,20.70811"
       id="path4981"
       inkscape:connector-curvature="0" />
    <path
       style="display:inline;fill:none;stroke:#000000;stroke-width:0.89665192;stroke-linecap:butt;stroke-linejoin:miter;stroke-miterlimit:4;stroke-dasharray:none;stroke-opacity:1"
       d="m 221.19752,199.0484 c 4.85546,-1.24814 8.11384,3.32722 10.43073,5.62992 2.3169,2.30267 7.21387,0.58616 6.0913,3.91088 -1.1226,3.32473 -8.9137,1.54306 -12.55469,-0.96601 -3.64101,-2.50907 -8.8228,-7.32665 -3.96734,-8.57479 z"
       id="path5021"
       inkscape:connector-curvature="0"
       sodipodi:nodetypes="zzzzz" />
    <path
       style="display:inline;opacity:1;fill:#282828;fill-opacity:1;stroke:none;stroke-width:0.17560273;stroke-linecap:round;stroke-linejoin:round;stroke-miterlimit:4;stroke-dasharray:none;stroke-opacity:1"
       d="m 231.43905,209.6024 c -3.75893,-0.86979 -6.5395,-2.42758 -9.42049,-5.27778 -2.8039,-2.77387 -2.9016,-4.30285 -0.30918,-4.84031 1.32296,-0.27443 2.48823,-0.0781 3.98803,0.67116 1.00637,0.50284 1.75775,1.11466 3.72099,3.03003 1.35299,1.32001 2.71903,2.53184 3.03569,2.69298 0.31672,0.16119 1.46317,0.48816 2.54782,0.72673 2.05294,0.45154 2.4982,0.7183 2.31334,1.38592 -0.37939,1.37025 -1.04587,1.73916 -3.24047,1.79351 -0.91808,0.0228 -2.10414,-0.0593 -2.63569,-0.1823 z"
       id="path5025"
       inkscape:connector-curvature="0" />
    <path
       style="display:inline;fill:none;stroke:#000000;stroke-width:0.99937558px;stroke-linecap:butt;stroke-linejoin:miter;stroke-opacity:1"
       d="m 214.78209,221.64793 c 1.51476,-1.13244 3.00859,-1.98868 4.45381,-2.67422 5.1008,-2.41964 -8.39546,-16.92529 15.22584,-3.11455 3.58187,2.09422 8.92159,2.63398 14.76008,9.29861"
       id="path5027"
       inkscape:connector-curvature="0"
       sodipodi:nodetypes="cssc" />
    <path
       transform="matrix(-0.44033404,-0.53984167,0.76535003,-0.03518162,74.898572,214.29466)"
       style="display:inline;opacity:1;fill:#837863;fill-opacity:1;stroke:none;stroke-width:0.17571242;stroke-linecap:round;stroke-linejoin:round;stroke-miterlimit:4;stroke-dasharray:none;stroke-opacity:1;filter:url(#filter4945)"
       d="m -24.928202,220.11561 c -3.016351,-0.24958 -5.771423,-0.88225 -6.808856,-1.56357 -0.554998,-0.36449 -0.658922,-0.53045 -0.658922,-1.05224 0,-0.96737 0.626354,-1.97891 2.174894,-3.51237 3.850913,-3.81342 13.196897,-8.60735 18.843037,-9.66534 2.1752901,-0.40761 2.6987101,-0.27562 3.4612401,0.87283 0.78871,1.18789 1.49078,2.58335 2.39971,4.76979 1.30497,3.1391 2.6085,5.04971 4.58637001,6.72234 l 1.01448,0.85792 -0.5974,0.28488 c -1.86477001,0.88925 -7.41588001,1.78485 -13.78395111,2.22386 -2.339073,0.16126 -8.963574,0.19983 -10.630602,0.0619 z"
       id="path5029"
       inkscape:connector-curvature="0" />
    <path
       style="display:inline;fill:none;stroke:#000000;stroke-width:0.99937558px;stroke-linecap:butt;stroke-linejoin:miter;stroke-opacity:1"
       d="m 242.54474,191.28772 c 30.96167,3.08756 8.21218,13.48913 24.4241,12.98644"
       id="path5031"
       inkscape:connector-curvature="0"
       sodipodi:nodetypes="cc" />
  </g>
</svg>
